<svg width="1061" height="1024" viewBox="0 0 1061 1024" fill="none" xmlns="http://www.w3.org/2000/svg">
<path d="M494.998 603.962L494.574 613.015L495.187 620.678L496.328 625.123L498.29 632.363L505.759 634.223L509.902 634.065L515.275 637.878L517.928 635.794L523.053 630.535L529.904 632.683L531.202 631.036L536.723 633.106L534.292 636.635L547.415 641.564L545.002 648.441L545.584 653.457L541.489 659.38L539.721 666.359L541.769 671.775L536.216 684.522L539.27 684.546L543.856 686.614L551.166 687.543L555.832 690.071L555.67 693.897L552.408 698.731L552.334 704.594L549.149 708.086L548.613 712.232L526.207 703.476L512.194 738.517L515.964 750.454L520.313 760.169L498.73 757.148L473.227 745.536L467.818 737.282L423.907 720.991L421.973 721.153L417.488 713.611L410.622 710.593L403.433 710.028L397.421 710.17L399.111 702.729L404.37 693.484L411.994 684.736L414.38 680.197L421.701 671.584L426.003 668.057L434.96 663.241L440.292 659.686L444.533 652.014L446.342 645.608L444.614 640.474L444.273 632.769L444.123 625.236L445.565 623.203L450.53 620.178L451.268 608.465L451.834 600.386L449.048 591.487L450.878 589.788L455.884 590.05L458.935 591.45L463.213 591.608L494.998 603.962ZM453.84 585.783L450.66 585.87L450.881 576.669L457.017 573.696L460.969 573.138L463.597 578.379L458.803 579.13L455.979 581.22L453.84 585.783Z" stroke="#002448" stroke-opacity="0.2"/>
<path d="M640.907 642.3L645.192 629.085L644.352 623.166L650.576 626.521L656.223 621.683L661.687 624.583L660.689 629.046L662.08 632.369L660.841 635.897L657.317 637.122L650.972 641.109L645.562 643.5L640.907 642.3Z" stroke="#002448" stroke-opacity="0.2"/>
<path d="M397.913 417.249L388.515 415.091L388.711 406.63L398.739 381.967L397.424 378.894L399.062 373.406L396.778 368.156L394.715 363.675L398.292 358.458L402.475 358.646L406.508 354.712L412.171 355.711L415.786 353.342L420.637 351.523L424.515 352.975L430.321 362.436L428.508 365.907L428.446 373.315L424.638 376.89L424.654 380.255L416.835 384.978L412.234 387.031L407.579 393.091L405.208 400.086L397.913 417.249Z" stroke="#002448" stroke-opacity="0.2"/>
<path d="M542.182 781.662L543.577 784.515L544.452 792.379L551.854 809.585L556.002 812.589L554.478 816.642L554.854 825.15L562.516 830.12L567.386 837.982L548.847 840.671L535.82 845.669L529.228 852.108L524.286 855.291L518.054 853.982L513.99 858.914L511.476 862.2L503.515 862.323L494.962 858.366L491.085 853.057L487.095 849.871L480.776 850.606L475.948 855.299L469.46 856.932L462.013 860.214L453.814 858.476L453.027 853.337L456.814 846.435L454.749 832.698L452.519 829.804L465.594 795.714L476.383 799.389L492.3 758.847L500.476 761.556L518.617 763.988L520.958 770.218L529.54 768.44L532.819 769.671L539.875 769.466L541.491 771.052L542.182 781.662Z" stroke="#002448" stroke-opacity="0.2"/>
<path d="M690.128 563.294L684.659 575.592L688.427 578.701L683.497 581.174L678.26 582.435L671.992 586.439L667.815 590.552L663.903 598.919L659.836 602.054L656.644 610.098L652.396 611.897L649.549 618.122L647.75 618.381L644.503 623.865L645.344 629.784L641.058 643L639.201 653.638L635.976 658.822L635.734 665.906L639.672 674.346L640.268 690.207L636.443 687.477L621.254 683.745L617.864 683.932L612.135 689.673L612.712 695.394L605.849 707.55L600.306 718.006L602.47 721.074L608.375 728.229L612.102 727.373L608.456 739.567L600.235 736.307L598.129 728.557L595.95 722.354L588.27 717.651L588.053 710.983L580.133 711.908L572.079 707.065L570.38 700.716L563.919 697.08L558.762 695.406L559.45 691.773L555.831 690.071L551.164 687.544L543.859 686.616L539.273 684.548L536.219 684.524L541.772 671.777L539.723 666.361L541.491 659.382L545.587 653.46L545.004 648.443L547.414 641.565L534.291 636.636L536.726 633.108L531.204 631.038L529.906 632.685L523.055 630.537L517.931 635.796L515.276 637.884L509.903 634.071L505.761 634.225L498.292 632.365L496.332 625.121L495.191 620.676L494.58 613.019L495 603.965L463.224 591.609L458.947 591.451L455.896 590.051L450.89 589.79L450.663 585.872L453.843 585.786L455.978 581.221L458.805 579.132L463.596 578.379L466.012 580.56L471.279 577.863L477.114 580.221L476.638 583.529L479.939 586.98L488.868 582.678L497.167 579.843L501.209 577.452L504.235 568.485L512.918 559.865L519.979 556.241L529.062 553.803L531.613 550.858L533.389 547.034L536.573 543.992L538.338 537.701L543.325 528.717L548.004 522.838L553.431 518.344L556.561 512.108L560.404 504.99L566.694 501.145L573.801 499.9L581.274 506.96L586.624 513.558L594.109 517.644L601.352 522.828L607.066 517.575L608.864 517.316L613.366 520.284L627.432 519.524L630.818 523.431L634.432 524.447L637.055 522.452L641.416 523.071L649.096 527.315L655.922 530.217L659.918 530.443L663.049 541.826L667.392 544.989L670.969 544.291L675.689 546.91L682.565 546.944L683.367 552.513L690.128 563.294Z" stroke="#002448" stroke-opacity="0.2"/>
<path d="M538.505 456.795L547.74 459.403L550.79 457.387L552.499 458.281L554.252 461.765L569.421 462.836L575.619 460.368L582.7 458.742L583.095 454.515L586.521 454.683L596.679 459.357L608.759 458.219L621.112 449.339L628.281 447.023L635.825 447.777L635.255 452.92L638.862 462.12L637.19 466.568L633.706 470.416L633.1 474.054L635.644 478.614L642.041 486.501L646.269 493.138L645.02 496.692L650.118 505.1L652.819 511.495L653.062 519.007L659.49 526.363L659.915 530.441L655.92 530.214L649.094 527.313L641.414 523.069L637.053 522.45L634.43 524.445L630.816 523.429L627.43 519.521L613.364 520.281L608.862 517.314L607.064 517.573L601.35 522.826L594.106 517.641L586.622 513.556L581.272 506.957L573.799 499.898L566.692 501.143L560.402 504.988L556.558 512.106L549.849 508.843L543.243 504.239L534.631 507.462L525.142 515.274L525.2 511.73L526.593 506.65L522.985 501.307L521.13 494.236L521.69 490.029L518.746 482.46L520.845 479.589L521.51 474.645L525.544 466.616L528.885 465.651L538.505 456.795Z" stroke="#002448" stroke-opacity="0.2"/>
<path d="M463.595 578.378L460.971 573.139L457.015 573.695L450.883 576.669L446.391 561.887L456.879 559.11L455.534 550.455L460.266 549.177L468.049 550.654L470.73 546.232L474.518 553.591L483.865 557.698L489.122 553.902L493.218 547.296L495.252 538.477L492.578 530.182L502.01 519.564L500.137 516.404L491.777 514.199L490.886 507.502L493.466 503.125L506.914 508.77L514.551 514.944L522.149 520.768L525.144 515.275L534.633 507.463L543.245 504.239L549.85 508.844L556.56 512.107L553.431 518.342L548.004 522.836L543.325 528.716L538.338 537.699L536.573 543.991L533.389 547.032L531.612 550.857L529.061 553.802L519.979 556.24L512.917 559.863L504.235 568.483L501.209 577.451L497.167 579.841L488.867 582.677L479.939 586.979L476.638 583.528L477.113 580.219L471.278 577.861L466.011 580.558L463.595 578.378Z" stroke="#002448" stroke-opacity="0.2"/>
<path d="M332.849 407.903L327.897 406.131L321.18 401.139L314.216 398.609L300.719 395.584L292.038 395.815L279.846 395.66L277.868 394.58L282.097 386.042L283.646 385.088L284.942 380.721L282.107 374.457L278.955 372.422L276.949 368.254L281.129 364.363L282.057 358.726L283.757 355.777L285.475 356.418L287.92 351.946L287.888 349.533L289.496 348.424L294.005 348.658L294.67 338.952L293.909 333.505L296.192 330.144L298.665 330.127L300.454 329.674L302.811 332.459L311.106 335.743L314.311 333.323L316.091 334.253L319.675 334.216L319.561 339.517L322.604 339.109L327.674 339.204L331.614 343.439L332.118 347.764L336.089 351.918L340.909 350.629L346.122 352.157L352.428 357.794L349.368 374.326L341.336 381.664L333.848 392.773L334.966 403.847L332.849 407.903Z" stroke="#002448" stroke-opacity="0.2"/>
<path d="M493.467 503.124L492.345 502.022L485.432 500.955L479.428 497.005L474.033 495.743L456.574 488.761L461.396 480.898L459.905 472.187L455.681 468.474L455.334 462.82L453.162 460.222L454.426 457.295L460.125 450.748L469.245 442.322L472.402 443.423L481.25 439.571L485.408 440.963L489.761 447.722L498.569 446.931L501.3 442.828L505.394 439.403L509.166 434.566L516.645 432.316L521.737 425.553L524.955 424.011L528.644 418.939L534.167 413.079L546.493 408.112L548.463 404.693L550.395 403.166L547.801 397.157L549.489 393.793L552.778 394.331L554.369 403.009L552.3 410.552L549.124 417.657L551.194 429.816L545.211 427.396L541.87 427.006L537.372 424.027L533.057 428.259L536.996 437.039L540.988 440.68L540.783 445.747L541.324 454.517L538.508 456.795L528.887 465.651L525.547 466.616L521.513 474.645L520.847 479.589L518.748 482.46L521.692 490.028L521.133 494.236L522.987 501.307L526.595 506.65L525.202 511.73L525.145 515.274L522.15 520.767L514.552 514.943L506.915 508.769L493.467 503.124Z" stroke="#002448" stroke-opacity="0.2"/>
<path d="M860.439 514.394L861.69 518.771L859.605 523.192L852.445 523.45L855.927 528.224L849.711 532.543L848.065 529.678L845.17 529.459L839.216 526.963L840.318 523.572L840.633 520.233L846.254 516.498L851.905 513.101L856.159 515.828L860.439 514.394Z" stroke="#002448" stroke-opacity="0.2"/>
<path d="M571.876 264.046L526.423 271.992L486.558 282.515L469.402 281.745L457.012 278.266L459.663 270.987L455.376 267.219L449.916 261.377L449.406 255.034L422.685 215.887L396.121 176.328L366.657 131.813L367.762 129.553L368.07 128.74L373.516 114.271L394.417 111.879L405.911 114.131L416.016 114.19L422.527 109.552L437.033 109.451L441.066 100.331L447.728 101.625L454.405 98.8201L469.339 102.101L473.213 97.9159L471.411 94.1129L472.896 79.108L475.283 70.9634L474.432 61.0243L487.564 57.7968L500.111 59.9715L509.024 57.1021L520.971 57.0211L540.167 61.6501L558.429 67.4034L563.104 71.4833L575.292 70.0865L586.857 74.4048L590.045 79.2204L597.734 81.2307L592.904 87.264L589.763 100.57L583.073 110.414L573.64 115.122L570.86 125.208L576.753 136.226L575.662 139.346L580.347 147.023L576.299 171.319L575.6 183.585L573.993 189.522L568.27 198.757L566.925 204.596L563.014 210.682L561.057 218.603L554.856 221.961L557.904 233.088L556.36 238.321L557.674 246.376L563.541 246.152L569.957 254.885L571.876 264.046Z" stroke="#002448" stroke-opacity="0.2"/>
<path d="M846.887 286.588L841.957 290.372L836.091 298.726L830.726 303.932L827.398 305.083L825.308 299.788L822.525 292.488L821.585 271.923L820.046 272.621L819.537 287.313L821.461 302.094L822.422 323.965L823.92 331.976L824.811 340.006L829.484 356.769L826.556 357.994L823.988 365.721L832.55 380.974L833.537 384.072L790.754 367.657L748.902 351.599L705.538 334.961L722.111 291.766L738.613 248.757L739.195 237.567L744.919 230.954L745.301 224.966L751.522 220.437L765.953 225.731L775.056 233.041L784.343 240.859L788.589 244.721L798.417 243.942L804.238 242.044L814.15 244.656L821.212 249.188L821.759 256.539L825.835 253.403L833.343 259.681L841.479 263.62L847.996 262.497L846.887 286.588Z" stroke="#002448" stroke-opacity="0.2"/>
<path d="M319.734 110.419L308.171 120.105L299.313 121.715L292.586 127.595L289.906 133.822L284.406 139.621L280.046 140.128L271.175 145.291L264.304 152.112L263.489 156.319L257.638 161.008L252.288 162.574L249.725 167.725L247.399 172.407L251.221 169.473L293.434 185.753L297.803 168.258L302.739 163.284L313.248 166.111L324.486 135.774L359.65 149.985L366.658 131.812L367.763 129.553L368.06 128.766L319.913 110.355L319.734 110.419Z" stroke="#002448" stroke-opacity="0.2"/>
<path d="M851.905 513.099L849.583 508.13L847.624 499.973L844.201 494.599L842.876 489.713L835.187 481.674L827.843 478.706L826.131 475.392L818.807 475.57L814.19 468.026L807.648 475L795.979 467.871L796.534 462.995L807.452 448.423L811.369 441.399L816.086 439.263L824.739 440.465L832.662 436.135L833.935 451.545L832.974 462.942L836.802 470.633L847.504 486.761L851.078 495.366L854.484 503.973L856.407 509.049L860.439 514.392L856.159 515.826L851.905 513.099Z" stroke="#002448" stroke-opacity="0.2"/>
<path d="M814.19 468.027L818.807 475.571L826.131 475.393L827.843 478.707L835.187 481.675L842.876 489.713L844.201 494.6L847.624 499.974L849.583 508.131L851.905 513.1L846.254 516.497L840.633 520.232L840.318 523.571L839.216 526.961L845.17 529.458L848.065 529.677L849.711 532.542L845.877 535.506L847.557 543.031L849.526 549.793L852.16 555.248L882.49 581.644L891.592 585.056L848.685 605.737L834.454 600.82L821.934 604.706L814.941 602.252L810.691 604.505L803.322 601.673L800.366 596.378L788.786 597.089L783.884 600.341L777.015 596.735L775.101 594.579L772.46 593.906L769.093 592.49L758.939 578.13L751.434 575.251L749.106 570.297L751.422 564.261L746.515 560.304L744.634 546.135L740.67 541.741L740.434 536.699L736.992 529.336L730.661 526.016L736.7 521.262L742.53 523.195L745.411 520.505L749.014 510.69L756.573 500.523L762.854 499.428L765.653 495.378L773.484 488.793L782.075 485.853L790.619 476.698L795.978 467.871L807.648 475.001L814.19 468.027Z" stroke="#002448" stroke-opacity="0.2"/>
<path d="M446.391 561.885L439.465 546.795L435.733 535.208L433.43 521.622L435.141 518.197L438.813 515.678L444.426 508.881L449.648 501.771L453.521 502.546L469.176 508.676L474.033 495.742L479.427 497.004L485.432 500.954L492.344 502.021L493.466 503.123L490.886 507.5L491.777 514.197L500.137 516.402L502.01 519.562L492.578 530.18L495.252 538.475L493.219 547.294L489.122 553.9L483.865 557.696L474.518 553.589L470.73 546.23L468.049 550.652L460.266 549.175L455.534 550.453L456.879 559.108L446.391 561.885Z" stroke="#002448" stroke-opacity="0.2"/>
<path d="M378.953 414.057L359.624 413.87L352.211 415.258L341.292 414.648L332.85 407.905L334.967 403.849L333.849 392.775L341.337 381.667L349.37 374.328L352.429 357.796L354.1 349.036L356.727 342.948L375.664 349.622L380.125 352.247L384.283 351.821L388.939 354.605L386.837 357.7L389.186 365.049L386.136 372.94L383.884 381.882L385.076 386.872L378.948 395.7L377.744 401.403L377.997 409.348L378.953 414.057Z" stroke="#002448" stroke-opacity="0.2"/>
<path d="M216.85 262.271L220.72 256.213L232.378 260.199L236.109 257.598L239.547 258.644L242.311 263.897L245.56 265.221L249.997 264.055L250.485 269.166L244.638 270.741L240.155 268.718L236.829 263.849L231.605 265.77L229.668 265.17L226.334 266.272L216.85 262.271Z" stroke="#002448" stroke-opacity="0.2"/>
<path d="M283.759 355.779L280.816 354.327L276.949 357.839L273.918 356.615L272.701 353.508L275.083 349.44L273.115 341.076L269.831 341.215L267.433 340.573L264.226 340.053L265.874 336.126L265.227 332.625L266.788 329.601L266.201 324.137L264.693 319.097L256.072 315.776L252.77 316.861L249.705 315.968L246.962 317.607L244.56 320.141L236.965 322.705L234.698 314.464L232.138 308.601L229.916 306.133L228.054 302.934L228.673 297.65L228.018 294.641L225.569 291.649L232.409 288.165L235.603 289.62L239.123 288.865L241.508 289.758L243.765 288.96L244.237 284.98L245.862 284.288L247.487 280.639L252.648 282.752L259.376 288.405L261.848 289.071L263.125 288.158L268.674 291.284L270.469 291.262L269.548 295.516L271.264 296.162L274.641 295.78L276.29 296.832L278.216 300.762L282.496 303.41L286.363 302.175L290.412 302.043L293.594 301.503L295.642 302.62L297.114 305.947L297.239 309.464L299.901 315.742L296.61 317.706L294.829 321.095L297.537 320.903L298.395 322.693L296.58 325.722L298.667 330.128L296.193 330.146L293.911 333.507L294.672 338.954L294.007 348.659L289.498 348.425L287.889 349.534L287.921 351.947L285.477 356.42L283.759 355.779Z" stroke="#002448" stroke-opacity="0.2"/>
<path d="M449.647 501.773L448.247 499.383L456.572 488.763L474.032 495.744L469.175 508.679L453.52 502.549L449.647 501.773Z" stroke="#002448" stroke-opacity="0.2"/>
<path d="M225.569 291.649L221.562 284.873L217.297 282.402L216.006 278.372L216.706 276.73L214.31 273.14L214.526 270.531L220.925 270.934L224.363 272.659L227.726 272.533L247.486 280.639L245.861 284.288L244.236 284.98L243.764 288.96L241.507 289.758L239.122 288.865L235.602 289.62L232.409 288.165L225.569 291.649Z" stroke="#002448" stroke-opacity="0.2"/>
<path d="M781.742 652.152L784.739 663.448L775.54 664.831L771.158 668.283L766.817 667.517L762.386 674.49L757.261 677.493L752.412 683.828L746.706 685.712L735.347 669.032L737 662.525L706.268 625.675L704.897 623.798L709.146 612.4L713.9 609.246L721.927 604.187L728.853 597.881L728.829 583.749L729.634 577.879L727.381 568.462L736.481 564.587L746.515 560.303L751.422 564.26L749.106 570.296L751.434 575.25L758.939 578.129L769.093 592.489L772.46 593.905L775.101 594.578L777.015 596.734L783.884 600.34L788.786 597.088L800.366 596.377L803.322 601.672L810.691 604.504L796.594 613.064L781.742 652.152Z" stroke="#002448" stroke-opacity="0.2"/>
<path d="M277.869 394.582L275.01 393.591L265.858 384.201L259.198 372.249L252.268 362.833L247.674 353.087L251.581 350.623L253.355 347.702L260.474 343.699L267.433 340.574L269.83 341.216L273.114 341.077L275.082 349.44L272.7 353.509L273.918 356.616L276.948 357.84L280.815 354.328L283.758 355.779L282.057 358.728L281.13 364.366L276.95 368.256L278.956 372.424L282.108 374.459L284.943 380.724L283.647 385.09L282.098 386.045L277.869 394.582Z" stroke="#002448" stroke-opacity="0.2"/>
<path d="M530.682 917.064L533.003 922.205L527.39 926.932L524.009 930.269L517.252 929.901L513.746 933.115L509.407 932.875L504.985 920.211L513.734 914.605L521.419 912.046L527.421 911.484L530.682 917.064Z" stroke="#002448" stroke-opacity="0.2"/>
<path d="M599.91 282.951L590.62 284.343L587.005 275.625L571.874 264.047L569.956 254.886L563.54 246.153L557.672 246.378L556.358 238.322L557.903 233.089L554.854 221.963L561.055 218.605L563.013 210.683L566.924 204.597L568.268 198.758L573.992 189.523L575.599 183.586L576.298 171.32L582.671 170.456L585.627 165.535L586.475 159.897L595.743 157.884L600.618 155.107L607.274 153.481L611.648 143.91L622.627 153.175L627.579 153.818L635.773 159.402L647.905 170.584L648.649 183.748L657.396 189.902L670.585 200.974L679.704 211.578L686.201 210.368L693.571 206.606L694.754 196.013L700.502 191.153L710.56 188.176L718.653 189.282L732.243 197.493L733.739 204.59L737.736 206.181L740.342 209.661L750.49 215.258L751.522 220.438L745.3 224.966L744.918 230.954L739.194 237.567L738.612 248.757L722.11 291.767L705.537 334.962L696.736 357.902L684.319 353.178L682.35 357.908L647.74 319.477L613.248 280.751L599.91 282.951Z" stroke="#002448" stroke-opacity="0.2"/>
<path d="M471.411 94.1128L472.896 79.1079L475.284 70.9633L474.433 61.0243L469.802 59.0841L459.744 51.8932L449.134 48.8683L444.782 40.7725L436.867 37.6606L430.372 44.4544L417.977 55.203L407.928 57.4816L394.85 59.2079L384.595 65.1855L380.583 71.3167L372.325 80.5895L369.072 97.1317L356.116 103.971L349.453 105.166L337.753 110.249L327.207 107.748L319.995 110.325L319.913 110.356L368.06 128.767L368.071 128.74L373.516 114.271L394.418 111.879L405.911 114.13L416.017 114.19L422.528 109.552L437.034 109.451L441.067 100.331L447.729 101.625L454.406 98.82L469.34 102.101L473.214 97.9158L471.411 94.1128Z" stroke="#002448" stroke-opacity="0.2"/>
<path d="M825.826 813.036L826.894 818.809L826.775 827.104L823.411 841.07L824.209 847.33L821.093 852.252L817.926 854.801L816.767 846.872L813.472 849.385L812.364 858.44L809.582 862.814L805.615 864.262L801.279 873.526L791.974 885.081L780.628 898.743L765.589 918.018L755.237 932.645L745.123 944.432L735.271 943.869L723.932 945.278L718.882 939.862L711.946 932.334L711.358 924.963L714.642 914.276L714.414 903.517L716.627 894.793L721.755 887.214L727.482 887.125L728.98 883.313L737.464 876.616L741.221 869.734L740.78 863.395L741.475 855.475L744.596 844.765L750.773 839.937L754.942 833.398L760.474 835.048L767.367 835.072L772.134 834.588L776.927 836.255L785.511 832.275L797.008 828.848L802.382 824.528L802.723 819.244L806.796 822.329L815.678 816.95L818.414 810.418L823.87 806.884L825.826 813.036Z" stroke="#002448" stroke-opacity="0.2"/>
<path d="M272.578 264.575L276.984 263.949L281.305 258.104L284.823 259.162L291.169 265.145L298.094 265.282L301.982 267.617L304.549 265.769L347.894 282.205L353.287 275.324L351.946 273.23L365.465 222.433L379.531 170.208L396.121 176.327L422.685 215.885L449.407 255.032L449.917 261.376L455.377 267.218L459.664 270.986L457.012 278.265L469.403 281.744L459.47 307.723L450.708 312.928L447.154 319.442L436.893 317.531L421.812 312.839L416.31 315.252L409.228 313.038L402.292 310.434L400.419 307.275L393.874 306.573L382.03 307.307L378.641 309.974L368.374 311.715L365.82 313.988L360.436 314.495L355.793 311.01L351.803 312.564L347.328 319.497L335.28 325.295L334.108 329.095L329.388 332.598L327.674 339.205L322.605 339.109L319.562 339.517L319.676 334.216L316.091 334.253L314.312 333.323L311.106 335.743L302.811 332.459L300.455 329.675L298.666 330.127L296.579 325.721L298.394 322.692L297.536 320.902L294.828 321.094L296.609 317.704L299.9 315.741L297.238 309.463L297.113 305.946L295.641 302.618L293.593 301.502L290.411 302.042L286.362 302.174L282.494 303.409L278.214 300.76L276.289 296.831L274.64 295.779L271.263 296.16L269.547 295.515L270.468 291.261L272.277 288.031L272.986 283.422L270.137 278.781L270.43 271.646L272.578 264.575Z" stroke="#002448" stroke-opacity="0.2"/>
<path d="M668.007 740.075L661.793 747.241L659.328 762.696L663.132 763.974L665.659 769.027L667.109 778.754L662.546 793.394L656.976 793.949L650.705 800.445L646.32 790.836L648.532 782.677L652.784 778.381L653.866 773.699L650.682 769.264L647.322 769.141L643.149 761.453L638.576 756.415L645.775 747.442L650.634 744.924L652.049 735.047L657.613 727.022L660.585 724.773L661.388 714.48L658.152 707.682L667.952 713.763L668.969 717.6L670.68 724.078L668.007 740.075Z" stroke="#002448" stroke-opacity="0.2"/>
<path d="M668.197 740.613L676.652 742.847L688.431 750.901L691.778 750.597L699.395 753.197L704.496 751.394L710.899 754.054L724.321 754.34L735.328 751.312L735.2 756.868L730.577 767.584L728.216 777.716L722.029 795.096L721.848 801.25L715.585 807.947L708.432 814.074L698.905 818.371L687.411 818.847L673.159 819.633L656.327 827.063L651.382 827.54L640.759 832.715L635.305 833.645L631.268 841.44L633.051 852.093L632.583 859.673L631.391 863.183L633.516 863.336L628.838 874.609L625.006 879.362L626.78 882.342L623.303 886.608L617.187 889.068L606.76 889.639L591.327 891.075L584.909 893.653L583.907 899.037L586.353 900.898L583.009 906.853L574.865 903.613L575.975 897.958L576.43 891.988L577.15 887.362L584.134 874.912L584.527 865.49L585.65 847.116L602.04 838.377L608.056 831.196L610.087 830.78L613.884 824.531L613.442 820.495L617.159 812.198L622.263 805.176L627.694 790.952L623.468 785.208L618.647 782.427L617.379 778.772L613.286 774.5L604.202 771.271L605.1 766.849L607.11 758.551L643.338 761.991L647.512 769.679L650.872 769.803L654.056 774.237L652.974 778.92L648.722 783.216L646.51 791.374L650.895 800.983L657.165 794.487L662.736 793.933L667.298 779.292L665.849 769.565L663.321 764.513L659.518 763.234L661.983 747.78L668.197 740.613Z" stroke="#002448" stroke-opacity="0.2"/>
<path d="M396.663 860.852L392.175 848.578L391.343 838.13L393.444 825.532L394.097 815.883L397.452 796.326L402.569 782.265L403.614 775.41L401.25 769.035L399.328 757.388L398.922 741.503L399.302 733.462L394.763 719.054L397.421 710.17L403.43 710.026L410.623 710.592L417.488 713.61L421.968 721.155L423.903 720.988L467.811 737.279L473.218 745.536L498.721 757.148L520.308 760.17L530.121 761.005L536.863 764.333L540.149 768.502L539.873 769.464L532.816 769.67L529.537 768.438L520.955 770.216L518.614 763.987L500.473 761.554L492.297 758.846L476.38 799.388L465.591 795.712L452.516 829.802L435.495 874.131L423.465 876.692L417.328 875.365L411.434 870.447L406.937 867.698L407.122 861.776L404.143 856.806L396.663 860.852Z" stroke="#002448" stroke-opacity="0.2"/>
<path d="M415.788 353.344L418.911 345.928L407.434 338.664L409.14 333.206L405.829 323.674L406.314 318.083L409.229 313.04L416.31 315.254L421.813 312.842L436.894 317.533L447.154 319.445L450.708 312.93L459.471 307.726L469.403 281.746L486.558 282.516L526.424 271.994L571.876 264.047L587.007 275.625L590.622 284.343L599.913 282.951L595.66 301.961L598.548 306.498L597.321 310.215L600.301 315.861L596.068 319.877L583.086 341.288L576.914 355.673L559.118 360.92L548.851 373.751L551.773 379.569L549.023 386.656L555.843 389.564L552.777 394.333L549.488 393.795L547.801 397.159L545.703 396.632L543.025 381.791L540.66 380.376L529.864 383.299L522.745 376.883L517.186 374.013L513.48 374.365L507.284 371.604L499.122 373.852L493.519 372.007L482.647 361.313L476.497 362.055L471.064 359.755L468.616 354.045L459.386 345.781L447.289 342.64L443.565 343.947L439.616 349.697L434.826 352.943L430.323 362.438L424.517 352.977L420.639 351.525L415.788 353.344Z" stroke="#002448" stroke-opacity="0.2"/>
<path d="M454.426 457.297L441.747 456.872L437.866 454.735L432.795 455.552L424.26 452.008L421.066 443.068L420.5 433.914L415.587 423.886L407.43 420.91L397.915 417.251L405.211 400.088L407.581 393.094L412.237 387.033L416.837 384.98L424.656 380.257L424.641 376.893L428.449 373.318L428.511 365.909L430.323 362.439L434.827 352.944L439.617 349.697L443.566 343.948L447.289 342.64L459.386 345.781L468.617 354.045L471.065 359.755L476.497 362.056L482.648 361.313L493.519 372.007L499.122 373.852L507.285 371.604L513.481 374.365L517.186 374.013L522.745 376.883L529.865 383.3L540.66 380.376L543.026 381.791L545.704 396.632L547.801 397.159L550.394 403.168L548.462 404.695L546.493 408.114L534.167 413.081L528.644 418.941L524.954 424.014L521.737 425.555L516.645 432.318L509.166 434.568L505.394 439.405L501.3 442.83L498.569 446.933L489.761 447.724L485.408 440.965L481.25 439.573L472.402 443.425L469.245 442.324L460.125 450.75L454.426 457.297Z" stroke="#002448" stroke-opacity="0.2"/>
<path d="M666.548 611.353L668.512 619.048L665.469 625.115L661.836 625.278L656.372 622.379L650.725 627.216L644.501 623.862L647.748 618.377L649.547 618.118L652.394 611.893L656.642 610.094L658.835 612.189L666.548 611.353Z" stroke="#002448" stroke-opacity="0.2"/>
<path d="M748.533 511.991L747.123 511.203L749.384 505.861L749.522 501.624L745.617 495.192L747.342 486.82L751.74 479.234L747.032 476.563L745.351 478.725L738.655 476.805L740.018 480.995L738.425 487.918L730.201 491.638L721.818 497.43L715.833 496.418L709.197 486.58L704.261 487.264L701.931 490.011L695.588 489.934L694.359 492.031L683.618 487.91L682.996 485.103L675.361 481.745L670.761 482.116L668.152 480.047L665.032 471.568L664.329 467.869L655.977 466.377L651.078 470.288L644.581 478.917L640.091 479.542L636.33 479.454L635.646 478.613L633.101 474.053L633.707 470.415L637.192 466.567L638.863 462.119L635.257 452.919L635.827 447.776L636.973 445.179L634.243 440.434L636.566 434.025L635.927 428.925L631.898 428.107L634.533 424.484L639.089 420.972L639.618 415.936L644.464 413.911L643.205 410.463L648.682 404.713L656.749 398.421L665.752 402.771L682.352 357.905L684.322 353.175L696.738 357.899L705.539 334.959L748.903 351.597L790.755 367.655L833.538 384.07L832.673 396.713L829.511 397.892L826.561 410.261L825.318 425.337L828.362 429.7L832.663 436.134L824.74 440.464L816.087 439.263L811.37 441.399L807.455 448.428L796.535 462.995L795.979 467.87L790.62 476.697L782.076 485.852L773.485 488.791L765.654 495.377L762.855 499.427L756.574 500.521L749.015 510.689L748.533 511.991Z" stroke="#002448" stroke-opacity="0.2"/>
<path d="M247.676 353.086L245.078 351.172L238.981 343.841L235.586 335.896L235.214 331.216L236.966 322.704L244.561 320.141L246.963 317.607L249.706 315.968L252.77 316.861L256.073 315.776L264.694 319.097L266.202 324.137L266.789 329.601L265.227 332.625L265.874 336.126L264.226 340.053L267.434 340.573L260.476 343.698L253.357 347.701L251.583 350.622L247.676 353.086Z" stroke="#002448" stroke-opacity="0.2"/>
<path d="M219.238 257.069L218.091 246.761L214.222 240.752L219.773 240.468L227.994 234.672L232.751 229.935L237.819 227.77L242.807 230.792L249.004 230.376L255.077 232.56L258.97 237.827L264.996 243.529L268.382 254.224L272.575 264.576L270.427 271.647L270.135 278.782L272.983 283.423L272.274 288.032L270.466 291.262L268.67 291.283L263.122 288.157L261.844 289.07L259.372 288.404L252.644 282.751L247.483 280.639L227.723 272.532L224.36 272.658L220.922 270.933L214.523 270.53L215.986 261.426L225.714 265.428L228.898 264.88L230.865 265.529L235.838 264.519L239.573 268.622L244.183 270.616L249.803 269.935L248.845 265.909L244.577 266.403L241.25 265.069L238.033 260.719L234.545 259.583L231.108 261.261L219.238 257.069Z" stroke="#002448" stroke-opacity="0.2"/>
<path d="M943.299 558.153L944.219 555.032L940.115 553.489L933.571 555.281L927.432 554.188L921.839 553.904L918.308 552.801L912.018 550.824L907.397 551.342L901.773 550.01L890.978 549.756L878.741 546.544L867.503 545.432L862.162 543.342L859.047 536.909L858.663 531.584L855.928 528.222L849.712 532.541L845.878 535.506L847.558 543.031L849.527 549.793L852.161 555.248L882.491 581.643L891.593 585.056L848.686 605.737L834.455 600.819L821.935 604.705L814.942 602.252L810.692 604.505L796.595 613.065L781.743 652.153L784.74 663.449L788.149 661.844L792.802 657.147L809.589 648.697L822.768 644.406L842.989 639.957L857.111 635.414L875.418 625.636L889.247 617.133L904.563 604.888L916.529 593.648L926.363 583.533L933.912 572.946L937.705 569.882L939.863 564.13L943.299 558.153Z" stroke="#002448" stroke-opacity="0.2"/>
<path d="M748.533 511.995L745.412 520.507L742.531 523.197L736.701 521.264L730.663 526.018L736.993 529.338L740.435 536.701L740.672 541.743L744.635 546.137L746.516 560.306L736.482 564.59L727.383 568.465L718.855 570.86L711.275 567.921L701.627 567.105L695.689 562.073L690.127 563.293L683.367 552.513L682.565 546.944L675.688 546.91L670.969 544.291L667.391 544.988L663.048 541.826L659.917 530.443L659.492 526.365L653.064 519.009L652.821 511.497L650.12 505.102L645.022 496.694L646.271 493.14L642.043 486.504L636.33 479.457L640.092 479.545L644.582 478.92L651.079 470.291L655.978 466.381L664.329 467.872L665.033 471.572L668.153 480.051L670.761 482.12L675.361 481.748L682.997 485.106L683.619 487.914L694.36 492.035L695.588 489.937L701.931 490.014L704.261 487.267L709.197 486.584L715.834 496.421L721.818 497.433L730.202 491.641L738.426 487.921L740.018 480.998L738.656 476.808L745.351 478.728L747.032 476.566L751.74 479.238L747.343 486.823L745.618 495.195L749.523 501.628L749.384 505.864L747.123 511.206L748.533 511.995Z" stroke="#002448" stroke-opacity="0.2"/>
<path d="M574.866 903.613L570.619 908.114L563.806 906.996L559.874 897.998L561.366 893.813L566.031 890.452L568.382 887.373L571.824 887.719L576.431 891.989L575.977 897.958L574.866 903.613Z" stroke="#002448" stroke-opacity="0.2"/>
<path d="M552.778 394.332L555.843 389.564L549.024 386.656L551.774 379.568L548.851 373.751L559.119 360.92L576.914 355.673L583.087 341.288L596.068 319.876L600.301 315.86L597.321 310.215L598.545 306.496L595.66 301.96L599.913 282.951L613.251 280.751L647.743 319.477L682.353 357.908L665.752 402.773L656.75 398.423L648.682 404.715L643.206 410.465L644.464 413.914L639.618 415.938L639.09 420.974L634.533 424.487L631.899 428.11L635.928 428.928L636.566 434.027L634.244 440.436L636.973 445.182L635.827 447.778L628.283 447.024L621.114 449.34L608.761 458.22L596.682 459.358L586.524 454.684L583.097 454.517L582.702 458.743L575.622 460.369L569.423 462.837L554.254 461.766L552.502 458.282L550.793 457.388L547.742 459.404L538.508 456.797L541.324 454.518L540.782 445.749L540.988 440.682L536.996 437.041L533.056 428.26L537.372 424.028L541.869 427.008L545.211 427.398L551.194 429.817L549.124 417.659L552.3 410.554L554.369 403.011L552.778 394.332Z" stroke="#002448" stroke-opacity="0.2"/>
<path d="M388.515 415.09L378.952 414.055L377.996 409.346L377.742 401.401L378.947 395.698L385.074 386.87L383.882 381.88L386.135 372.938L389.184 365.047L386.836 357.698L388.937 354.603L398.293 358.457L394.716 363.674L396.779 368.155L399.063 373.405L397.425 378.894L398.74 381.967L388.712 406.63L388.515 415.09Z" stroke="#002448" stroke-opacity="0.2"/>
<path d="M576.3 171.319L580.348 147.023L575.662 139.346L576.754 136.226L570.861 125.208L573.641 115.122L583.074 110.414L589.763 100.57L592.905 87.2639L597.735 81.2306L611.566 80.3011L618.496 84.8181L615.571 91.4987L626.616 90.0652L626.393 92.9457L618.483 97.4355L616.05 103.559L618.522 108.285L612.735 119.124L603.118 122.954L602.458 130.804L607.953 133.164L608.315 140.329L611.651 143.908L607.277 153.48L600.62 155.105L595.746 157.882L586.477 159.896L585.63 165.533L582.673 170.454L576.3 171.319Z" stroke="#002448" stroke-opacity="0.2"/>
<path d="M704.896 623.8L706.268 625.676L737 662.527L735.346 669.033L746.706 685.714L736.639 697.065L734.936 703.415L740.333 709.996L739.578 712.928L734.105 718.314L733.462 721.84L730.771 726.739L731.929 734.982L732.283 747.413L735.328 751.314L724.32 754.341L710.898 754.055L704.495 751.396L699.395 753.199L691.777 750.598L688.43 750.903L676.652 742.848L668.196 740.615L670.87 724.618L669.158 718.14L668.141 714.303L658.342 708.222L653.473 702.611L647.317 698.158L643.717 694.693L640.266 690.205L639.669 674.348L635.732 665.904L635.974 658.821L639.199 653.636L641.056 642.998L645.711 644.197L651.121 641.806L657.466 637.819L660.99 636.594L662.229 633.066L660.838 629.744L661.836 625.28L665.469 625.116L668.511 619.05L666.548 611.355L670.826 611.522L682.599 616.198L704.896 623.8Z" stroke="#002448" stroke-opacity="0.2"/>
<path d="M682.598 616.197L670.825 611.521L666.547 611.354L658.833 612.19L656.64 610.095L659.832 602.051L663.9 598.916L667.812 590.549L671.989 586.436L678.256 582.433L683.493 581.172L688.423 578.698L684.656 575.589L690.124 563.291L695.686 562.07L701.624 567.103L711.272 567.918L718.852 570.857L727.38 568.462L729.632 577.88L728.827 583.75L728.851 597.882L721.925 604.188L713.898 609.246L709.144 612.401L704.895 623.799L682.598 616.197Z" stroke="#002448" stroke-opacity="0.2"/>
<path d="M557.157 932.004L554.367 932.972L547.389 937.493L541.934 942.717L532.382 949.323L515.199 957.656L504.657 962.367L494.278 965.067L481.088 965.73L475.334 964.29L472.564 967.345L466.742 962.918L460.458 963.331L449.723 956.353L442.582 955.422L438.375 953.032L425.286 953.88L415.287 952.404L406.731 954.78L401.706 953.213L398.924 946.81L395.372 945.173L392.949 937.593L391.748 939.193L391.649 935.161L394.609 927.629L394.395 917.709L398.767 916.726L402.216 906.896L399.659 892.441L398.278 879.832L398.276 879.791L396.662 860.843L404.142 856.797L407.121 861.767L406.936 867.689L411.433 870.439L417.325 875.361L423.463 876.687L435.488 874.125L452.51 829.796L454.741 832.687L456.806 846.423L453.019 853.325L453.806 858.464L462.002 860.201L469.448 856.919L475.937 855.282L480.768 850.595L487.087 849.859L491.081 853.047L494.955 858.351L503.509 862.308L511.469 862.185L513.982 858.903L518.049 853.971L524.283 855.278L529.224 852.098L535.816 845.659L548.842 840.661L567.383 837.968L571.724 839.779L576.192 843.744L580.36 843.75L585.648 847.107L584.525 865.482L584.13 874.899L577.146 887.348L576.426 891.975L571.819 887.705L568.373 887.358L566.022 890.437L561.353 893.796L559.862 897.982L563.793 906.979L570.605 908.101L574.853 903.597L582.994 906.835L576.93 914.575L571.786 924.174L566.878 928.615L557.157 932.004ZM531.153 917.776L527.891 912.2L521.889 912.761L514.204 915.32L505.454 920.927L509.878 933.587L514.212 933.829L517.722 930.617L524.479 930.985L527.864 927.649L533.473 922.921L531.153 917.776Z" stroke="#002448" stroke-opacity="0.2"/>
<path d="M658.342 708.22L661.578 715.018L660.775 725.311L657.803 727.56L652.239 735.585L650.823 745.462L645.965 747.98L638.766 756.953L643.339 761.991L607.11 758.551L605.1 766.849L596.344 765.237L588.497 767.319L585.7 770.686L581.505 770.083L568.587 775.697L559.822 780.688L556.079 779.552L553.073 776.907L541.489 771.05L539.873 769.464L540.149 768.502L536.863 764.332L530.121 761.004L520.308 760.17L515.959 750.455L512.189 738.518L526.203 703.477L548.613 712.234L549.149 708.088L552.333 704.597L552.408 698.729L555.671 693.895L555.829 690.068L559.448 691.77L558.76 695.403L563.917 697.077L570.378 700.712L572.077 707.062L580.132 711.904L588.051 710.979L588.269 717.648L595.948 722.351L598.128 728.554L600.234 736.304L608.454 739.564L612.1 727.369L608.373 728.226L602.469 721.07L600.305 718.002L605.848 707.546L612.71 695.39L612.133 689.67L617.862 683.928L621.253 683.742L636.442 687.473L640.267 690.203L643.717 694.691L647.318 698.156L653.473 702.61L658.342 708.22Z" stroke="#002448" stroke-opacity="0.2"/>
<path d="M586.225 847.63L580.937 844.273L576.767 844.271L572.301 840.302L567.959 838.495L563.088 830.633L555.427 825.663L555.05 817.155L556.575 813.102L552.427 810.098L545.024 792.892L544.149 785.027L542.755 782.175L542.064 771.565L553.648 777.422L556.654 780.067L560.397 781.203L569.162 776.211L582.08 770.598L586.275 771.201L589.072 767.834L596.919 765.752L605.675 767.364L604.777 771.786L613.861 775.015L617.954 779.287L619.222 782.942L624.043 785.723L628.269 791.467L622.838 805.69L617.734 812.713L614.017 821.009L614.459 825.045L610.662 831.294L608.631 831.711L602.615 838.891L586.225 847.63Z" stroke="#002448" stroke-opacity="0.2"/>
<path d="M272.961 264.366L268.768 254.014L265.382 243.319L259.356 237.617L255.463 232.35L249.39 230.166L243.193 230.582L238.204 227.56L233.137 229.725L234.512 223.345L239.645 218.973L245.048 208.896L248.145 197.258L249.011 191.112L252.266 185.838L251.566 179.333L247.782 172.197L251.604 169.263L293.816 185.543L298.185 168.048L303.121 163.074L313.63 165.902L324.869 135.564L360.032 149.775L367.041 131.602L396.504 176.117L379.914 169.999L365.848 222.223L352.329 273.02L353.671 275.115L348.277 281.996L304.932 265.559L302.365 267.408L298.477 265.073L291.552 264.936L285.206 258.953L281.689 257.895L277.367 263.739L272.961 264.366Z" stroke="#002448" stroke-opacity="0.2"/>
</svg>
