<svg width="1149" height="1024" viewBox="0 0 1149 1024" fill="none" xmlns="http://www.w3.org/2000/svg">
<path d="M677.372 628.106L676.01 628.669L673.897 625.361L671.407 623.949L671.947 619.757L673.732 619.694L676.69 624.51L677.372 628.106ZM672.531 610.741L666.417 612.893L665.589 610.621L668.213 609.622L672.062 609.123L672.531 610.741ZM677.257 609.819L677.071 614.492L675.862 613.877L675.36 610.557L672.318 608.516L672.174 607.789L677.257 609.819Z" stroke="#002448" stroke-opacity="0.2"/>
<path d="M552.235 728.259L552.031 727.391L552.681 726.993L553.857 727.506L555.277 723.532L556.361 723.257L556.54 724.129L557.639 723.958L557.838 725.597L557.367 728.339L558.039 729.169L557.818 731.4L558.284 731.901L558.156 735.012L557.304 736.782L556.293 737.16L555.518 739.408L553.794 739.721L553.04 732.973L552.235 728.259Z" stroke="#002448" stroke-opacity="0.2"/>
<path d="M446.553 44.8664L443.927 32.9525L451.62 32.7775L455.338 34.11L464.052 42.8727L464.312 53.2578L456.783 60.4351L450.929 54.9379L446.553 44.8664ZM478.429 65.643L478.57 62.49L473.615 58.2471L461.909 59.9556L464.801 67.1489L475.932 66.8731L478.429 65.643ZM570.58 147.549L578.812 156.773L580.696 157.637L586.552 153.902L592.851 153.186L599.094 152.637L597.612 147.357L585.671 138.22L572.052 138.421L569.517 140.277L570.58 147.549ZM412.727 44.4709L408.685 53.992L421.738 52.7161L432.878 60.0181L442.864 61.3575L438.527 50.2189L431.636 37.3464L414.046 29.2896L401.953 27.1849L404.462 38.6684L412.727 44.4709ZM462.332 14.0178L472.854 11.8726L469.758 20.8324L471.615 31.6153L479.938 42.1929L492.562 43.6182L502.419 39.7586L509.154 16.021L515.454 5.54808L506.663 -3.2952L498.187 -24.1136L487.538 -28.8807L476.464 -34.6077L465.572 -52.7078L452.478 -48.3746L456.527 -40.3975L451.062 -36.7945L449.014 -25.2532L447.748 -9.3699L454.075 4.7275L462.332 14.0178ZM350.573 146.256L359.368 148.766L384.994 141.41L374.745 153.276L376.741 160.117L385.441 158.05L398.336 146.106L417.287 139.169L418.886 127.927L415.824 116.791L409.586 116.865L405.149 121.716L401.366 113.724L397.325 102.492L390.839 100.694L387.166 110.617L399.488 131.582L389.082 131.676L376.325 119.734L358.595 114.547L354.377 122.28L350.573 146.256ZM381.614 52.3485L373.037 47.8179L369.695 47.0385L365.343 56.8174L365.985 60.9035L375.585 59.1979L381.614 52.3485ZM383.129 78.0143L383.586 69.5672L374.657 66.7205L366.729 71.0605L363.615 80.5673L373.731 87.5695L383.129 78.0143ZM455.303 134.739L464.424 130.769L464.023 113.52L461.66 101.469L455.2 90.966L455.341 94.2905L446.959 94.3382L439.758 104.218L433.405 104.59L437.05 122.663L446.202 119.187L448.458 132.349L455.303 134.739ZM465.285 228.656L453.416 222.559L442.166 215.759L438.105 203.521L431.199 186.036L423.316 179.402L417.005 177.296L412.442 181.095L420.068 199.838L418.536 207.946L410.51 190.55L404.09 185.193L399.33 196.158L389.547 187.934L377.744 196.088L378.987 186.495L372.394 183.751L359.07 198.413L356.411 206.683L354.047 221.323L364.988 224.209L373.855 222.35L361.726 231.807L365.923 237.616L374.179 236.479L386.278 232.888L398.171 234.85L391.16 239.151L382.877 239.867L374.476 244.343L370.954 246.814L380.408 258.442L385.213 255.72L393.889 258.655L398.36 265.51L408.373 262.179L422.589 257.181L432.464 249.842L439.006 247.654L449.721 250.157L460.625 250.745L461.522 244.582L456.715 239.051L465.966 236.025L465.285 228.656ZM480.885 223.778L478.146 231.701L473.973 237.674L483.165 243.445L487.557 240.858L496.211 244.244L498.799 238.042L494.164 232.519L491.871 229.731L487.869 227.394L480.885 223.778ZM433.774 170.491L428.583 166.864L420.987 169.07L419.532 172.238L431.026 184.333L433.774 170.491ZM497.727 186.581L501.381 171.38L507.591 166.379L513.011 147.048L501.067 144.022L488.897 145.472L484.182 152.139L482.717 161.284L484.398 171.091L491.012 187.083L497.727 186.581ZM524.626 133.431L536.42 130.911L552.401 124.635L560.265 125.89L568.05 119.739L570.611 113.315L567.661 104.363L559.919 96.8853L550.236 96.954L538.828 101.05L530.54 107.671L521.765 107.286L513.79 107.689L509.127 102.86L501.538 98.7449L501.226 89.4964L494.776 82.3038L483.411 84.4145L475.531 77.4678L463.329 77.9961L463.027 88.7472L471.1 95.149L483.586 95.9442L491.259 105.252L494.02 116.512L498.219 128.326L514.83 132.496L524.626 133.431ZM334.476 129.451L343.36 117.239L348.543 115.07L351.441 105.672L348.646 85.6719L341.424 90.9948L332.497 92.2304L323.64 111.02L317.131 131.039L325.881 134.726L334.476 129.451ZM489.153 135.443L490.774 126.46L487.396 119.812L480.912 112.76L473.714 120.396L472.447 130.961L480.475 135.36L489.153 135.443ZM476.234 161.784L473.674 156.2L463.831 160.632L456.166 157.595L451.093 168.595L459.766 180.214L447.538 179.96L448.529 186.101L465.476 197.827L470.715 203.975L476.55 204.455L484.771 195.805L482.793 178.928L472.551 172.227L476.234 161.784ZM380.236 501.833L376.991 497.5L370.573 494.947L366.963 491.29L364.444 488.586L358.843 488.624L355.052 487.91L348.634 487.05L348.51 489.216L351.61 493.651L357.844 494.164L359.337 496.478L365.059 498.596L367.348 501.358L377.541 503.546L380.236 501.833ZM602.513 298.715L597.613 295.174L593.545 296.955L591.907 290.823L584.54 287.883L577.381 284.419L573.378 281.463L570.801 284.099L568.639 278.27L564.26 277.897L564.543 290.721L565.682 301.235L561.81 308.517L569.419 305.874L572.744 312.934L579.781 304.893L584.269 296.99L588.566 302.222L598.112 303.669L602.513 298.715ZM334.829 236.805L348.502 225.562L347.079 217.687L351.89 203.369L363.6 187.213L369.957 180.885L362.212 173.472L355.516 168.483L340.547 169.988L331.504 167.097L312.572 173.93L320.51 185.561L317.861 199.539L316.381 214.218L315.319 222.508L330.385 229.638L334.829 236.805ZM621.478 242.306L621.758 240.138L620.528 233.696L615.251 230.275L610.34 233.36L609.417 242.274L612.167 249.247L618.511 247.343L621.478 242.306ZM673.333 248.773L684.841 260.549L692.999 265.067L700.249 247.238L700.236 236.886L690.974 237.565L680.209 225.455L670.435 223.779L655.001 216.141L664.274 206.837L656.039 192.495L649.775 186.587L634.594 182.294L626.535 172.104L616.536 178.09L614.369 170.373L604.823 163.026L590.272 155.762L586.171 164.299L575.719 171.775L574.35 159.294L560.746 140.654L547.595 151.559L545.085 168.177L538.357 156.96L540.268 143.242L526.322 151.327L521.848 160.513L520.501 178.432L525.658 196.499L533.879 195.092L529.279 204.16L535.172 209.31L545.003 210.168L558.113 212.872L579.808 212.767L589.899 208.752L592.103 203.274L597.683 208.117L602.945 208.136L610.885 217.122L607.911 221.816L620.58 225.038L630.782 230.915L633.947 235.695L636.725 241.992L631.795 257.418L631.043 264.781L633.864 269.357L622.285 273.253L611.471 275.457L609.454 286.042L615.159 289.683L631.486 284.568L630.7 280.745L640.27 285.623L650.093 290.724L648.727 294.693L656.839 299.568L670.537 304.512L687.085 306.54L685.378 302.464L678.011 296.088L667.871 286.642L684.2 294.18L692.096 296.237L692.456 286.857L686.382 274.735L683.366 271.651L674.409 266.899L666.895 260.048L666.176 251.903L673.333 248.773ZM478.323 -55.111L485.815 -41.1571L498.19 -31.0515L518.008 -36.917L531.74 -35.268L524.948 -21.3351L519.733 -24.1205L503.679 -22.7133L509.185 -6.25735L519.563 4.5367L519.836 15.4044L510.862 24.2931L508.192 36.2594L518.536 39.9439L529.554 55.8969L512.01 47.0971L508.832 49.6466L515.123 68.1922L505.481 75.8813L508.356 87.643L519.51 86.9412L528.637 88.3099L544.931 81.4923L561.23 85.4081L574.027 68.0012L572.792 61.8874L563.097 64.6515L561.245 59.0228L567.91 49.7811L568.759 38.8157L576.279 29.4194L580.019 18.7479L572.631 5.17388L575.651 -0.932318L566.994 -3.3284L583.889 -9.79913L586.415 -16.8613L597.377 -24.3085L602.308 -53.4798L609.908 -65.2287L619.455 -90.3037L606.912 -87.8311L610.555 -97.5216L623.068 -108.164L633.894 -128.809L632.042 -140.503L619.249 -150.874L605.766 -154.587L589.655 -155.493L576.595 -156.258L563.529 -157.051L548.309 -145.953L544.31 -150.534L527.009 -145.359L517.592 -138.26L511.306 -129.463L511.225 -104.797L502.788 -115.831L495.203 -116.857L489.637 -99.1216L479.531 -90.2676L473.029 -87.6986L465.847 -78.3467L469.554 -65.0666L478.323 -55.111ZM728.994 455.836L726.241 452.169L724.522 455.128L726.467 457.634L734.424 459.791L736.469 458.872L738.702 454.992L733.385 456.186L728.994 455.836ZM582.929 318.791L584.793 321.875L588.922 321.419L594.459 313.413L594.147 310.976L586.189 312.291L582.929 318.791ZM735.363 430.699L728.794 428.11L720.797 427.274L718.932 428.377L725.053 431.551L733.035 432.927L735.82 432.264L735.363 430.699ZM788.414 431.175L786.858 426.765L783.08 428.966L783.725 422.315L777.478 420.671L775.198 423.281L769.638 421.811L771.112 418.377L766.889 417.182L763.657 420.85L766.075 412.384L768.131 406.135L768.801 403.46L766.047 403.544L761.602 407.594L758.95 413.382L755.521 428.521L751.61 434.597L754.544 436.468L751.485 440.113L752.824 442.455L764.084 440.684L770.202 439.058L776.114 440.099L772.744 444.763L776.244 444.429L781.633 435.948L783.437 436.731L783.421 443.801L787.501 444.68L790.061 443.9L791.165 436.115L788.414 431.175ZM746.486 448.751L742.369 459.067L733.035 461.973L724.792 459.246L721.779 453.347L718.308 444.608L722.725 437.872L716.843 434.55L708.355 436.978L697.533 446.344L690.261 459.102L685.601 461.355L690.854 452.421L697.139 439.585L703.808 434.393L707.504 427.193L713.377 425.496L722.059 423.992L734.755 423.626L744.262 420.422L750.201 411.741L759.14 406.795L762.706 402.834L766.273 398.608L763.944 388.139L760.973 384.957L756.242 384.494L752.466 376.682L748.188 374.205L738.51 373.301L732.278 368.504L723.556 364.149L724.704 357.231L716.014 345.662L705.958 333.011L699.627 323.695L696.764 329.693L693.461 342.996L686.187 350.551L680.84 344.895L675.252 344.127L670.763 330.266L669.174 320.484L658.71 321.456L656.124 317.167L647.746 311.469L641.617 308.297L637.413 312.38L631.257 312.264L620.747 310.709L617.238 314.275L622.54 332.58L626.938 342.524L622.232 355.446L630.728 362.352L636.282 370.668L638.011 377.538L636.096 385.239L630.821 393.457L622.409 399.766L627.414 404.17L633.15 418.67L631.742 428.739L627.828 432.507L617.658 425.355L611.574 415.607L608.029 406.258L607.432 397.563L600.973 397.735L591.328 398.885L584.441 395.759L576.697 394.277L571.69 390.188L565.203 387.299L553.648 384.709L545.938 388.243L541.787 380.709L537.351 371.036L528.53 370.737L526.494 357.649L527.087 348.131L530.929 333.584L536.198 322.342L542.638 319.564L541.534 311.267L545.109 304.991L553.224 302.634L558.312 292.496L558.934 286.302L562.4 273.659L562.837 266.233L569.585 269.437L577.225 265.797L586.714 253.663L586.149 246.336L580.613 238.983L583.422 229.959L581.653 222.166L572.447 215.533L563.468 214.658L555.027 214.874L557.913 232.643L556.107 246.728L552.022 258.6L544.617 249.557L544.278 237.851L535.527 228.899L530.043 242.674L527.132 226.427L515.79 225.063L519.443 215.978L508.072 197.912L500.794 191.033L492.644 189.479L488.174 203.779L491.143 222.854L499.094 228.327L507.087 237.18L507.306 253.319L502.585 253.749L501.068 266.373L498.53 252.131L488.628 248.499L483.981 252.141L486.365 261.516L477.871 262.678L469.332 266.683L457.892 261.713L451.659 264.095L444.341 256.782L439.002 253.885L434.664 256.291L427.761 258.284L424.99 264.272L432.058 269.684L427.141 278.391L419.357 270.514L414.915 274.05L399.64 278.643L388.613 277.301L395.37 268.238L386.143 261.715L380.666 263.754L372.228 262.503L357.644 259.07L347.568 253.811L340.398 254.123L339.082 259.308L332.464 263.256L329.424 250.896L323.754 263.476L311.295 250.361L306.973 249.27L307.118 257.44L303.507 262.09L298.291 255.91L289.587 261.782L282.237 270.564L273.294 270.124L267.213 276.46L263.345 284.035L257.056 283.667L246.564 277.587L235.076 275.599L245.194 331.804L258.179 403.826L263.93 403.137L270.129 405.282L275.059 409.505L281.513 415.886L286.012 408.663L291.154 403.97L295.27 409.219L299.981 413.046L306.161 417.017L311.167 424.076L319.236 434.962L330.236 439.699L331.544 446.02L329.197 451.387L330.231 456.414L338.488 462.161L340.884 469.623L348.994 472.267L349.197 478.086L353.87 485.55L365.005 487.368L369.825 490.458L382.564 497.028L383.342 496.91L399.751 493.944L416.904 490.844L422.584 489.818L440.194 486.635L457.238 483.555L474.572 480.422L491.917 477.287L511.551 473.738L531.318 470.159L543.277 468.004L542.69 464.66L544.637 464.263L546.525 468.844L548.586 469.979L552.716 469.778L558.863 470.078L564.946 471.713L569.426 469.76L576.933 470.689L578.669 466.893L581.704 464.953L582.608 462.623L583.707 461.262L589.394 462.03L593.413 461.518L595.001 462.419L597.809 466.912L604.524 467.014L603.939 469.601L606.669 471.651L606.257 475L608.871 475.605L608.166 478.612L609.761 478.586L610.628 477.176L612.091 478.797L616.609 479.032L621.017 478.323L625.853 478.314L631.307 478.963L633.654 481.176L638.512 486.672L637.128 489.649L632.234 489.4L628.421 484.966L630.066 489.886L628.108 494.795L629.086 498.476L629.005 500.745L625.73 503.997L623.782 508.738L622.996 511.653L626.254 511.561L630.102 508.345L632.237 505.736L633.89 505.074L637.208 505.276L638.528 503.797L641.17 502.31L646.032 500.447L646.033 500.451L646.032 500.447L645.096 498.202L644.836 498.342L643.145 499.063L640.708 498.741L641.953 495.752L643.547 494.505L647.418 492.619L652.107 490.663L654.941 491.692L656.239 489.671L657.873 488.242L659.206 488.601L659.294 488.714L664.206 482.096L666.546 480.149L675.314 478.507L685.961 476.577L686.18 474.484L687.955 473.744L690.183 472.048L691.565 467.978L692.17 461.261L695.441 454.169L697.759 456.023L701.376 453.9L704.377 455.849L706.403 467.08L711.007 470.973L717.251 468.831L726.451 466.895L717.618 475.337L719.047 481.986L723.539 481.768L728.969 474.924L734.117 470.669L746.05 463.577L752.238 456.968L747.97 454.675L746.486 448.751ZM609.781 324.212L610.896 317.453L608.974 315.213L606.56 315.372L604.993 319.442L604.875 320.33L607.042 323.656L609.781 324.212ZM329.197 451.387L331.545 446.022L329.197 451.387Z" stroke="#002448" stroke-opacity="0.2"/>
<path d="M662.595 725.638L659.23 724.937L657.842 723.947L658.326 722.831L657.887 721.603L656.038 720.52L653.561 719.803L651.439 719.426L650.754 717.814L649.054 717.061L649.727 718.665L648.821 720.246L647.214 718.891L645.255 718.659L644.254 717.641L643.972 715.883L644.409 713.932L642.63 713.414L643.754 712.06L644.489 711.159L648.571 712L649.765 711.008L651.684 711.158L652.856 712.172L654.63 712.248L655.794 710.774L657.823 713.642L660.475 715.554L663.632 717.514L661.489 718.433L661.939 720.736L663.297 721.37L662.554 722.205L662.968 723.201L662.695 724.449L662.595 725.638Z" stroke="#002448" stroke-opacity="0.2"/>
<path d="M650.66 636.578L655.73 636.115L660.282 635.363L666.087 636.48L668.793 638.311L674.064 636.642L676.371 637.713L681.949 640.614L686.041 642.708L687.928 642.281L691.6 642.898L691.487 644.679L695.79 644.159L700.606 645.846L700.175 647.384L696.473 648.845L692.638 649.844L688.571 650.088L680.404 652.171L683.669 648.103L681.03 646.957L677.231 647.226L674.92 645.837L672.923 642.621L669.702 643.448L664.018 642.786L662.053 641.819L654.35 642.231L652.117 641.402L654.008 639.478L648.284 640.187L644.708 644.123L642.328 644.641L641.77 646.282L639.03 647.466L636.455 647.335L639.163 644.896L640.015 642.458L642.381 640.62L645.115 638.888L649.383 637.507L650.66 636.578Z" stroke="#002448" stroke-opacity="0.2"/>
<path d="M715.473 646.709L716.011 645.552L720.525 644.764L724.228 645.696L725.723 645.268L727.157 647.211L730.299 646.519L730.434 648.34L733.043 648.093L736.281 649.775L734.573 652.592L731.592 651.791L728.985 652.521L727.032 652.58L726.188 653.857L724.035 654.624L722.894 653.338L721.14 654.539L719.563 659.035L717.904 658.358L717.302 656.7L717.129 655.058L715.317 653.534L716.545 652.271L716.569 649.889L715.473 646.709Z" stroke="#002448" stroke-opacity="0.2"/>
<path d="M718.756 -158.733L733.157 -189.893L753.822 -191.39L757.902 -210.918L777.436 -219.52L824.741 -221.464L867.711 -190.214L860.094 -171.394L838.33 -165.523L807.977 -155.776L812.225 -148.893L831.853 -157.149L851.797 -146.243L860.764 -160.718L868.194 -147.053L865.88 -123.615L878.045 -140.349L903.328 -160.766L922.048 -156.146L928.274 -140.246L909.372 -110.239L907.54 -101.737L890.125 -92.5735L903.796 -93.3945L901.265 -68.7815L900.14 -48.4318L905.926 -17.4529L915.926 -1.76703L907.089 0.906986L899.012 10.5109L911.989 21.3894L916.883 40.7099L911.078 43.8917L921.928 61.1452L909.364 64.9733L917.587 72.1772L916.982 79.6519L909.392 84.2101L901.351 85.7221L910.969 97.5875L912.566 105.964L899.723 100.239L897.664 105.836L906.306 109.087L915.888 118.849L920.634 132.59L910.931 137.751L905.279 131.923L896.305 123.092L900.438 134.664L895.346 144.843L910.704 142.804L918.834 142.281L905.93 159.368L892.476 174.658L876.53 183.031L870.168 184.25L865.247 191.168L860.013 208.14L849.384 220.323L845.496 221.62L838.42 226.423L830.698 231.141L827.262 240.414L828.858 249.693L827.465 258.69L819.861 270.452L823.916 279.595L823.102 289.922L822.185 301.769L814.169 303.936L803.939 296.058L792.377 298.087L785.601 292.636L779.615 281.533L766.784 267.751L762.329 259.833L759.376 247.999L749.07 236.707L749.252 225.822L744.467 221.381L747 202.754L754.649 195.393L755.733 188.353L754.642 175.406L749.095 182.426L746.385 185.414L741.613 188.654L733.565 184.641L731.14 173.428L731.756 163.917L737.068 162.699L749.692 165.15L737.761 155.899L731.487 150.727L726.189 154.289L720.562 150.703L723.887 132.248L719.079 125.722L712.017 112.845L701.056 91.9342L692.164 84.7695L690.532 75.3522L672.57 64.5562L659.99 65.0416L644.723 68.7917L630.938 73.0819L622.857 66.6796L610.003 52.9242L623.716 42.1149L635.098 38.6388L609.136 36.2594L594.117 27.57L592.949 16.5659L612.3 -1.34755L630.833 -19.724L630.996 -31.5856L613.284 -40.479L615.882 -54.8943L631.354 -83.5779L639.032 -89.1196L633.475 -106.104L645.238 -119.226L661.825 -128.962L679.513 -132.543L688.133 -120.865L699.3 -146.652L715.948 -133.331L724.646 -131.559L739.001 -120.695L721.306 -140.103L718.756 -158.733Z" stroke="#002448" stroke-opacity="0.2"/>
<path d="M632.498 702.754L631.172 701.116L629.325 700.927L629.305 698.521L628.406 698.03L627.142 697.831L624.732 698.982L624.376 698.236L622.461 697.614L621.006 696.675L619.213 696.491L620.146 694.788L619.479 693.72L619.681 692.521L622.123 690.384L624.351 687.666L624.992 687.787L626.073 686.523L627.71 686.141L628.335 686.524L629.178 686.069L631.957 686.115L634.6 685.478L636.341 684.491L636.9 683.708L638.797 683.68L640.252 683.833L641.738 683.421L642.793 682.702L645.581 683.042L646.521 683.006L648.484 683.787L650.391 684.804L652.653 685.323L654.468 686.662L652.464 686.9L651.809 687.844L649.94 688.971L648.482 689.238L647.341 690.215L646.135 690.158L644.988 689.442L644.415 689.721L643.926 691.254L643.362 691.303L643.486 692.526L641.759 694.498L640.821 695.384L640.358 696.214L638.441 695.344L637.475 697.126L636.263 697.303L634.931 697.684L635.573 700.526L634.735 700.732L634.252 702.192L632.498 702.754Z" stroke="#002448" stroke-opacity="0.2"/>
<path d="M706.718 647.04L710.29 646.669L715.473 646.711L716.569 649.89L716.544 652.273L715.317 653.536L717.128 655.06L717.302 656.701L713.282 656.382L710.63 657.288L707.026 657.494L704.524 659.097L701.093 657.798L701.254 655.781L706.725 655.649L711.17 655.341L713.011 653.636L709.902 651.517L709.531 649.216L705.716 648.938L706.718 647.04Z" stroke="#002448" stroke-opacity="0.2"/>
<path d="M974.379 190.778L974.689 200.125L982.908 208.297L977.236 219.83L962.178 231.748L957.62 234.981L949.673 234.474L932.815 233.306L937.459 226.503L923.707 222.274L933.467 217.817L932.499 213.871L919.795 212.87L922.054 203.071L930.433 199.39L941.159 207.283L948.559 198.074L956.548 200.738L964.61 191.5L974.379 190.778Z" stroke="#002448" stroke-opacity="0.2"/>
<path d="M682.957 660.165L686.942 659.997L690.272 660.875L691.525 662.334L687.481 663.178L685.907 664.489L682.499 664.118L678.804 662.545L679.251 661.055L681.606 660.199L682.957 660.165Z" stroke="#002448" stroke-opacity="0.2"/>
<path d="M561.715 635.401L560.468 641.317L560.267 645.986L561.345 654.349L561.328 657.448L562.933 660.607L565.261 663.255L567.268 667.753L571.914 671.559L573.884 674.746L576.678 677.289L583.099 677.765L585.939 679.832L590.706 677.247L595.001 675.847L599.134 673.992L602.584 672.308L605.818 669.199L606.561 665.444L606.118 660.283L606.797 658.329L610.422 656.031L616.277 653.516L621.432 652.802L624.842 651.653L626.462 652.693L626.795 655.655L624.34 659.812L623.63 663.729L624.883 664.584L624.486 667.336L623.881 672.263L622.141 670.994L620.949 671.313L619.865 671.588L618.444 675.563L617.269 675.049L616.619 675.447L616.823 676.315L611.468 677.216L606.075 678.201L606.675 681.546L604.069 682.031L606.578 683.622L608.96 684.602L609.834 685.767L610.834 685.955L611.049 687.99L603.636 689.349L601.723 694.646L602.741 695.596L602.32 697.091L602.486 698.822L594.806 693.688L591.481 692.316L586.484 691.633L583.336 692.642L579.096 695.697L576.287 696.804L571.927 695.991L567.395 695.652L561.504 693.92L557.023 693.876L549.985 692.304L544.638 690.34L542.892 689.016L539.594 689.245L533.343 688.427L530.446 686.136L523.622 683.855L520.041 680.586L518.133 677.893L519.953 676.953L519.048 675.335L520.09 673.52L519.739 671.413L517.295 669.029L516.334 666.69L513.837 663.943L507.637 658.733L500.951 654.929L497.437 651.544L492.014 649.88L490.675 648.533L490.849 644.473L487.637 643.526L483.669 641.052L481.422 636.855L478.219 636.895L474.253 634.112L470.977 631.455L470.357 629.475L466.362 625.115L463.404 620.45L463.034 617.894L458.378 616.013L456.502 616.652L452.873 615.412L452.434 618.283L453.965 621.291L455.421 626.133L457.891 628.472L462.99 632.183L464.218 633.535L465.179 633.838L466.342 635.918L467.352 635.643L469.262 639.578L471.312 640.891L472.951 642.929L477.166 645.506L480.145 651.036L482.358 653.478L484.491 656.119L485.405 659.348L488.228 659.05L491.054 661.451L493.649 663.834L493.708 664.964L491.685 667.665L490.656 667.82L488.456 664.349L484.037 661.506L479.327 659.253L476.086 658.203L475.45 653.589L473.956 650.337L470.849 648.877L466.367 646.768L465.752 647.723L463.994 646.332L460.153 645.435L456.076 642.343L456.411 641.783L458.857 641.717L460.567 638.931L460.258 635.987L454.974 632.169L451.256 630.981L448.39 627.282L445.467 623.354L441.831 618.535L438.396 612.937L444.868 611.234L452.074 609.176L451.772 610.59L461.086 612.276L475.114 614.587L486.596 612.464L491.177 611.634L490.693 608.885L500.704 607.078L503.236 609.057L506.571 610.621L510.529 612.905L513.064 615.992L515.152 619.328L518.493 620.754L523.642 621.834L526.352 616.036L531.054 615.056L535.596 616.919L539.298 620.835L541.977 624.25L546.046 627.289L548.126 631.52L550.282 634.208L555.143 635.351L559.494 635.996L561.715 635.401Z" stroke="#002448" stroke-opacity="0.2"/>
<path d="M643.753 712.061L641.425 710.603L638.302 708.76L636.678 707.038L633.913 705.657L630.544 703.558L631.024 702.544L632.136 703.245L632.499 702.756L634.253 702.193L634.736 700.733L635.573 700.527L634.932 697.685L636.264 697.304L637.476 697.127L638.442 695.345L640.359 696.216L640.822 695.385L641.76 694.499L643.486 692.527L643.363 691.304L643.927 691.255L644.416 689.723L644.989 689.443L646.136 690.159L647.342 690.216L648.482 689.239L649.941 688.972L651.81 687.845L652.465 686.901L654.469 686.663L654.072 687.316L654.013 688.676L654.99 690.71L654.018 692.941L653.824 695.398L654.1 697.997L654.68 699.439L655.299 702.027L654.519 702.753L654.427 705.329L655.099 706.786L654.185 708.477L654.735 709.988L655.792 710.775L654.629 712.248L652.855 712.172L651.682 711.158L649.763 711.008L648.57 712L644.488 711.159L643.753 712.061Z" stroke="#002448" stroke-opacity="0.2"/>
<path d="M693.006 726.049L690.782 724.751L688.986 721.889L690.138 720.105L688.604 719.975L687.182 718.28L684.016 717.209L681.555 718.029L680.743 720.233L678.668 722.094L677.445 722.521L677.094 723.814L680.411 726.418L678.965 727.433L678.283 728.429L675.646 729.206L674.031 725.976L673.454 727.083L671.487 727.09L669.907 725.002L667.469 725.05L665.848 724.652L663.37 725.109L663.415 726.383L662.595 725.637L662.695 724.448L662.968 723.2L662.554 722.204L663.296 721.369L661.939 720.735L661.489 718.432L663.632 717.513L666.079 719.197L666.179 720.434L668.532 720.276L668.993 719.71L670.834 720.831L673.603 719.903L675.798 718.012L679.098 716.221L680.76 714.149L684.011 713.91L683.899 714.513L687.155 714.127L689.906 714.654L692.103 716.036L694.563 717.227L694.012 718.191L695.963 721.319L695.179 723.213L693.245 723.141L693.006 726.049Z" stroke="#002448" stroke-opacity="0.2"/>
<path d="M748.148 648.23L751.196 648.223L752.453 649.222L751.243 650.992L746.888 651.741L743.549 652.563L742.752 650.07L743.412 649.05L748.148 648.23Z" stroke="#002448" stroke-opacity="0.2"/>
<path d="M629.327 700.926L628.933 702.412L625.571 702.93L623.389 702.749L620.792 702.024L617.516 702.242L615.653 701.286L615.678 700.4L617.392 698.568L618.36 697.728L617.928 697.095L619.215 696.491L621.008 696.674L622.463 697.614L624.378 698.236L624.734 698.982L627.143 697.83L628.407 698.03L629.307 698.52L629.327 700.926Z" stroke="#002448" stroke-opacity="0.2"/>
<path d="M782.951 688.858L786.136 687.508L787.386 687.489L787.93 691.822L783.221 693.326L782.086 692.996L783.476 691.112L782.951 688.858Z" stroke="#002448" stroke-opacity="0.2"/>
<path d="M328.744 448.881L324.893 445.728L319.224 443.459L315.99 434.9L307.023 427.85L302.095 418.375L296.422 418.681L287.188 420.077L279.852 418.181L265.834 408.87L259.915 407.735L249.075 405.511L241.251 407.928L228.937 404.718L221.175 401.01L215.207 404.634L217.841 412.403L214.779 413.708L208.521 417.276L204.119 421.982L198.144 425.503L196.126 419.057L196.692 407.344L202.18 402.635L200.061 399.962L193.878 407.834L191.319 416.212L184.444 425.739L189.645 430.356L185.598 439.166L180.198 444.775L175.001 449.056L174.411 453.963L166.359 460.947L165.402 466.08L159.422 471.625L155.317 471.567L150.43 475.341L145.181 479.793L140.973 483.966L131.563 488.558L130.361 487.077L135.848 481.324L140.944 477.228L146.108 470.606L153.067 468.162L155.159 463.454L162.046 455.801L162.956 453.47L166.549 448.973L166.077 440.663L167.849 433.68L161.788 438.209L159.585 436.662L157.174 441.199L152.398 436.332L151.552 440.549L148.402 435.461L143.422 440.91L139.874 441.542L138.188 435.063L138.491 430.768L134.041 427.412L126.921 430.945L121.079 426.479L116.627 424.431L115.409 417.829L110.043 413.587L111.028 406.262L114.502 398.564L115.404 391.781L119.912 390.013L124.242 391.313L127.798 384.358L132.192 384.7L135.878 379.93L133.733 374.195L130.07 372.416L133.423 366.522L129.902 367.316L124.295 371.323L123.062 374.556L117.98 372.468L110.075 375.427L101.04 373.78L97.6394 368.823L88.8932 362.205L95.959 354.91L107.595 345.656L112.345 344.798L112.837 352.021L124.934 349.271L118.65 341.299L110.542 337.05L105.096 330.396L98.3902 324.963L89.5742 321.55L91.3277 312.778L101.484 310.412L107.46 301.807L107.396 293.596L111.861 284.58L117.137 281.622L126.709 272.004L132.232 272.206L139.43 261.231L148.844 263.373L154.447 270.481L156.409 266.667L166.361 265.946L166.732 269.974L176.096 271.279L181.682 268.51L194.822 271.666L206.221 271.235L211.062 272.602L218.26 268.498L227.928 271.919L234.622 273.091L244.74 329.296L257.725 401.318L263.476 400.629L269.675 402.774L274.605 406.997L281.059 413.378L285.559 406.155L290.701 401.462L294.816 406.711L299.527 410.538L305.708 414.509L310.714 421.568L318.782 432.454L329.783 437.191L331.091 443.512L328.744 448.881ZM703.928 453.351L700.926 451.402L697.309 453.525L694.991 451.671L691.721 458.763L691.115 465.48L689.734 469.55L687.506 471.245L685.731 471.986L685.511 474.079L674.865 476.009L666.096 477.65L663.756 479.597L658.845 486.215L659.636 487.214L660.531 490.213L656.664 493.578L651.814 493.787L647.22 494.317L644.645 495.704L645.58 497.949L645.581 497.953L645.831 498.691L641.685 504.195L637.727 507.196L634.939 508.762L631.896 511.484L627.896 513.248L624.945 513.381L621.098 512.456L622.546 509.152L623.332 506.237L625.28 501.496L624.414 498.355L622.55 493.988L620.271 493.586L617.316 497.699L616.156 497.841L615.502 495.915L618.108 492.178L617.979 488.452L616.85 484.891L612.004 482.509L606.8 481.77L606.55 485.002L605.425 486.055L605.12 490.21L604.098 487.613L602.136 489.956L601.178 492.902L600.376 497.068L600.692 500.464L603.481 504.947L604.244 510.074L602.573 514.229L601.593 515.494L600.184 516.613L598.228 517.011L597.604 516.593L595.322 512.859L594.916 510.872L594.727 508.939L593.314 505.269L593.611 500.638L593.919 494.887L595.802 488.176L594.938 488.362L591.627 494.298L590.674 493.497L592.416 490.197L594.916 484.344L598.713 482.9L602.925 480.451L607.624 480.492L607.824 480.494L612.781 478.836L609.315 476.085L607.72 476.111L605.898 476.096L604.265 473.998L598.719 475.748L593.924 478.514L589.285 476.097L585.819 475.63L586.878 470.883L582.28 474.58L578.131 478.117L574.051 481.031L569.994 478.824L564.518 481.6L564.316 480.379L567.602 476.154L571.097 472.05L576.486 468.19L568.978 467.261L564.499 469.215L558.415 467.579L552.269 467.28L548.138 467.48L546.078 466.346L544.19 461.765L542.242 462.161L542.829 465.505L530.87 467.661L511.103 471.24L491.469 474.788L474.125 477.923L456.79 481.056L439.747 484.136L422.136 487.319L416.457 488.346L399.304 491.446L382.895 494.412L386.134 501.101L388.31 507.866L387.281 510.333L382.766 502.94L373.886 501.554L373.489 503.347L375.884 506.982L379.005 513.817L382.038 524.637L382.654 532.063L383.25 539.375L382.319 547.13L385.228 552.687L386.606 559.159L386.461 565.597L390.272 569.09L392.151 574.932L397.722 580.203L400.7 582.119L400.794 583.817L407.388 592.807L414.261 598.811L415.649 602.477L417.324 603.322L422.814 603.029L425.216 604.511L428.52 604.269L429.507 606.116L432.35 606.444L436.799 609.67L438.395 612.941L444.867 611.236L452.073 609.18L451.769 610.595L461.083 612.279L475.112 614.592L486.594 612.469L491.174 611.639L490.69 608.89L500.699 607.084L503.232 609.065L506.566 610.628L510.524 612.912L513.061 615.999L515.149 619.335L518.49 620.761L523.64 621.841L526.35 616.045L531.05 615.063L535.592 616.927L539.293 620.842L541.973 624.26L546.042 627.297L548.119 631.528L550.276 634.216L555.136 635.359L559.489 636.003L561.708 635.407L560.222 633.461L559.384 630.475L558.648 626.072L559.457 622.953L562.057 619.316L567.297 615.495L571.687 609.734L576.272 607.331L579.783 606.224L584.26 606.974L589.152 605.251L594.086 607.91L598.316 607.356L600.261 605.732L602.58 606.304L603.526 605.251L602.068 604.188L601.682 601.525L600.327 599.973L602.53 598.517L606.854 597.267L612.112 597.066L618.493 595.061L622.41 596.03L625.766 598.576L626.859 598.715L632.152 594.693L634.588 595.29L640.078 599.927L642.339 603.194L641.924 607.679L643.244 610.027L646.812 614.413L650.857 619.297L653.313 620.347L654.721 622.935L657.702 623.181L659.286 622.078L660.033 617.983L659.841 615.484L659.25 611.178L655.174 604.262L654.638 601.485L651.243 597.37L648.306 592.139L646.459 587.758L646.501 582.892L648.508 578.446L651.189 574.664L656.74 569.135L657.154 566.708L659.626 563.675L662.432 562.716L665.502 558.005L671.11 554.88L673.852 549.066L671.771 542.19L670.728 539.849L668.981 539.659L667.504 532.902L663.107 531.298L667.13 531.74L665.068 527.369L665.61 524.013L667.381 529.936L670.83 532.159L669.924 537.356L670.501 537.543L672.718 531.234L674.064 528.092L673.481 525.363L671.812 524.324L669.898 520.596L672.125 522.088L673.464 522.241L674.232 524.042L677.415 517.633L677.698 512.079L675.936 512.044L677.321 509.653L677.316 510.603L680.994 509.923L688.676 506.213L686.706 505.096L678.476 508.046L682.898 504.995L686.189 504.014L688.635 503.181L692.67 501.088L695.472 500.735L699.151 498.8L699.219 496.541L697.179 495.158L698.289 497.837L695.856 498.079L693.217 494.369L692.535 490.267L693.199 488.344L695.418 483.15L701.098 479.718L706.542 475.913L712.013 470.936L710.54 468.484L705.936 464.592L703.928 453.351ZM191.747 440.028L188.956 442.216L184.39 446.941L186.174 451.7L189.615 453.851L194.666 448.835L198.76 442.921L195.714 440.056L191.747 440.028ZM87.2423 398.966L90.9881 395.648L91.2154 394.186L86.2809 393.646L87.2423 398.966ZM110.406 427.024L105.055 430.021L109.122 432.485L113.292 433.918L116.52 431.515L115.177 427.237L110.406 427.024ZM322.937 456.83L317.532 458.607L314.588 457.837L314.801 460.985L316.633 465.008L320.084 467.44L323.002 471.39L327.253 475.023L329.56 474.625L323.172 468.009L322.937 456.83ZM225.676 727.729L223.517 727.523L223.047 728.145L223.167 728.514L223.919 728.888L225.145 729.982L227.004 729.199L227.355 728.387L225.676 727.729ZM219.306 727.749L222.433 727.366L222.494 726.677L219.603 726.931L219.306 727.749ZM232.652 732.24L231.531 731.903L229.134 731.285L228.675 731.253L228.441 731.876L229.053 732.989L228.227 734.153L228.059 734.875L229.411 736.892L229.549 738.598L231.139 739.197L231.802 738.042L233.482 736.771L235.508 735.08L235.586 734.722L233.734 732.88L232.652 732.24ZM214.582 724.711L213.189 725.832L213.458 726.035L214.441 727.283L216.49 727.132L216.919 727.137L217.169 726.729L215.136 725.018L214.582 724.711ZM204.932 723.178L204.158 723.938L203.94 724.437L206.086 725.199L206.663 724.471L206.286 723.068L204.932 723.178Z" stroke="#002448" stroke-opacity="0.2"/>
<path d="M615.654 701.287L612.507 700.806L608.884 701.352L606.03 700.671L602.487 698.822L602.321 697.091L602.743 695.596L601.724 694.646L603.637 689.349L611.05 687.99L610.836 685.955L609.836 685.767L608.961 684.602L606.579 683.622L604.07 682.031L606.677 681.546L606.076 678.201L611.469 677.216L616.824 676.315L617.63 681.029L618.383 687.778L620.108 687.464L622.184 688.188L622.524 687.222L624.353 687.666L622.125 690.384L619.683 692.521L619.481 693.721L620.148 694.788L619.215 696.491L617.929 697.095L618.36 697.729L617.393 698.569L615.679 700.401L615.654 701.287Z" stroke="#002448" stroke-opacity="0.2"/>
<path d="M840.12 1130.84L834.721 1132.33L831.14 1129.36L827.611 1129.72L821.424 1130.83L817.538 1109.35L820.546 1113.32L824.73 1119.96L833.294 1124.43L841.825 1125.42L840.12 1130.84ZM798.231 881.413L802.427 885.226L803.79 879.887L810.424 878.951L811.594 880.091L824.034 888.222L828.927 888.312L836.818 891.634L843.211 893.001L844.54 895.62L840.59 906.264L846.729 906.947L853.395 906.748L857.777 904.896L862.137 899.075L862.073 893.328L864.717 891.606L868.274 894.718L869.071 899.799L864.841 904.192L861.431 907.499L856.04 914.935L849.937 925.215L849.446 930.748L849.137 937.867L850.405 944.558L849.425 946.293L849.773 950.775L850.025 954.426L858.431 959.023L858.512 963.979L862.676 966.389L863.006 969.898L859.113 980.081L851.25 985.517L839.935 989.128L833.455 989.541L835.458 993.686L835.274 999.431L837.022 1003L834.033 1006.27L828.299 1008.38L822.248 1006.64L820.372 1009.01L822.541 1016.41L826.858 1018.01L829.585 1015.02L832.026 1018.7L827.139 1022.06L823.376 1027.74L823.962 1035.84L823.37 1040.37L817.917 1041.37L814.136 1046.33L813.586 1052.75L820.362 1057.79L826.192 1058.48L825.575 1066.41L819.622 1072.47L817.714 1083.36L813.072 1087.81L811.461 1092.42L815.031 1101.52L819.843 1106.18L817.323 1106.15L811.704 1105.66L797.52 1106.95L794.158 1102.03L793.046 1095.24L789.303 1096.51L786.68 1093.64L784.486 1084.38L788.229 1079.76L789.076 1073.98L787.628 1069.81L789.397 1062.1L789.542 1050.85L788.065 1046.22L790.313 1044.25L789.152 1041.35L786.184 1040.25L787.489 1036.59L784.343 1034.09L781.379 1025.4L783.419 1023.42L780.773 1014.36L780.753 1006.5L781.115 999.665L784.097 996.397L781.068 989.678L779.867 983.142L783.411 977.752L782.223 971.946L784.303 964.616L783.184 958.341L781.46 957.374L776.706 946.282L779.038 938.843L777.348 932.61L778.349 926.35L781.044 919.644L784.405 914.943L782.226 912.766L783.064 910.513L780.991 900.093L786.73 895.888L787.552 889.109L786.573 887.695L790.387 881.292L798.231 881.413Z" stroke="#002448" stroke-opacity="0.2"/>
<path d="M810.426 878.95L803.79 879.889L802.429 885.225L798.231 881.412L790.401 881.291L786.587 887.694L782.571 889.291L778.784 881.264L774.448 875.02L775.214 868.862L771.724 866.869L770.174 862.695L766.61 859.158L769.098 852.105L765.718 847.601L766.685 845.385L765.258 843.397L766.987 840.062L766.201 835.076L765.748 830.935L766.634 828.745L759.956 820.339L764.341 820.05L767.294 819.386L768.266 817.409L772.897 814.163L775.551 811.452L782.935 809.114L783.098 813.534L784.21 815.622L784.445 819.575L791.656 823.629L798.299 823.417L800.966 825.174L805.079 825.621L807.775 826.88L811.4 826.164L815.069 827.285L815.932 830.616L817.368 832.119L817.899 834.633L816.233 835.034L819.693 841.483L830.813 839.725L830.583 843.291L831.624 845.519L835.081 846.613L837.115 850.068L836.939 854.961L835.832 857.875L837.008 861.203L835.426 862.776L834.991 860.936L829.052 858.831L823.671 859.718L813.919 863.286L812.106 869.094L812.551 872.38L811.594 880.091L810.426 878.95Z" stroke="#002448" stroke-opacity="0.2"/>
<path d="M849.941 925.215L856.042 914.936L861.433 907.501L864.842 904.193L869.072 899.802L868.275 894.719L864.719 891.609L862.077 893.331L862.555 889.502L862.671 885.667L862.055 882.248L859.774 881.499L857.788 882.893L855.582 883.007L854.478 880.746L852.919 875.197L851.506 873.559L847.304 872.608L845.163 874.233L838.851 874.161L837.741 865.829L835.425 862.775L837.007 861.203L835.831 857.874L836.939 854.96L837.114 850.067L835.081 846.612L831.623 845.518L830.582 843.29L830.812 839.724L819.692 841.482L816.233 835.034L817.899 834.632L817.368 832.119L815.932 830.615L815.068 827.285L811.399 826.164L807.775 826.88L805.079 825.621L800.966 825.174L798.299 823.416L791.655 823.628L784.445 819.575L784.209 815.621L783.098 813.534L782.935 809.113L775.55 811.451L772.897 814.162L768.266 817.409L767.293 819.386L764.34 820.049L759.956 820.338L756.875 821.919L754.128 821.732L752.933 812.922L748.806 817.165L743.679 817.938L740.941 815.268L737.046 815.627L737.822 812.943L733.982 810.039L730.647 805.325L731.981 804.005L731.541 801.597L734.734 799.32L733.603 796.343L734.718 794.096L734.659 791.366L740.566 786.306L745.104 784.356L745.725 783.363L750.98 782.688L750.767 766.675L750.46 764.195L748.969 761.116L746.032 759.515L745.318 755.395L748.405 753.874L749.665 754.253L749.469 752.049L745.977 752.075L745.267 748.543L756.545 746.637L758.104 744.338L760.034 745.844L761.763 748.981L762.729 748.086L766.45 750.506L770.876 749.328L771.682 747.392L775.739 745.294L777.952 743.935L778.188 741.415L782.024 739.057L781.498 737.923L776.514 738.322L775.067 734.895L774.612 731.052L771.76 730.048L772.75 729.33L777.159 729.282L782.009 729.871L783.433 728.228L787.43 726.597L793.508 723.302L795.229 720.754L794.175 719.288L797.134 718.493L798.714 719.56L798.413 722.192L800.555 722.692L802.356 725.091L801.116 727.379L801.067 732.371L803.065 734.969L803.957 737.516L807.992 739.53L810.878 739.298L811.317 738.075L813.1 737.498L815.533 736.032L817.141 734.186L820.422 734.091L821.792 733.633L825.019 733.528L825.329 732.276L824.157 731.325L824.437 729.58L826.859 729.663L829.484 728.59L833.011 729.194L835.744 729.907L837.255 728.047L838.59 728.049L839.668 729.502L842.36 728.598L844.186 726.045L845.204 721.551L847.684 715.74L849.604 715.116L851.601 717.996L856.632 727.324L859.892 727.7L860.753 731.581L857.251 737.027L859.357 738.409L869.73 737.452L870.964 743.089L874.682 738.58L882.319 739.301L892.541 741.026L895.96 743.834L895.581 747.141L901.983 744.181L913.77 745.147L922.362 743.365L931.752 746.514L940.279 751.541L945.026 752.375L950.009 751.712L952.426 753.126L955.698 760.02L957.281 763.3L956.69 773.171L954.426 777.449L947.73 786.929L945.231 794.129L941.862 799.933L940.438 800.308L939.599 804.885L941.992 815.783L942.026 825.176L942.12 829.204L940.719 831.885L941.142 840.077L936.708 849.018L936.861 855.483L932.665 858.979L931.976 862.904L925.697 864.025L917.035 868.035L913.462 871.521L907.319 874.502L901.415 880.69L897.65 887.796L897.662 892.668L899.257 896.004L899.346 902.667L898.604 906.051L895.21 910.346L890.884 923.042L886.757 929.23L883.393 933.069L881.918 939.956L878.799 944.537L876.503 940.974L878.471 937.306L874.302 933.341L869.104 930.471L862.39 927.3L860.279 927.881L853.563 923.838L849.941 925.215Z" stroke="#002448" stroke-opacity="0.2"/>
<path d="M817.535 1109.36L821.422 1130.84L827.609 1129.72L831.137 1129.36L829.949 1133.73L825.558 1137.73L822.661 1137.93L819.094 1137.73L814.355 1135.49L808.043 1135.14L799.777 1130.95L792.93 1126.79L783.042 1117.54L788.164 1118.66L797.428 1123.56L805.717 1125.64L807.9 1120.69L808.597 1113.84L813.221 1109L817.535 1109.36ZM778.784 881.265L782.571 889.292L786.587 887.695L787.566 889.109L786.744 895.888L781.005 900.093L783.078 910.514L782.24 912.766L784.419 914.944L781.058 919.644L778.363 926.351L777.362 932.61L779.052 938.843L776.72 946.282L781.474 957.375L783.198 958.341L784.317 964.616L782.237 971.947L783.425 977.752L779.881 983.142L781.081 989.678L784.111 996.397L781.129 999.665L780.767 1006.5L780.787 1014.37L783.433 1023.42L781.392 1025.4L784.357 1034.09L787.503 1036.59L786.197 1040.25L789.166 1041.35L790.327 1044.25L788.079 1046.22L789.556 1050.85L789.411 1062.1L787.642 1069.81L789.09 1073.98L788.243 1079.76L784.5 1084.38L786.694 1093.64L789.317 1096.51L793.06 1095.24L794.172 1102.03L797.534 1106.95L811.718 1105.66L817.337 1106.15L812.183 1107.01L809.815 1109.8L805.215 1114.14L805.892 1123.21L803.486 1123.87L796.402 1121.93L788.595 1116.52L780.441 1112.47L777.576 1106.95L778.248 1101.32L774.262 1095.88L770.824 1081.09L771.799 1072.44L776.729 1064.86L767.522 1064.03L771.713 1055.78L771.272 1042.1L778.198 1043.73L778.289 1026.98L774.044 1025.65L773.984 1035.63L770.14 1035.18L769.964 1023.84L769.42 1009.57L771.164 1004.06L768.217 997.255L766.28 989.257L768.674 988.585L770.162 976.57L772.16 964.807L772.781 954.267L769.645 944.523L770.389 938.782L768.244 930.869L770.202 922.398L769.025 909.937L768.538 896.645L767.866 882.605L765.653 872.774L762.924 864.55L765.621 862.491L766.617 859.16L770.18 862.697L771.732 866.871L775.223 868.864L774.457 875.022L778.784 881.265Z" stroke="#002448" stroke-opacity="0.2"/>
<path d="M715.072 764.919L712.357 764.024L709.182 762.663L707.703 763.858L702.658 763.96L700.809 761.779L699.749 762.063L693.385 759.876L692.284 758.259L694.363 757.445L693.594 754.653L694.579 752.355L697.377 751.457L699.165 747.457L700.838 744.079L698.465 743.114L698.96 739.622L696.716 734.659L697.684 732.941L695.903 728.288L693.015 725.672L693.253 722.764L695.188 722.836L695.971 720.942L694.02 717.814L694.572 716.85L697.588 716.491L701.201 711.708L703.47 710.666L703.183 708.757L703.369 703.703L706.2 700.429L709.821 699.661L710.063 698.375L714.671 698.039L718.69 694.301L720.708 692.599L723 689.303L725.113 689.288L726.903 690.539L726.134 692.691L722.598 694.331L721.652 697.483L719.716 699.541L718.423 701.985L718.458 706.217L717.464 709.864L720.515 709.709L721.731 712.21L723.234 713.238L724.108 715.458L723.804 717.698L724.221 718.852L725.729 719.073L727.465 720.814L734.797 718.922L738.285 719.041L743.237 723.211L745.462 722.179L749.679 721.732L752.855 720.488L755.076 721.097L754.589 724.35L753.644 726.492L753.927 730.649L755.771 734.212L757.718 735.6L758.148 736.834L755.73 740.185L758.051 741.056L759.946 742.758L762.729 748.088L761.763 748.983L760.034 745.846L758.104 744.34L756.545 746.639L745.266 748.545L745.977 752.077L749.469 752.051L749.665 754.255L748.405 753.876L745.317 755.397L746.032 759.516L748.969 761.118L750.46 764.197L750.767 766.677L750.98 782.69L747.542 780.196L745.793 780.374L748.478 773.929L743.574 772.074L740.194 773.189L737.929 772.586L735.016 774.66L730.587 774.726L726.11 769.404L723.171 768.428L720.844 766.09L716.516 764.102L715.072 764.919Z" stroke="#002448" stroke-opacity="0.2"/>
<path d="M689.924 788.492L692.232 783.698L690.534 781.45L688.803 784.48L684.892 782.623L685.776 780.814L683.873 775.852L685.742 774.63L686.168 770.911L687.695 766.872L686.876 764.633L689.821 762.846L693.385 759.876L699.749 762.063L700.809 761.779L702.658 763.959L707.703 763.858L709.183 762.663L712.357 764.024L715.072 764.919L716.657 769.072L715.523 773.078L710.294 780.148L703.751 783.64L701.103 789.215L700.7 793.24L697.857 796.168L694.913 793.738L692.469 793.546L690.163 794.431L689.63 792.378L691.034 790.728L689.924 788.492Z" stroke="#002448" stroke-opacity="0.2"/>
<path d="M844.187 726.045L842.361 728.598L839.669 729.503L838.593 728.049L837.258 728.045L835.747 729.905L833.012 729.192L834.04 726.509L834.076 723.836L834.634 721.227L831.787 718.285L830.627 714.481L832.75 709.049L834.825 709.321L839.324 709.897L846.307 713.589L847.683 715.741L845.203 721.55L844.187 726.045Z" stroke="#002448" stroke-opacity="0.2"/>
<path d="M796.547 700.213L800.721 701.631L804.967 704.707L805.661 707.616L807.863 707.357L811.461 709.578L814.1 711.148L814.102 716.431L810.863 718.548L811.416 719.832L810.88 722.953L814.186 726.61L816.038 726.282L817.374 729.344L821.793 733.634L820.422 734.091L817.141 734.187L815.534 736.033L813.101 737.499L811.317 738.075L810.879 739.298L807.992 739.53L803.958 737.516L803.065 734.97L801.068 732.371L801.117 727.379L802.357 725.092L800.555 722.693L798.413 722.192L798.714 719.56L797.134 718.494L794.175 719.289L789.484 715.679L790.767 713.828L790.176 711.219L793.567 709.662L794.808 708.333L792.447 706.573L792.575 704.398L796.547 700.213Z" stroke="#002448" stroke-opacity="0.2"/>
<path d="M766.61 859.158L765.612 862.489L762.916 864.548L756.505 862.174L755.564 859.828L743.035 855.955L731.51 851.388L726.4 848.581L723.135 844.186L723.779 842.334L717.509 835.596L709.886 825.971L702.362 815.53L699.529 813.351L696.949 809.474L691.789 806.564L687.254 805.001L688.666 802.122L684.886 797.207L685.964 792.904L689.924 788.49L691.035 790.726L689.631 792.376L690.164 794.429L692.47 793.544L694.914 793.737L697.857 796.166L700.701 793.238L701.104 789.213L703.752 783.638L710.294 780.147L715.524 773.077L716.657 769.07L715.073 764.917L716.517 764.1L720.845 766.089L723.172 768.426L726.11 769.402L730.588 774.724L735.017 774.658L737.93 772.585L740.194 773.187L743.574 772.073L748.478 773.928L745.793 780.372L747.542 780.194L750.981 782.688L745.725 783.363L745.105 784.357L740.567 786.306L734.659 791.366L734.719 794.097L733.603 796.343L734.735 799.32L731.542 801.598L731.981 804.005L730.647 805.325L733.983 810.039L737.823 812.943L737.046 815.627L740.941 815.268L743.68 817.938L748.807 817.165L752.934 812.922L754.128 821.732L756.875 821.919L759.956 820.338L766.634 828.745L765.748 830.935L766.201 835.076L766.987 840.062L765.258 843.397L766.685 845.385L765.718 847.6L769.098 852.105L766.61 859.158Z" stroke="#002448" stroke-opacity="0.2"/>
<path d="M811.594 880.091L812.551 872.38L812.106 869.094L813.919 863.286L823.671 859.718L829.052 858.831L834.991 860.936L835.426 862.776L837.742 865.829L838.852 874.161L845.163 874.233L847.304 872.608L851.506 873.559L852.92 875.197L854.478 880.747L855.582 883.007L857.788 882.894L859.775 881.5L862.055 882.249L862.671 885.668L862.555 889.503L862.077 893.332L862.138 899.076L857.779 904.897L853.396 906.749L846.731 906.949L840.59 906.266L844.541 895.619L843.21 893.001L836.817 891.633L828.926 888.312L824.033 888.222L811.594 880.091Z" stroke="#002448" stroke-opacity="0.2"/>
<path d="M849.941 925.216L853.563 923.839L860.279 927.881L862.39 927.3L869.104 930.471L874.302 933.342L878.471 937.307L876.503 940.975L878.799 944.537L877.077 949.294L871.244 954.307L866.729 953.696L863.736 955.001L857.86 953.005L853.98 953.935L849.775 950.778L849.427 946.297L850.409 944.562L849.141 937.87L849.449 930.749L849.941 925.216Z" stroke="#002448" stroke-opacity="0.2"/>
<path d="M726.135 692.69L726.217 694.086L722.947 695.372L725.304 697.654L725.779 700.679L723.834 704.481L726.845 708.64L729.269 707.816L729.816 703.433L727.659 701.733L726.578 697.425L733.35 693.777L732.056 691.198L733.753 689.005L736.561 692.695L740.629 692.056L744.966 694.597L745.537 696.465L750.733 695.579L756.8 693.869L760.575 695.85L765.122 695.761L768.038 693.379L767.843 691.917L774.936 690.276L781.846 688.944L777.247 691.532L779.712 693.893L784.41 693.488L789.301 695.52L791.052 699.945L794.04 699.273L796.548 700.213L792.576 704.399L792.448 706.573L794.809 708.334L793.568 709.662L790.177 711.22L790.767 713.829L789.484 715.679L794.176 719.29L795.23 720.755L793.51 723.304L787.432 726.598L783.434 728.229L782.01 729.872L777.16 729.284L772.751 729.331L771.762 730.049L774.614 731.054L775.068 734.897L776.515 738.323L781.499 737.924L782.025 739.059L778.189 741.417L777.953 743.936L775.741 745.295L771.683 747.393L770.877 749.329L766.451 750.507L762.73 748.088L759.948 742.757L758.053 741.055L755.731 740.184L758.149 736.834L757.72 735.599L755.773 734.211L753.929 730.649L753.646 726.491L754.591 724.349L755.077 721.096L752.856 720.488L749.681 721.732L745.463 722.179L743.238 723.211L738.286 719.041L734.798 718.922L727.467 720.814L725.73 719.073L724.222 718.852L723.805 717.697L724.109 715.457L723.235 713.237L721.732 712.209L720.516 709.709L717.465 709.864L718.459 706.216L718.424 701.985L719.717 699.541L721.654 697.482L722.599 694.331L726.135 692.69Z" stroke="#002448" stroke-opacity="0.2"/>
<path d="M814.1 711.148L821.227 711.037L821.664 709.898L826.262 708.643L832.749 709.049L830.626 714.481L831.786 718.285L834.662 721.237L834.091 723.861L834.053 726.544L833.01 729.195L829.484 728.591L826.858 729.664L824.437 729.581L824.156 731.326L825.328 732.277L825.018 733.529L821.792 733.634L817.374 729.344L816.037 726.282L814.185 726.61L810.879 722.953L811.415 719.832L810.862 718.549L814.101 716.431L814.1 711.148Z" stroke="#002448" stroke-opacity="0.2"/>
</svg>
