<svg width="125" height="99" viewBox="0 0 125 99" fill="none" xmlns="http://www.w3.org/2000/svg">
<path d="M45.9135 59H51.4014L45.8274 48.9698L51.4998 40.8288H46.1842L42.4067 46.397C42.1524 46.7533 41.8899 47.1303 41.6192 47.5281C41.3567 47.9258 41.1229 48.3235 40.9178 48.7212V40.8288H36.0328V59H40.9178V52.9222L42.3574 52.0522L45.9135 59Z" fill="#FFC68D"/>
<path d="M72.6004 45.8999C71.7637 45.0795 70.5496 44.6694 68.9582 44.6694C68.0887 44.6694 67.3053 44.8393 66.608 45.179C65.9107 45.5187 65.3406 46.0034 64.8977 46.6332H64.75C64.3316 46.02 63.7902 45.5394 63.1258 45.1914C62.4613 44.8434 61.6164 44.6694 60.591 44.6694C59.902 44.6694 59.2867 44.7564 58.7453 44.9304C58.2121 45.1044 57.7486 45.3406 57.3549 45.6389C56.9693 45.9371 56.6535 46.2769 56.4074 46.658H56.2721L55.5707 44.918H51.9408V59H56.752V52.8352C56.752 51.8989 56.8135 51.1076 56.9365 50.4613C57.0596 49.815 57.2728 49.3261 57.5764 48.9947C57.8881 48.6549 58.3187 48.4851 58.8684 48.4851C59.2293 48.4851 59.5287 48.5845 59.7666 48.7834C60.0045 48.974 60.1809 49.2805 60.2957 49.7031C60.4188 50.1174 60.4803 50.6643 60.4803 51.3438V59H65.3037V52.4375C65.3037 51.178 65.4514 50.2044 65.7467 49.5167C66.0502 48.829 66.5916 48.4851 67.3709 48.4851C67.9287 48.4851 68.3471 48.6964 68.626 49.119C68.9131 49.5333 69.0566 50.2749 69.0566 51.3438V59H73.8678V49.8398C73.8678 48.0335 73.4453 46.7202 72.6004 45.8999Z" fill="#FFC68D"/>
<path d="M75.0963 59H88.1516V54.9482H81.3471V54.8239L82.6637 53.6307C83.8039 52.5866 84.7555 51.6545 85.5183 50.8342C86.2812 50.0056 86.8514 49.1811 87.2287 48.3608C87.6142 47.5322 88.1516 46.6912 88.1516 45.6389C88.1516 44.686 87.5609 43.7372 87.0687 42.9915C86.5765 42.2375 85.8793 41.645 84.9769 41.2141C84.0828 40.7833 83.0246 40.5678 81.8023 40.5678C80.6129 40.5678 79.6039 40.7087 78.7754 40.9904C77.9469 41.2721 77.2291 41.6367 76.6221 42.0842C76.015 42.5233 75.4408 42.9873 74.8994 43.4762L77.5695 46.6332C78.2996 45.9951 78.9517 45.5146 79.526 45.1914C80.1084 44.86 80.6826 44.6942 81.2486 44.6942C81.7162 44.6942 82.1223 44.8144 82.4668 45.0547C82.8113 45.295 82.9836 45.6844 82.9836 46.223C82.9836 46.6622 82.881 47.0848 82.676 47.4908C82.4709 47.8968 82.114 48.3898 81.6055 48.9698C81.1051 49.5498 80.3996 50.3204 79.489 51.2816L75.0963 55.7685V59Z" fill="#FFC68D"/>
<path fill-rule="evenodd" clip-rule="evenodd" d="M10.3 73.5454C10.3 81.5787 16.7471 88.0909 24.7 88.0909H104.5V91.7273C104.5 95.7439 105.524 98.5 109.5 98.5C113.476 98.5 114.7 95.7439 114.7 91.7273V88.0909H118.3C122.276 88.0909 124.5 87.0166 124.5 83C124.5 78.9834 122.276 78.5 118.3 78.5H114.7V24.4546C114.7 16.4213 108.253 9.90909 100.3 9.90909H20.2589V6.27273C20.2589 2.25611 19.4765 0 15.5 0C11.5235 0 10.3 2.25611 10.3 6.27273V9.90908H6.7C2.72355 9.90908 3.47632e-07 10.9834 0 15C-3.47633e-07 19.0166 2.72355 20.5 6.7 20.5H10.3V73.5454ZM104.5 40.8288V59V78.5H41.6192C19.178 78.5 20.2589 76.9439 20.2589 66.9023V20.5H51.4014H82.9836C100.3 20.5 104.5 20.5 104.5 40.8288Z" fill="#FFC68D"/>
</svg>
