<svg width="1071" height="1024" viewBox="0 0 1071 1024" fill="none" xmlns="http://www.w3.org/2000/svg">
<path d="M201.075 752.045L202.191 751.712L202.423 753.585L207.328 752.51L212.513 752.687L216.3 752.89L220.592 748.258L225.267 743.845L229.228 739.579L230.422 741.94L231.274 747.388L228.07 747.415L227.558 751.88L228.667 752.83L225.83 754.173L225.813 756.957L223.986 759.765L223.823 762.49L222.56 763.916L203.718 760.509L201.315 753.623L201.075 752.045Z" stroke="#002448" stroke-opacity="0.2"/>
<path d="M261.45 669.728L267.841 672.635L272.57 671.615L273.877 668.134L278.825 666.974L282.357 664.622L283.609 658.396L288.892 656.88L289.875 654.081L292.833 656.185L294.722 656.429L298.212 656.48L302.94 658.137L304.856 659.091L309.392 656.574L311.507 658.087L313.528 654.49L317.275 654.656L318.239 653.498L318.903 650.305L321.601 647.538L324.995 649.348L324.313 651.772L326.209 652.15L325.625 658.758L328.104 661.313L330.291 659.675L333.072 658.899L336.978 655.387L341.295 655.966L347.76 655.979L348.876 658.23L345.227 659.107L342.041 660.549L334.847 661.454L328.116 663.088L324.458 666.46L325.938 669.724L326.656 673.533L323.533 676.73L323.794 679.641L322.071 682.355L316.108 682.12L318.572 687.081L314.584 688.968L311.921 693.448L312.265 697.875L309.817 699.94L307.499 699.256L302.708 700.213L302.022 702.257L297.354 702.245L293.862 706.366L293.64 712.514L285.496 715.498L281.13 714.868L279.86 716.437L276.113 715.525L269.844 716.596L259.341 712.936L265.027 706.386L264.512 701.7L259.764 700.466L259.272 695.805L257.22 689.894L259.903 685.809L257.173 684.702L258.894 679.223L261.45 669.728Z" stroke="#002448" stroke-opacity="0.2"/>
<path d="M150.952 626.359L159.662 625.065L160.96 627.242L163.348 628.673L162.087 630.739L165.425 633.551L163.659 636.149L166.319 638.358L169.134 639.683L169.273 645.264L167.003 645.5L164.444 640.85L164.473 639.605L161.703 639.623L159.847 637.448L158.544 637.669L156.073 635.293L151.412 633.263L152.016 629.268L150.952 626.359Z" stroke="#002448" stroke-opacity="0.2"/>
<path d="M159.847 637.448L161.705 639.624L164.475 639.606L164.446 640.853L167.005 645.503L162.706 644.437L159.539 640.724L158.544 637.67L159.847 637.448ZM174.712 625.302L177.486 625.868L178.561 623.755L182.304 620.388L185.599 624.781L188.787 630.645L191.709 631.03L193.638 633.239L188.474 633.896L187.385 640.207L186.308 643.031L184.01 644.906L184.177 648.861L182.617 649.259L178.707 645.081L180.869 641.104L179.015 638.729L176.666 639.329L169.272 645.266L169.134 639.686L166.319 638.36L163.659 636.152L165.427 633.554L162.087 630.742L163.348 628.676L160.96 627.245L159.662 625.068L161.197 623.71L165.868 626.098L169.246 626.59L170.1 625.618L167.012 621.108L168.64 619.952L170.401 620.234L174.712 625.302Z" stroke="#002448" stroke-opacity="0.2"/>
<path d="M458.663 766.986L458.534 771.797L456.347 770.784L456.756 776.156L454.963 772.678L454.603 769.268L453.41 766.034L450.792 762.108L445.017 761.837L445.587 764.621L443.62 768.363L440.953 767.002L440.043 768.222L438.268 767.491L435.842 766.89L434.865 761.334L432.694 756.235L433.758 752.124L429.902 750.293L431.293 747.791L435.212 745.227L430.687 741.571L432.9 736.861L437.865 739.863L440.859 740.205L441.411 745.012L447.376 745.958L453.191 745.855L456.803 747.031L453.915 752.83L451.109 753.226L449.175 757.102L452.607 760.617L453.631 756.28L455.361 756.257L458.663 766.986Z" stroke="#002448" stroke-opacity="0.2"/>
<path d="M452.542 727.576L455.095 729.823L454.655 734.127L449.542 734.334L444.248 733.865L440.308 734.958L434.61 732.305L434.476 730.898L438.623 725.665L442.01 723.87L446.488 725.508L449.799 725.68L452.542 727.576Z" stroke="#002448" stroke-opacity="0.2"/>
<path d="M569.403 789.342L563.987 792.499L558.847 790.465L558.666 784.797L561.755 781.799L568.603 779.942L572.207 780.1L573.609 782.629L570.854 785.537L569.403 789.342ZM677.961 548.969L688.87 552.052L696.295 558.837L698.832 567.656L708.358 567.667L713.793 563.985L724.153 561.215L720.858 569.624L718.423 573.004L716.275 582.979L712.058 591.671L704.453 590.1L699.072 593.229L700.724 600.734L699.82 610.913L696.619 611.143L696.657 615.456L692.608 610.439L690.118 615.201L680.438 618.834L681.417 623.249L675.998 622.945L673.022 620.325L668.714 626.236L661.806 630.672L656.702 635.919L647.939 638.282L643.324 642.058L636.573 644.251L639.904 640.522L638.591 637.367L643.557 631.881L640.246 627.566L634.782 630.477L627.706 636.164L623.843 641.396L617.695 641.783L614.496 645.529L617.802 650.915L622.931 652.216L623.143 655.755L628.102 658.047L635.128 652.429L640.693 655.5L644.746 655.708L645.763 659.813L636.888 661.99L633.957 666.175L627.86 670.039L624.643 675.388L631.393 679.556L633.856 686.949L637.67 693.758L641.927 699.412L641.824 704.836L637.889 706.819L639.389 710.675L643.078 712.911L642.115 718.744L640.523 724.373L637.02 725.008L632.443 732.625L627.366 741.759L621.545 749.978L612.927 756.278L604.208 761.985L597.145 762.761L593.313 765.757L591.145 763.568L587.599 766.917L578.838 770.279L572.205 771.305L570.065 778.35L566.591 778.739L564.948 773.905L566.432 771.319L558.022 769.175L555.06 770.266L548.749 768.526L545.764 765.795L546.754 761.909L541.025 760.673L538.002 758.129L532.659 761.739L526.565 762.519L521.566 762.484L518.201 764.131L514.953 765.119L515.901 772.794L512.558 772.611L511.995 771.039L511.805 768.267L507.206 770.221L504.492 768.987L499.838 766.465L501.662 760.861L497.694 759.548L496.198 753.286L489.581 754.417L490.334 746.291L496.27 740.523L496.522 734.787L496.337 729.426L493.6 727.749L491.506 723.591L487.837 724.116L481.079 723.056L483.196 720.074L480.258 715.634L475.789 718.643L470.531 716.888L463.305 721.426L457.6 726.691L452.543 727.574L449.798 725.676L446.489 725.504L442.009 723.868L438.622 725.663L434.477 730.897L433.952 725.35L430.129 726.837L422.818 726.146L415.727 724.525L410.641 721.411L405.77 720.009L403.666 716.582L400.145 715.556L393.816 710.874L388.79 708.654L386.192 710.383L377.482 705.319L371.323 700.702L369.566 692.589L374.064 693.584L374.27 689.797L371.777 685.979L372.412 679.844L365.674 670.926L355.365 667.819L353.51 661.87L348.88 658.232L347.764 655.981L346.823 651.483L347.042 648.396L343.235 646.58L341.176 647.383L339.586 639.952L341.37 638.098L340.505 636.198L346.49 632.339L350.823 630.734L357.458 631.834L359.83 626.571L367.871 625.588L370.105 622.283L379.984 617.743L380.865 615.836L380.364 610.996L384.665 608.771L379.023 593.672L391.442 590.135L394.652 588.155L399.172 571.92L411.609 574.944L415.097 570.786L415.396 561.428L420.603 560.545L425.374 554.216L427.829 553.429L429.474 560.069L434.741 565.054L443.681 568.553L448.007 575.973L445.595 586.543L447.851 590.408L455.3 591.924L463.741 593.158L471.316 598.631L475.188 599.599L478.043 607.575L481.723 612.648L488.633 612.451L501.57 614.356L509.907 613.176L516.095 614.439L525.369 619.561L532.954 619.554L535.728 622.156L543.028 617.654L553.153 614.72L562.547 614.399L569.871 611.409L574.369 606.824L578.757 603.925L577.742 601.063L575.739 597.712L579.032 592.038L582.558 592.838L589.001 594.627L595.247 589.93L604.805 586.473L609.399 580.522L613.812 577.938L622.915 576.728L627.863 577.754L628.549 574.506L622.868 568.052L617.838 565.072L613.02 568.51L606.837 567.064L603.289 568.244L601.672 564.43L606.101 554.978L609.153 547.719L616.676 551.368L625.511 545.244L625.453 540.932L631.111 530.368L634.599 527.127L634.52 521.488L631.082 519.04L636.257 513.869L644.046 511.98L652.358 511.696L661.739 514.813L667.243 518.638L671.117 528.946L673.467 533.277L675.651 539.382L677.961 548.969Z" stroke="#002448" stroke-opacity="0.2"/>
<path d="M90.2619 672.825L94.4961 669.563L88.7975 671.852L84.2815 671.747L83.3761 673.592L82.9335 673.632L79.9556 673.913L81.42 676.97L84.4894 677.953L90.9147 674.868L90.7179 674.255L90.2619 672.825Z" stroke="#002448" stroke-opacity="0.2"/>
<path d="M1007.35 1008.88L1006.58 1012L1006.06 1012.35L1002.07 1013.95L998.068 1015.32L997.264 1012.89L1000.4 1011.56L1002.38 1011.2L1006.06 1009.18L1007.35 1008.88ZM994.308 1018.54L991.46 1017.73L989.041 1019.97L989.647 1022.85L993.103 1023.66L996.989 1022.76L998.024 1019.34L995.866 1017.46L994.308 1018.54Z" stroke="#002448" stroke-opacity="0.2"/>
<path d="M138.234 622.674L139.169 619.097L137.602 613.335L133.98 610.197L130.506 609.215L128.21 606.586L128.974 605.569L134.273 607.04L143.502 608.428L152.035 612.524L153.135 614.102L156.935 612.768L162.782 614.543L164.702 618.008L168.641 619.955L167.014 621.109L170.101 625.618L169.247 626.588L165.867 626.096L161.197 623.709L159.661 625.066L150.951 626.36L144.912 622.276L138.234 622.674Z" stroke="#002448" stroke-opacity="0.2"/>
<path d="M634.447 971.888L631.809 972.009L623.49 967.58L629.334 966.339L632.629 968.262L634.82 970.18L634.447 971.888ZM657.767 971.258L652.401 972.65L651.65 971.89L652.213 969.74L654.91 965.885L661.104 963.382L661.739 964.625L661.856 966.538L657.767 971.258ZM616.797 958.365L619.057 960.042L622.929 959.527L624.483 962.203L617.237 963.469L612.896 964.314L609.527 964.265L611.68 960.636L615.118 960.587L616.797 958.365ZM648.16 958.356L647.241 961.852L637.823 963.641L629.486 962.863L629.464 960.56L634.445 959.252L638.373 961.139L642.544 960.661L648.16 958.356ZM558.648 950.086L570.656 950.712L572.038 948.128L583.665 951.144L585.948 955.213L595.353 956.359L603.039 960.097L595.887 962.496L588.995 959.959L583.321 960.131L576.817 959.666L570.951 958.537L563.69 956.136L559.087 955.514L556.48 956.301L545.049 953.715L543.963 951.016L538.228 950.556L542.53 944.569L550.133 944.94L555.194 947.388L557.792 947.866L558.648 950.086ZM722.26 946.559L719.036 950.826L718.426 946.109L719.539 943.858L720.851 941.743L722.278 943.574L722.26 946.559ZM675.401 929.338L673.054 931.408L668.721 930.261L667.501 927.578L673.841 927.279L675.401 929.338ZM695.598 927.06L697.878 931.83L692.587 929.259L687.348 928.738L683.812 929.15L679.475 928.931L680.961 925.501L688.703 925.242L695.598 927.06ZM718.616 914.958L720.366 925.034L726.852 928.765L732.092 922.152L739.284 918.392L744.857 918.388L750.216 920.561L754.866 922.789L761.596 923.981L761.701 944.332L761.808 964.803L756.226 959.632L749.859 958.367L748.316 960.16L740.373 960.352L743.033 955.235L746.981 953.491L745.347 946.673L742.338 941.419L730.185 936.125L725.014 935.604L715.602 929.836L713.751 932.868L711.346 933.418L709.921 931.128L709.901 928.419L705.113 925.356L711.864 923.111L716.335 923.232L715.81 921.578L706.635 921.567L704.154 917.858L698.553 916.709L695.9 913.628L704.348 912.119L707.563 910.089L717.625 912.646L718.616 914.958ZM662.81 898.947L657.773 905.124L653.063 906.322L647.031 905.106L636.584 905.416L631.109 906.313L630.219 911.026L635.831 916.563L639.216 913.742L650.906 911.623L650.391 914.491L647.66 913.585L644.937 917.234L639.419 919.648L645.35 927.636L644.203 929.778L649.839 936.983L649.786 941.09L646.439 942.928L643.98 940.728L647.009 935.611L640.856 938.03L639.298 936.302L640.11 933.889L635.592 930.23L636.057 924.153L631.876 926.049L632.406 933.321L632.661 942.262L628.686 943.169L625.994 941.334L627.792 935.582L626.821 929.559L624.183 929.512L622.236 925.24L624.827 921.157L625.719 916.212L628.869 906.825L630.184 904.258L635.513 899.633L640.407 901.473L648.31 902.338L655.52 902.076L661.715 897.554L662.81 898.947ZM684.422 900.735L684.096 906.177L680.863 905.568L679.908 909.358L682.49 912.644L680.735 913.391L678.205 909.447L676.342 901.486L677.603 896.51L679.682 894.243L680.134 897.645L683.834 898.191L684.422 900.735ZM616.645 896.405L623.674 902.168L616.247 902.904L614.154 907.147L614.427 912.79L608.4 917.048L608.234 923.252L605.818 932.789L604.894 930.569L597.772 933.377L595.29 929.561L590.821 929.208L587.696 927.209L580.244 929.452L577.957 926.434L573.853 926.778L568.684 926.058L567.725 917.701L564.597 915.971L561.588 910.643L560.714 905.195L561.443 899.425L565.167 895.285L566.216 899.447L570.502 902.966L574.546 901.701L578.548 902.15L582.201 899L585.208 898.455L591.136 900.201L596.249 898.873L599.464 890.208L601.876 888.039L604.049 880.941L611.257 880.943L616.689 881.996L613.124 887.632L617.733 893.534L616.645 896.405ZM541.061 944.289L534.121 944.421L528.843 939.192L520.793 934.088L518.11 930.306L513.366 925.229L510.252 920.558L505.483 911.839L499.979 906.651L498.137 901.296L495.827 896.434L490.176 892.51L486.898 887.176L482.179 883.682L475.64 876.801L475.09 873.617L479.127 873.87L488.83 875.079L494.372 881.189L499.221 885.421L502.677 888.017L508.615 894.717L514.989 894.813L520.254 899.081L523.882 904.296L528.655 907.14L526.145 912.224L529.735 914.386L531.986 914.544L533.051 918.888L535.235 922.365L539.838 922.917L542.887 926.863L541.313 934.623L541.061 944.289Z" stroke="#002448" stroke-opacity="0.2"/>
<path d="M101.662 691.914L100.571 694.246L98.3017 693.222L96.9916 698.131L98.5654 698.956L96.9647 699.965L96.6943 701.89L99.6408 700.899L99.7883 703.738L96.6652 715.288L92.5449 702.869L94.3691 700.461L93.9422 700.045L95.5987 696.613L96.8708 691.038L97.7673 689.153L97.9395 689.077L100.039 689.091L100.615 687.785L102.297 687.687L102.393 690.734L101.543 691.863L101.662 691.914Z" stroke="#002448" stroke-opacity="0.2"/>
<path d="M365.671 670.927L372.409 679.845L371.775 685.977L374.267 689.795L374.062 693.582L369.564 692.588L371.321 700.703L377.48 705.319L386.192 710.383L382.213 713.649L379.78 720.336L385.852 723.023L391.763 726.493L399.939 730.443L408.53 731.351L412.145 734.912L416.99 735.574L424.531 737.199L429.751 737.083L430.468 734.322L429.643 729.871L430.129 726.839L433.951 725.353L434.477 730.899L434.611 732.306L440.31 734.959L444.249 733.866L449.543 734.335L454.656 734.128L455.096 729.824L452.543 727.577L457.6 726.696L463.305 721.429L470.531 716.891L475.789 718.646L480.258 715.637L483.196 720.074L481.078 723.059L487.839 724.116L488.311 726.797L486.113 728.089L486.629 732.411L482.149 731.143L474.034 735.976L474.224 739.954L470.766 745.753L470.446 749.102L467.651 754.74L462.753 753.184L462.509 760.222L461.094 762.527L461.756 765.39L458.664 766.987L455.362 756.258L453.632 756.28L452.608 760.617L449.176 757.103L451.11 753.226L453.916 752.831L456.804 747.032L453.191 745.856L447.376 745.958L441.412 745.013L440.86 740.206L437.866 739.864L432.901 736.862L430.688 741.572L435.212 745.227L431.293 747.792L429.903 750.293L433.759 752.124L432.695 756.236L434.866 761.335L435.843 766.891L434.944 769.341L430.679 769.258L422.952 770.649L423.312 775.674L419.966 779.609L410.945 784.067L403.929 791.815L399.217 795.947L392.97 800.221L392.962 803.213L389.838 804.813L384.191 807.136L381.262 807.48L379.385 812.41L380.688 820.778L381.021 826.09L378.365 832.153L378.336 842.94L375.092 843.246L372.239 848.068L374.147 850.149L368.43 851.936L366.32 856.219L363.805 858.028L357.871 852.15L354.969 843.304L352.564 836.91L350.366 833.901L347.037 827.78L345.481 819.772L344.397 815.757L338.696 806.886L336.101 794.263L334.225 785.853L334.247 777.829L333.031 771.583L323.91 775.58L319.492 774.782L311.303 766.665L314.317 764.23L312.466 761.579L305.113 755.822L309.287 751.268L323.081 751.286L321.837 745.391L318.314 741.89L317.601 736.544L313.499 733.41L320.407 726.044L327.686 726.58L334.243 719.144L338.171 711.876L344.258 704.613L344.16 699.408L349.508 695.154L344.446 691.501L342.269 686.462L340.049 679.876L343.121 676.61L352.631 678.461L359.617 677.334L365.671 670.927Z" stroke="#002448" stroke-opacity="0.2"/>
<path d="M162.47 667.207L166.581 669.519L167.055 673.99L163.9 676.617L162.447 682.514L166.789 689.626L174.468 693.693L177.694 699.288L176.668 704.578L178.669 704.576L178.732 708.441L182.199 712.235L178.481 711.882L174.267 711.28L169.668 718.166L158.014 717.596L140.339 703.084L130.999 697.96L123.449 695.966L120.923 686.932L134.799 679.11L137.169 669.897L136.577 664.261L140.008 662.345L143.221 657.471L145.913 656.253L153.203 657.265L155.405 659.26L158.41 657.938L162.47 667.207Z" stroke="#002448" stroke-opacity="0.2"/>
<path d="M215.758 657.715L221.266 656.197L225.724 651.687L229.916 651.918L232.668 650.44L237.126 651.171L244.058 655.175L249.064 656.033L256.227 662.953L260.899 663.232L261.449 669.729L258.894 679.223L257.173 684.703L259.902 685.81L257.22 689.894L259.272 695.805L259.764 700.466L264.512 701.7L265.026 706.386L259.341 712.937L262.442 716.706L264.966 721.012L270.96 724.132L271.132 730.341L274.132 731.476L274.648 734.7L265.608 738.297L263.247 746.334L251.454 744.253L244.62 742.666L237.546 741.767L234.87 733.236L231.87 731.993L227.054 733.245L220.732 736.623L213.071 734.309L206.744 728.921L200.71 726.916L196.522 720.193L191.897 710.641L188.523 711.81L184.54 709.42L182.199 712.235L178.732 708.441L178.669 704.575L176.668 704.578L177.694 699.288L174.468 693.692L166.789 689.626L162.447 682.514L163.9 676.617L167.055 673.99L166.581 669.519L162.47 667.207L158.41 657.936L154.98 651.629L156.208 649.17L154.251 639.977L158.544 637.67L159.536 640.722L162.704 644.435L167.003 645.501L169.273 645.264L176.666 639.327L179.015 638.73L180.869 641.102L178.707 645.079L182.617 649.257L184.175 648.859L186.158 654.699L192.103 656.337L196.458 660.263L205.369 661.609L215.159 659.543L215.758 657.715Z" stroke="#002448" stroke-opacity="0.2"/>
<path d="M100.572 694.246L101.663 691.914L108.647 694.845L120.923 686.931L123.449 695.965L122.255 697.076L109.7 700.756L115.948 708.035L113.876 709.262L112.843 711.679L108.061 712.674L106.561 715.261L103.852 717.46L96.8764 716.325L96.6663 715.287L99.7894 703.738L99.6419 700.899L100.57 698.748L100.572 694.246Z" stroke="#002448" stroke-opacity="0.2"/>
<path d="M721.72 681.148L722.52 683.728L718.99 688.255L716.419 685.859L713.204 687.596L711.541 691.946L707.457 689.831L707.506 686.292L710.973 681.814L714.539 682.686L717.115 679.518L721.72 681.148ZM761.447 658.159L759.084 664.377L760.177 668.246L756.911 673.648L748.903 677.229L737.883 677.694L728.952 686.288L724.74 683.408L724.481 677.768L713.578 679.438L706.16 682.988L698.823 683.131L705.179 688.638L700.996 701.182L696.943 704.251L693.911 701.416L695.449 694.797L691.483 692.646L688.937 687.547L694.861 685.244L698.15 680.518L704.454 676.605L709.053 671.39L721.53 669.103L728.232 670.672L734.792 656.883L738.97 660.619L748.165 652.767L751.731 649.689L755.672 639.89L754.597 630.724L757.246 625.508L763.91 623.983L767.326 635.403L767.141 641.971L761.342 650.024L761.447 658.159ZM779.837 600.188L784.246 602.041L788.679 598.35L790.072 608.07L780.774 610.413L775.285 618.826L765.428 613.051L762.019 622.266L755.046 622.392L754.183 614.028L757.284 607.462L763.982 606.986L765.809 594.956L767.662 588.05L775.028 597.254L779.837 600.188Z" stroke="#002448" stroke-opacity="0.2"/>
<path d="M526.515 841.195L523.967 837.891L520.796 831.32L519.312 823.607L523.327 818.275L531.431 817.046L537.307 817.969L542.48 820.486L545.317 816.055L550.87 818.423L552.323 822.702L551.552 830.361L541.015 835.259L543.767 839.107L537.188 839.567L531.762 842.12L526.515 841.195Z" stroke="#002448" stroke-opacity="0.2"/>
<path d="M696.655 615.454L697.531 616.932L695.15 616.426L692.43 619.277L690.558 622.125L690.795 628.09L687.556 629.914L686.44 631.362L684.077 633.784L679.903 635.127L677.183 637.311L676.986 640.817L676.255 641.709L678.75 643.017L682.3 646.531L681.397 648.46L678.727 648.986L674.299 649.37L671.855 652.947L669.058 652.666L668.665 653.381L665.622 651.879L664.864 653.363L663.029 654.018L662.808 652.532L661.185 651.807L659.499 650.544L661.214 647.041L662.691 646.102L662.135 644.64L663.724 640.3L663.315 638.977L659.655 638.096L656.7 635.916L661.804 630.669L668.712 626.234L673.02 620.323L675.996 622.943L681.412 623.247L680.436 618.832L690.116 615.201L692.606 610.437L696.655 615.454Z" stroke="#002448" stroke-opacity="0.2"/>
<path d="M682.299 646.531L687.709 655.88L689.261 660.955L689.31 669.864L686.947 674.071L681.271 675.534L676.261 678.681L670.613 679.33L669.914 675.198L671.074 669.462L668.304 661.411L672.961 660.099L668.664 653.381L669.057 652.665L671.854 652.947L674.298 649.37L678.726 648.986L681.396 648.46L682.299 646.531Z" stroke="#002448" stroke-opacity="0.2"/>
<path d="M178.482 711.88L179.789 715.05L179.228 716.684L181.247 722.059L176.814 722.242L175.253 718.853L169.669 718.164L174.267 711.279L178.482 711.88Z" stroke="#002448" stroke-opacity="0.2"/>
<path d="M322.575 616.543L318.98 618.101L310.713 623.934L307.97 629.856L305.636 629.91L303.917 625.995L295.947 625.727L294.67 618.888L291.616 618.83L292.084 610.332L284.581 604.057L273.83 604.732L266.479 605.986L260.492 598.166L255.364 594.848L245.648 588.506L244.476 587.732L228.339 592.979L228.588 624.562L225.371 624.969L220.984 618.414L216.748 616.053L209.632 617.808L206.862 620.603L206.511 618.557L208.051 615.04L206.855 612.085L199.592 609.176L196.761 601.432L193.301 599.23L193.093 596.378L199.189 597.211L199.431 590.766L204.76 589.322L210.238 590.65L211.367 581.915L210.249 576.295L203.976 576.738L198.646 574.504L191.389 578.522L185.541 580.424L182.357 578.958L182.994 574.258L178.999 568.088L174.347 568.347L169.026 562.005L172.644 554.817L170.813 552.863L175.816 542.2L182.261 547.86L183.041 540.722L195.981 529.881L205.773 529.62L219.589 536.555L227.011 540.559L233.663 536.382L243.6 536.183L251.617 541.308L253.439 538.379L262.243 538.806L263.814 534.098L253.656 527.174L259.672 522.204L258.498 519.401L264.516 516.709L259.991 509.537L262.864 505.92L286.32 502.202L289.381 499.542L305.066 495.538L310.702 490.995L321.967 493.36L323.941 504.565L330.485 501.961L338.535 505.607L338.017 511.382L344.028 510.782L359.738 500.736L357.444 504.098L365.443 512.278L379.449 538.158L382.789 532.942L391.426 538.676L400.433 536.128L403.894 537.914L406.909 543.606L411.291 545.502L413.961 549.622L422.036 548.327L425.36 554.216L420.589 560.545L415.382 561.426L415.085 570.784L411.598 574.942L399.163 571.918L394.64 588.153L391.432 590.133L379.013 593.67L384.656 608.77L380.355 610.994L380.856 615.834L376.995 614.593L373.849 611.542L364.549 610.65L354.156 610.415L351.877 611.356L342.951 607.759L339.392 609.534L338.419 614.558L328.104 611.631L323.979 612.832L322.575 616.543Z" stroke="#002448" stroke-opacity="0.2"/>
<path d="M102.298 687.688L100.617 687.786L100.04 689.092L97.9407 689.078L100.174 682.984L103.29 677.665L103.409 677.399L106.228 677.786L107.254 680.753L103.836 683.59L102.298 687.688Z" stroke="#002448" stroke-opacity="0.2"/>
<path d="M390.433 860.81L389.489 867.342L386.862 869.124L381.41 870.557L378.425 865.576L377.314 856.549L380.153 846.314L384.484 849.822L387.403 854.259L390.433 860.81Z" stroke="#002448" stroke-opacity="0.2"/>
<path d="M501.728 779.377L498.073 782.252L493.647 782.55L490.79 789.681L488.143 790.875L491.174 796.625L495.151 801.387L497.718 805.673L495.424 811.302L493.26 812.493L494.756 815.726L498.936 820.832L499.654 824.409L499.556 827.378L502.006 833.193L498.563 839.117L495.527 845.625L494.923 840.926L496.848 836.066L494.74 832.301L495.25 825.348L492.706 822.031L490.662 814.34L489.529 806.176L486.819 800.792L482.69 804.054L475.565 808.677L472.051 808.1L468.167 806.58L470.327 798.523L469.019 792.397L464.105 784.808L464.872 782.427L461.203 781.577L456.757 776.158L456.348 770.786L458.534 771.798L458.664 766.987L461.756 765.391L461.094 762.527L462.509 760.222L462.753 753.185L467.651 754.741L470.446 749.102L470.765 745.754L474.224 739.954L474.034 735.977L482.149 731.144L486.629 732.411L486.113 728.09L488.31 726.798L487.839 724.117L491.505 723.592L493.6 727.75L496.334 729.429L496.519 734.79L496.267 740.529L490.331 746.297L489.578 754.423L496.195 753.29L497.691 759.552L501.659 760.864L499.835 766.469L504.489 768.991L507.204 770.227L511.8 768.273L511.99 771.045L506.656 775.391L505.321 777.841L501.728 779.377Z" stroke="#002448" stroke-opacity="0.2"/>
<path d="M427.815 553.428L434.424 551.765L446.384 543.404L455.917 538.776L461.37 541.801L467.909 541.946L472.098 546.513L478.354 546.862L487.417 549.299L493.511 542.518L490.965 536.706L497.457 526.29L504.479 530.473L510.169 531.651L517.54 534.227L518.736 541.651L527.638 545.767L533.564 543.958L541.494 542.677L547.774 543.967L553.913 548.644L557.718 553.569L563.531 553.469L571.427 555.027L577.188 552.652L585.442 551.061L594.621 544.222L598.382 545.277L601.664 548.532L609.142 547.725L606.09 554.984L601.661 564.434L603.275 568.248L606.823 567.068L613.007 568.514L617.825 565.076L622.855 568.056L628.536 574.51L627.849 577.759L622.904 576.73L613.799 577.94L609.388 580.524L604.793 586.475L595.236 589.931L588.99 594.628L582.547 592.84L579.021 592.04L575.728 597.714L577.731 601.065L578.746 603.926L574.358 606.826L569.86 611.411L562.536 614.4L553.142 614.722L543.014 617.653L535.717 622.156L532.941 619.553L525.358 619.56L516.082 614.438L509.896 613.175L501.557 614.356L488.62 612.453L481.709 612.65L478.032 607.577L475.175 599.6L471.302 598.632L463.728 593.16L455.287 591.926L447.837 590.408L445.582 586.542L447.994 575.974L443.67 568.554L434.73 565.056L429.461 560.068L427.815 553.428Z" stroke="#002448" stroke-opacity="0.2"/>
<path d="M511.334 869.077L511.826 872.292L515.967 871.545L518.014 868.974L519.456 869.56L523.159 873.338L525.79 877.525L526.148 881.731L525.481 884.57L526.09 886.714L526.548 890.405L528.754 892.122L531.22 897.632L531.099 899.738L526.655 900.154L520.726 895.54L513.311 890.595L512.577 887.418L508.953 883.246L508.088 878.075L505.826 874.668L506.514 870.112L505.133 867.456L506.222 866.338L511.334 869.077ZM621.298 879.875L616.683 882.003L611.251 880.95L604.043 880.948L601.87 888.046L599.458 890.215L596.243 898.88L591.13 900.208L585.201 898.462L582.195 899.007L578.542 902.157L574.54 901.708L570.496 902.973L566.21 899.454L565.161 895.292L569.756 897.427L574.6 896.262L575.861 890.986L578.535 889.81L586.049 888.46L590.545 883.526L593.623 879.578L596.478 882.812L597.795 880.684L600.79 880.883L601.157 876.893L601.439 873.814L606.265 869.461L609.427 864.563L611.962 864.543L615.181 867.715L615.467 870.438L619.596 872.182L624.828 874.065L624.381 876.513L620.175 876.823L621.298 879.875Z" stroke="#002448" stroke-opacity="0.2"/>
<path d="M430.129 726.84L429.643 729.871L430.468 734.323L429.751 737.084L424.531 737.2L416.99 735.575L412.145 734.913L408.53 731.351L399.939 730.444L391.763 726.493L385.852 723.024L379.78 720.337L382.213 713.65L386.192 710.384L388.79 708.655L393.815 710.875L400.145 715.557L403.666 716.585L405.772 720.012L410.641 721.416L415.729 724.528L422.82 726.149L430.129 726.84Z" stroke="#002448" stroke-opacity="0.2"/>
<path d="M854.867 950.352L853.112 950.98L850.398 948.573L847.653 944.595L846.302 939.831L847.172 939.225L847.845 941.085L849.745 942.505L852.783 946.473L855.743 948.599L854.867 950.352ZM830.441 941.948L827.156 942.463L826.168 944.218L822.741 945.74L819.524 947.204L816.195 947.198L811.055 945.38L807.474 943.634L807.993 941.698L813.613 942.612L817.043 942.123L817.988 939.125L818.887 938.971L819.495 942.29L823.072 941.812L824.84 939.673L828.339 937.444L827.648 933.764L831.404 933.645L832.669 934.669L832.542 938.134L830.441 941.948ZM800.407 953.918L806.005 958.04L810.074 964.718L813.665 964.508L813.412 967.302L818.252 968.376L816.372 969.567L823.032 972.228L822.336 974.059L818.185 974.501L816.645 972.86L811.259 972.149L804.928 971.197L800.052 967.164L796.495 963.694L793.238 958.183L785.062 955.436L779.752 957.229L775.925 959.306L776.723 963.951L771.8 966.12L768.29 965.065L761.807 964.801L761.7 944.329L761.595 923.978L772.471 928.273L784.06 931.843L788.38 935.04L791.872 938.181L792.824 941.863L803.269 945.731L804.794 949.053L799.026 949.728L800.407 953.918ZM837.693 935.834L835.732 937.499L834.552 933.813L833.094 931.401L830.255 929.355L826.687 926.695L822.162 924.862L823.904 923.357L827.288 925.103L829.419 926.473L832.052 927.969L834.561 930.589L836.942 932.588L837.693 935.834Z" stroke="#002448" stroke-opacity="0.2"/>
<path d="M669.931 855.201L670.568 859.38L670.937 862.903L668.802 868.639L666.513 862.248L663.582 865.431L665.585 870.048L663.788 872.981L656.41 869.348L654.649 864.812L656.56 861.83L652.59 858.859L650.62 861.463L647.671 861.222L643.032 864.723L641.995 862.885L644.456 857.591L648.405 855.82L651.823 853.446L654.038 856.297L658.805 854.573L659.826 851.763L664.257 851.595L663.884 846.713L668.966 849.708L669.491 852.883L669.931 855.201ZM654.924 843.435L652.67 845.514L650.707 849.505L648.738 851.372L644.877 847.008L646.167 845.315L647.741 843.545L648.434 839.612L651.89 839.239L650.882 843.504L655.52 837.386L654.924 843.435ZM620.584 849.518L612.246 855.499L615.32 851.092L619.847 847.195L623.611 842.82L626.898 836.52L628.013 841.694L623.875 845.179L620.584 849.518ZM641.765 833.198L645.529 835.168L649.518 835.159L649.395 837.813L646.493 840.506L642.511 842.409L642.29 839.465L642.735 836.228L641.765 833.198ZM664.452 831.472L666.213 838.57L661.376 836.887L661.508 839.018L663.043 842.928L660.061 844.345L659.802 839.892L657.913 839.563L656.933 835.72L660.62 836.228L660.539 833.82L656.708 828.955L662.726 829.096L664.452 831.472ZM639.534 825.684L637.87 831.2L635.188 828.018L631.986 823.147L637.356 823.382L639.534 825.684ZM638.241 790.489L642.107 792.362L644.038 790.654L644.608 792.322L643.589 795.038L645.728 799.72L644.079 805.123L640.383 807.272L639.397 812.485L640.799 817.614L644.121 818.322L646.893 817.562L654.722 821.121L654.126 824.609L656.171 826.145L655.518 829.087L650.633 825.953L648.317 822.59L646.703 824.94L642.713 821.106L637.018 822.054L633.898 820.636L634.217 817.983L636.176 816.346L634.304 814.857L633.495 817.178L630.401 813.478L629.462 810.668L629.23 804.466L631.754 806.601L632.402 796.418L634.445 790.48L638.241 790.489Z" stroke="#002448" stroke-opacity="0.2"/>
<path d="M348.875 658.23L353.507 661.867L355.362 667.816L365.671 670.926L359.617 677.333L352.63 678.46L343.12 676.609L340.048 679.875L342.268 686.461L344.446 691.5L349.507 695.153L344.16 699.408L344.258 704.612L338.171 711.876L334.243 719.144L327.686 726.579L320.406 726.043L313.498 733.409L317.601 736.544L318.314 741.889L321.837 745.39L323.08 751.285L309.286 751.267L305.112 755.821L300.518 754.098L298.649 749.182L293.807 743.941L282.258 745.238L272.072 745.365L263.246 746.333L265.607 738.296L274.648 734.699L274.131 731.475L271.131 730.34L270.959 724.131L264.965 721.01L262.441 716.705L259.34 712.935L269.843 716.595L276.112 715.524L279.859 716.436L281.129 714.867L285.495 715.497L293.639 712.513L293.861 706.365L297.353 702.245L302.021 702.256L302.707 700.213L307.498 699.256L309.816 699.94L312.264 697.874L311.92 693.448L314.583 688.967L318.571 687.081L316.107 682.12L322.07 682.354L323.793 679.64L323.532 676.73L326.655 673.533L325.937 669.723L324.457 666.459L328.115 663.088L334.846 661.454L342.04 660.548L345.226 659.106L348.875 658.23Z" stroke="#002448" stroke-opacity="0.2"/>
<path d="M100.572 694.246L100.569 698.748L99.6416 700.899L96.6951 701.889L96.9655 699.965L98.5662 698.956L96.9924 698.131L98.3025 693.222L100.572 694.246Z" stroke="#002448" stroke-opacity="0.2"/>
<path d="M196.254 748.556L195.838 743.546L197.528 739.915L199.24 739.169L201.136 741.342L201.246 745.386L199.887 749.43L198.147 749.917L196.254 748.556Z" stroke="#002448" stroke-opacity="0.2"/>
<path d="M1069.38 354.178L1063.16 360.824L1052.89 362.385L1052.73 376.834L1050.22 379.845L1044.35 379.414L1039.57 374.352L1031.24 370.066L1029.84 363.606L1023.47 361.142L1016.34 363.098L1012.94 357.802L1014.3 352.097L1006.79 355.752L1009.62 362.892L1006.06 369.226L1006.02 369.306L997.958 375.756L989.834 374.687L995.488 382.382L999.219 394.01L1002.11 397.739L1002.84 403.399L1001.22 406.981L989.539 404.037L972.018 414.122L966.445 415.66L956.854 424.817L947.755 432.653L945.452 438.36L936.485 429.641L920.152 439.52L917.302 434.875L911.263 440.227L902.88 438.521L900.861 446.639L893.34 458.304L893.566 463.082L900.704 465.706L899.864 482.379L894.044 482.795L891.359 492.082L893.968 496.786L883.007 502.301L880.832 514.385L871.485 516.922L869.607 527.347L860.57 536.698L858.254 529.801L855.569 514.838L852.073 491.036L855.086 475.489L860.374 468.624L860.7 463.167L870.441 460.529L881.639 445.369L892.428 432.565L903.696 422.349L908.735 403.645L901.12 404.788L897.353 415.792L881.456 430.012L876.32 414.055L860.139 418.523L844.449 439.896L849.625 447.446L835.634 450.618L825.943 451.863L826.397 443.042L816.654 441.166L808.887 447.206L789.722 445.103L769.102 448.724L748.796 471.818L724.775 498.147L734.649 499.511L737.732 506.22L743.822 508.579L747.833 503.262L754.71 503.958L763.759 515.563L763.972 524.335L759.073 534.422L758.544 546.195L755.716 561.505L746.268 574.947L744.169 581.245L735.66 591.668L727.216 601.79L723.167 606.894L714.815 611.913L710.86 612.023L706.923 607.869L698.508 614.111L697.529 616.923L696.651 615.446L696.612 611.133L699.814 610.903L700.717 600.724L699.065 593.217L704.446 590.089L712.052 591.661L716.268 582.969L718.416 572.994L720.851 569.615L724.146 561.207L713.787 563.977L708.352 567.659L698.826 567.648L696.288 558.829L688.864 552.044L677.954 548.961L675.636 539.383L673.452 533.278L671.102 528.947L667.228 518.639L661.723 514.814L652.343 511.697L644.031 511.981L636.242 513.87L631.066 519.041L634.505 521.489L634.583 527.128L631.096 530.369L625.437 540.933L625.495 545.245L616.66 551.368L609.137 547.72L601.657 548.527L598.375 545.27L594.615 544.214L585.435 551.053L577.183 552.645L571.422 555.019L563.526 553.461L557.714 553.561L553.909 548.636L547.77 543.96L541.487 542.67L533.558 543.951L527.633 545.759L518.729 541.643L517.535 534.217L510.164 531.644L504.475 530.465L497.452 526.282L490.96 536.698L493.507 542.511L487.412 549.294L478.349 546.857L472.092 546.508L467.902 541.943L461.363 541.798L455.912 538.771L446.378 543.401L434.417 551.76L427.808 553.423L425.354 554.21L422.029 548.321L413.954 549.616L411.287 545.495L406.906 543.6L403.887 537.91L400.427 536.124L391.419 538.672L382.785 532.938L379.445 538.154L365.437 512.274L357.44 504.094L359.732 500.732L344.024 510.778L338.013 511.378L338.531 505.603L330.479 501.957L323.935 504.563L321.961 493.359L310.696 490.991L305.06 495.536L289.375 499.54L286.314 502.198L262.858 505.916L259.985 509.533L264.51 516.705L258.492 519.397L259.665 522.2L253.649 527.17L263.808 534.096L262.239 538.804L253.435 538.377L251.615 541.306L243.598 536.18L233.661 536.379L227.008 540.555L219.587 536.551L205.769 529.616L195.977 529.877L183.037 540.718L182.257 547.856L175.812 542.196L170.811 552.86L172.642 554.813L169.024 562.001L174.345 568.343L178.998 568.084L182.993 574.254L182.358 578.954L185.541 580.42L182.684 585.766L176.608 587.241L170.377 596.38L176.073 604.641L175.456 610.422L182.302 620.384L178.559 623.751L177.484 625.864L174.71 625.298L170.402 620.232L168.64 619.95L164.699 618.003L162.78 614.538L156.934 612.763L153.134 614.098L152.036 612.519L143.5 608.426L134.272 607.035L128.973 605.564L128.209 606.581L120.217 599.262L113.065 595.96L107.65 590.776L112.213 589.354L117.415 581.855L113.91 578.267L123.147 574.541L122.982 572.531L117.355 574.013L117.552 569.917L120.782 567.326L126.847 566.642L127.833 563.523L126.447 558.321L128.994 553.329L128.92 550.505L119.68 547.355L116.016 547.46L112.148 542.893L107.339 544.442L99.3782 540.995L99.5147 539.055L97.2858 534.749L92.2869 534.266L91.7682 531.154L93.3332 529.113L89.327 523.356L82.8281 524.344L80.9233 523.832L79.3405 526.151L76.9998 525.739L75.4594 519.173L73.9883 515.73L75.1957 514.758L80.2526 515.12L82.6916 512.835L80.8853 510.034L76.6577 508.174L77.0356 506.258L74.4848 504.313L70.5545 497.264L71.898 494.327L71.2855 489.167L65.1578 486.522L61.8692 487.848L60.9794 485.084L54.3797 482.277L52.3655 475.594L51.8312 470.023L48.8109 467.354L51.4959 463.645L49.6357 452.552L54.0959 445.548L53.1524 443.404L60.2773 436.538L53.7091 430.538L67.1295 413.983L72.951 406.263L75.3096 399.324L66.0319 389.809L68.5939 380.543L62.9512 369.691L67.1721 356.805L59.8816 339.016L65.6652 326.769L56.0655 315.613L56.9798 303.532L62.0435 301.914L72.7097 294.787L79.1773 288.498L89.4745 299.363L106.64 303.557L130.324 322.886L135.135 330.729L135.548 341.451L128.589 349.711L118.354 353.838L90.371 341.96L85.7679 343.972L95.9869 355.367L96.3871 362.418L96.7962 377.516L104.867 381.911L109.765 385.615L110.574 378.669L106.798 372.407L110.789 366.807L125.942 375.971L131.22 372.409L127.002 361.506L141.611 346.434L147.397 347.337L153.25 352.769L156.901 342.014L151.674 332.439L154.743 322.589L150.136 312.099L167.67 317.558L171.251 326.91L163.315 328.94L163.357 337.967L168.291 343.418L177.976 339.973L179.51 329.664L192.604 321.784L214.479 307.156L219.205 308.01L213.026 318.383L220.801 320.138L225.293 314.362L237.041 313.89L246.35 306.752L253.493 317.082L260.616 305.71L254.047 295.477L257.307 289.524L275.822 294.985L284.499 300.548L307.215 320.219L311.407 311.332L305.035 302.142L304.852 298.393L297.298 296.644L299.366 288.089L296.012 273.577L295.822 267.458L307.391 249.596L311.505 230.774L316.166 226.576L332.761 232.196L334.069 243.783L328.127 260.065L332.026 266.278L334.042 279.553L332.618 304.308L339.533 314.882L336.843 326.078L324.565 348.877L331.731 351.167L334.223 345.546L341.12 341.489L342.783 333.545L348.209 325.745L344.556 316.222L347.483 304.858L340.628 303.418L339.122 293.541L344.123 275.035L335.98 259.312L347.199 245.804L345.75 231.007L348.875 230.524L352.169 242.124L349.698 261.5L356.405 265.059L353.548 250.812L364.038 242.811L377.047 241.72L388.629 253.3L383.056 236.26L382.432 213.274L393.333 208.755L408.41 209.748L421.991 206.795L416.899 194.765L424.153 179.08L431.354 178.409L443.543 166.084L460.093 162.699L462.186 155.651L478.644 153.232L483.773 159.058L497.841 145.114L509.357 145.559L511.083 133.849L517.075 121.924L531.872 110.048L542.623 119.456L534.088 126.456L548.288 130.741L549.981 144.231L555.708 137.652L574.034 138.016L588.163 151.079L593.195 160.806L591.635 173.893L584.7 181.141L568.228 194.369L563.519 201.253L571.293 204.456L580.566 210.162L586.206 205.892L589.406 220.184L592.158 214.463L602.18 210.942L622.292 214.622L623.821 224.852L650.027 228.049L650.384 211.342L663.686 215.236L673.695 215.116L683.816 226.602L686.702 240.101L682.993 248.677L690.865 264.286L700.724 272.095L706.771 251.576L716.827 260.51L727.509 255.198L739.641 261.27L744.258 255.737L754.513 258.514L749.988 239.739L758.264 230.647L814.877 244.197L820.213 256.168L836.623 271.042L861.934 267.414L874.413 270.575L879.631 278.395L878.869 291.844L886.591 296.955L894.981 293.286L906.099 292.815L917.932 296.336L929.812 294.353L940.731 309.989L948.5 304.438L943.429 293.094L946.221 285.006L966.219 290.116L979.257 289.03L997.285 297.621L1006.06 305.312L1021.42 318.408L1037.85 334.82L1037.31 344.739L1041.54 348.64L1040.09 337.136L1057.1 339.523L1069.38 354.178ZM784.501 556.495L778.195 539.316L775.608 529.236L775.769 519.184L773.598 509.117L771.969 502.075L769.178 503.58L771.667 508.509L765.872 513.352L765.317 527.427L768.991 537.288L768.716 550.371L767.265 557.608L767.98 567.751L767.28 576.727L768.443 584.328L772.552 577.322L777.303 582.788L777.477 576.448L771.369 566.993L775.226 553.34L784.501 556.495ZM17.6419 495.049L11.0782 493.135L2.42851 496.674L1 501.429L8.71946 502.648L20.2463 502.487L19.7434 499.741L20.4118 496.775L17.6419 495.049ZM1006.06 271.223L1014.25 270.061L1020.71 265.444L1021.24 262.788L1012.17 257.166L1006.86 257.123L1006.06 257.952L998.07 266.101L999.188 272.196L1006.06 271.223ZM760.415 210.662L754.468 219.415L755.566 220.573L768.412 222.996L777.915 222.844L777.157 217.101L768.253 208.583L760.415 210.662ZM815.353 189.361L822.599 179.865L806.869 173.437L795.183 169.679L793.683 177.694L805.333 187.233L815.353 189.361ZM759.176 185.574L782.281 186.236L787.211 168.027L764.553 154.455L748 153.31L739.731 158.184L736.362 175.514L748.781 191.192L759.176 185.574ZM206.713 243.582L200.303 247.959L201.22 258.762L212.565 264.011L214.229 272.547L234.709 275.01L238.411 273.349L226.422 257.463L225.147 240.66L234.973 220.22L244.316 198.268L263.788 175.536L282.931 163.603L305.142 150.77L309.354 142.485L304.997 131.694L292.797 135.28L282.062 145.322L261.199 150.29L240.504 166.853L226.484 179.929L228.181 190.817L213.173 211.002L218.937 213.73L206.502 232.22L206.713 243.582ZM536.408 91.6806L538.27 78.8928L522.382 60.2411L517.674 58.039L512.523 61.8306L501.072 103.422L536.408 91.6806ZM169.255 26.1479L176.044 34.8132L183.37 28.7926L184.245 22.714L189.881 19.8703L198.295 14.8737L200.721 9.00743L191.423 0.407006L185.514 6.897L181.915 16.1189L180.634 5.72554L171.11 6.19726L158.873 13.2439L172.823 14.4087L169.255 26.1479ZM462.677 55.3138L473.08 68.1239L490.54 77.5179L504.217 73.4871L505.762 43.0313L491.329 7.17198L479.15 -13L465.59 -3.81384L449.315 22.6425L457.866 29.9529L462.677 55.3138Z" stroke="#002448" stroke-opacity="0.2"/>
<path d="M145.914 804.57L145.1 801.797L143.209 799.835L142.726 797.232L139.488 794.889L136.148 789.387L134.38 784.015L130.045 779.457L127.249 778.366L123.097 772.012L122.373 767.353L122.639 763.36L119.044 755.844L116.104 753.184L112.719 751.771L110.658 747.843L111 746.289L109.259 742.712L107.427 741.167L104.98 735.999L101.163 730.358L97.9664 725.52L94.8455 725.554L95.8203 721.666L96.0974 719.176L96.8754 716.325L103.851 717.461L106.56 715.261L108.06 712.674L112.842 711.68L113.875 709.263L115.948 708.036L109.699 700.756L122.254 697.077L123.448 695.965L130.998 697.96L140.338 703.084L158.013 717.595L169.667 718.165L175.252 718.854L176.812 722.243L181.245 722.06L183.7 728.156L186.783 729.764L187.858 732.227L192.131 735.165L192.511 738.04L191.887 740.351L192.678 742.679L194.48 744.613L195.316 746.873L196.253 748.556L198.147 749.918L199.886 749.43L201.075 752.046L201.315 753.624L203.718 760.51L222.56 763.917L223.823 762.491L226.695 767.264L222.517 780.615L203.713 787.226L185.638 789.75L179.788 792.703L175.296 799.568L172.37 800.655L170.803 798.482L168.4 798.808L162.341 798.156L161.192 797.503L153.957 797.653L152.258 798.243L149.683 796.544L148.024 799.752L148.666 802.497L145.914 804.57Z" stroke="#002448" stroke-opacity="0.2"/>
<path d="M893.976 973.429L895.729 975.606L891.349 975.566L888.968 971.669L892.713 973.201L893.976 973.429ZM886.035 969.57L883.592 969.711L879.749 969.072L878.436 968.097L878.83 965.591L882.968 966.583L885.009 967.909L886.035 969.57ZM891.224 967.846L890.279 969.011L885.633 963.541L884.33 959.778H886.46L888.716 964.817L891.224 967.846ZM879.91 959.885L880.176 961.151L875.264 958.481L871.832 956.223L869.481 954.131L870.415 953.491L873.297 954.998L878.439 957.889L879.91 959.885ZM865.264 953.666L864.015 954.024L861.274 952.593L858.698 950.015L859.022 948.971L862.767 951.62L865.264 953.666Z" stroke="#002448" stroke-opacity="0.2"/>
<path d="M120.922 686.932L108.646 694.846L101.662 691.915L101.544 691.864L102.393 690.735L102.297 687.687L103.835 683.59L107.253 680.753L106.227 677.786L103.408 677.399L102.822 671.569L104.356 668.412L106.035 666.722L107.714 665.029L108.054 660.695L110.106 662.21L117.007 660.042L120.343 661.511L125.498 661.486L132.713 658.557L136.091 658.689L143.22 657.471L140.007 662.344L136.576 664.26L137.168 669.896L134.799 679.109L120.922 686.932Z" stroke="#002448" stroke-opacity="0.2"/>
<path d="M520.795 831.321L515.168 828.394L509.807 828.513L510.726 823.49L505.204 823.528L504.708 830.554L501.325 839.841L499.289 845.434L499.718 850.004L503.8 850.203L506.344 855.953L507.471 861.394L510.967 864.989L514.766 865.718L518.014 868.971L515.966 871.542L511.826 872.291L511.334 869.076L506.219 866.331L505.13 867.449L502.653 865.043L501.58 861.936L498.251 858.39L495.213 855.405L494.182 859.101L492.995 855.609L493.679 851.678L495.526 845.624L498.562 839.117L502.005 833.192L499.555 827.377L499.653 824.408L498.935 820.831L494.755 815.725L493.259 812.493L495.423 811.301L497.717 805.672L495.15 801.386L491.173 796.624L488.142 790.874L490.789 789.68L493.646 782.549L498.072 782.251L501.728 779.376L505.32 777.841L508.032 779.891L508.392 783.87L512.626 784.174L511.086 791.113L511.233 796.984L517.84 793.081L519.718 794.237L523.389 794.046L524.652 791.766L529.391 792.216L534.16 797.532L534.551 803.959L539.626 809.609L539.346 815.07L537.305 817.97L531.43 817.047L523.326 818.276L519.311 823.608L520.795 831.321Z" stroke="#002448" stroke-opacity="0.2"/>
<path d="M322.9 633.339L320.606 635.857L313.783 634.493L313.188 639.179L319.987 638.55L327.729 641.175L339.582 639.952L341.172 647.381L343.231 646.579L347.038 648.394L346.819 651.481L347.76 655.979L341.295 655.966L336.978 655.387L333.072 658.899L330.291 659.675L328.104 661.314L325.625 658.758L326.209 652.15L324.313 651.772L324.995 649.349L321.601 647.538L318.903 650.305L318.239 653.498L317.275 654.656L313.528 654.49L311.507 658.088L309.392 656.574L304.856 659.091L302.94 658.137L306.464 650.158L305.109 644.216L300.51 642.3L302.136 638.743L307.369 639.123L310.347 634.631L312.341 629.371L320.723 627.453L319.417 631.274L320.313 633.552L322.9 633.339Z" stroke="#002448" stroke-opacity="0.2"/>
<path d="M661.103 963.384L661.843 961.897L667.237 960.482L671.61 960.267L673.571 959.483L675.943 960.261L673.638 961.969L667.103 964.727L661.854 966.54L661.74 964.627L661.103 963.384Z" stroke="#002448" stroke-opacity="0.2"/>
<path d="M261.45 669.727L260.9 663.231L256.227 662.951L249.064 656.032L244.059 655.174L237.126 651.17L232.668 650.439L229.916 651.916L225.724 651.686L221.267 656.195L215.758 657.713L214.593 652.144L215.503 643.81L210.616 641.085L212.224 635.534L208.063 635.06L209.449 628.143L215.362 630.166L220.869 627.526L216.304 622.543L214.506 617.747L209.46 619.891L208.821 626.001L206.863 620.602L209.633 617.807L216.748 616.052L220.985 618.413L225.371 624.968L228.588 624.561L235.66 624.447L234.631 620.244L239.986 617.349L245.266 612.429L253.712 616.904L254.383 623.593L256.782 625.295L263.558 624.912L265.662 626.419L268.745 634.894L275.912 640.499L280.001 644.288L286.556 648.203L294.895 651.601L294.722 656.428L292.833 656.184L289.876 654.08L288.892 656.879L283.609 658.395L282.357 664.621L278.825 666.973L273.877 668.133L272.57 671.614L267.841 672.634L261.45 669.727Z" stroke="#002448" stroke-opacity="0.2"/>
<path d="M109.144 624.34L118.135 627.548L125.437 626.272L130.834 627.009L138.236 622.672L144.914 622.277L150.952 626.361L152.016 629.27L151.413 633.267L156.074 635.297L158.542 637.673L154.249 639.98L156.206 649.173L154.978 651.633L158.408 657.941L155.403 659.263L153.201 657.268L145.911 656.256L143.219 657.474L136.09 658.69L132.712 658.558L125.497 661.487L120.34 661.512L117.004 660.045L110.103 662.211L108.053 660.698L107.713 665.031L106.034 666.723L104.355 668.411L102.05 664.91L104.424 661.995L100.601 662.656L95.3588 660.866L91.0486 665.335L81.5361 666.204L76.4612 662.044L69.7052 661.782L68.261 665.001L63.9282 665.92L57.8675 661.791L51.0243 661.932L47.3109 654.143L42.7324 649.752L45.7817 643.542L41.8091 639.69L48.7618 631.901L58.4152 631.572L61.0488 625.299L72.996 626.397L80.5322 620.996L87.836 618.624L98.207 618.445L109.144 624.34ZM48.2119 629.676L42.9805 634.094L41.0088 630.276L41.096 628.574L42.5848 627.649L44.5254 622.451L41.4715 620.238L47.8565 617.593L53.2532 618.722L53.9977 621.944L59.4682 624.635L58.328 626.667L50.8835 627.123L48.2119 629.676Z" stroke="#002448" stroke-opacity="0.2"/>
<path d="M641.104 751.027L637.33 761.935L634.643 767.464L631.339 761.772L630.625 756.744L634.314 750.041L639.331 744.837L642.193 746.889L641.104 751.027Z" stroke="#002448" stroke-opacity="0.2"/>
<path d="M294.721 656.429L294.893 651.602L286.554 648.204L280 644.289L275.911 640.5L268.743 634.895L265.66 626.42L263.557 624.913L256.781 625.296L254.382 623.594L253.711 616.905L245.265 612.43L239.984 617.35L234.63 620.245L235.658 624.448L228.587 624.562L228.339 592.98L244.476 587.733L245.647 588.506L255.363 594.849L260.492 598.166L266.479 605.987L273.829 604.732L284.58 604.057L292.083 610.333L291.616 618.83L294.67 618.888L295.946 625.727L303.916 625.995L305.635 629.91L307.969 629.856L310.712 623.934L318.98 618.101L322.575 616.543L324.437 617.373L319.174 622.803L323.802 625.935L328.267 623.863L335.696 628.231L327.668 634.144L322.899 633.339L320.312 633.552L319.416 631.274L320.721 627.453L312.34 629.371L310.346 634.632L307.368 639.123L302.134 638.743L300.509 642.3L305.108 644.216L306.463 650.158L302.939 658.137L298.211 656.48L294.721 656.429Z" stroke="#002448" stroke-opacity="0.2"/>
<path d="M555.054 770.268L546.684 775.985L541.462 782.258L540.085 786.843L544.878 793.769L550.74 802.298L556.427 806.309L560.237 811.504L563.109 823.405L562.262 834.63L557.035 838.812L549.857 842.893L544.744 848.164L536.928 854.035L534.65 849.993L536.412 845.716L531.762 842.121L537.187 839.568L543.767 839.108L541.015 835.26L551.551 830.362L552.322 822.703L550.869 818.424L552.01 811.985L550.431 807.418L545.689 802.904L541.737 797.163L536.528 789.417L529.016 785.477L530.816 783.101L534.822 781.366L532.392 775.571L524.675 775.52L521.86 769.446L518.198 764.134L521.563 762.489L526.562 762.522L532.654 761.742L537.997 758.131L541.019 760.675L546.749 761.909L545.759 765.797L548.743 768.529L555.054 770.268Z" stroke="#002448" stroke-opacity="0.2"/>
<path d="M929.867 1011.77L927.799 1012.63L925.7 1009.78L925.933 1008.04L929.867 1011.77ZM925.249 1001.86L926.266 1007.06L924.58 1006.25L923.275 1006.6L922.378 1004.82L922.246 999.876L925.249 1001.86Z" stroke="#002448" stroke-opacity="0.2"/>
<path d="M210.661 802.6L206.13 804.346L204.916 807.225L204.766 809.432L198.526 812.159L188.511 815.168L182.897 819.704L180.138 820.058L178.258 819.678L174.594 822.34L170.599 823.572L165.336 823.905L163.754 824.27L162.383 825.957L160.74 826.425L159.77 828.05L156.667 827.909L154.663 828.774L150.326 828.45L148.694 824.717L148.873 821.216L147.849 819.322L146.624 814.565L144.822 811.913L146.076 811.6L145.433 808.647L146.193 807.397L145.916 804.569L148.668 802.497L148.026 799.752L149.685 796.543L152.26 798.242L153.959 797.652L161.194 797.503L162.343 798.155L168.401 798.808L170.805 798.482L172.372 800.655L175.298 799.568L179.79 792.703L185.64 789.749L203.715 787.225L208.616 798.048L210.661 802.6Z" stroke="#002448" stroke-opacity="0.2"/>
<path d="M246.721 773.202L244.38 777.767L241.539 777.418L240.235 779.001L239.229 782.364L240.001 786.779L239.408 787.588L236.524 787.566L232.61 790.025L231.999 793.222L230.564 794.604L226.665 794.552L224.21 796.2L224.242 798.838L221.21 800.649L217.752 800.034L213.56 802.229L210.663 802.598L208.617 798.046L203.717 787.224L222.52 780.613L226.699 767.262L223.826 762.489L223.989 759.764L225.816 756.956L225.834 754.172L228.67 752.829L227.562 751.879L228.074 747.414L231.277 747.387L234.087 752.071L237.586 754.548L242.185 755.438L245.896 756.679L248.726 760.568L250.416 762.815L252.661 763.669L252.648 765.174L250.365 769.18L249.363 771.06L246.721 773.202ZM231.239 740.685L230.423 741.941L229.229 739.578L231.056 737.211L231.832 737.817L231.239 740.685Z" stroke="#002448" stroke-opacity="0.2"/>
</svg>
