<svg width="119" height="48" viewBox="0 0 119 48" fill="none" xmlns="http://www.w3.org/2000/svg">
<path d="M22.9113 10.2812C21.4529 10.2812 20.1508 10.5938 19.005 11.2188C17.8592 11.8229 16.88 12.7083 16.0675 13.875C15.255 15.0417 14.63 16.4688 14.1925 18.1562C13.7758 19.8229 13.5675 21.7188 13.5675 23.8438C13.5675 26.7188 13.9321 29.1354 14.6613 31.0938C15.3904 33.0521 16.4946 34.5312 17.9738 35.5312C19.4738 36.5312 21.3488 37.0312 23.5988 37.0312C25.6404 37.0312 27.5988 36.75 29.4738 36.1875C31.3696 35.625 33.2758 34.9479 35.1925 34.1562V44.5938C33.1717 45.4896 31.0988 46.1354 28.9738 46.5312C26.8696 46.9271 24.63 47.125 22.255 47.125C17.2967 47.125 13.2342 46.1458 10.0675 44.1875C6.92167 42.2083 4.59875 39.4688 3.09875 35.9688C1.61958 32.4688 0.880001 28.4062 0.880001 23.7812C0.880001 20.3229 1.35917 17.1562 2.3175 14.2812C3.29667 11.4062 4.72375 8.91667 6.59875 6.8125C8.47375 4.6875 10.7863 3.05208 13.5363 1.90625C16.3071 0.739583 19.4738 0.15625 23.0363 0.15625C25.2446 0.15625 27.5675 0.416667 30.005 0.9375C32.4633 1.4375 34.8592 2.25 37.1925 3.375L33.4113 13.0938C31.7446 12.3021 30.0571 11.6354 28.3488 11.0938C26.6404 10.5521 24.8279 10.2812 22.9113 10.2812ZM69.2812 46.5L67.0312 37.9375H52.1875L49.875 46.5H36.3125L51.2188 0.625H67.6875L82.7812 46.5H69.2812ZM64.4688 27.8125L62.5 20.3125C62.2917 19.5 61.9896 18.3438 61.5938 16.8438C61.1979 15.3229 60.8021 13.7604 60.4062 12.1562C60.0312 10.5312 59.7396 9.19792 59.5312 8.15625C59.3438 9.19792 59.0729 10.4896 58.7188 12.0312C58.3854 13.5521 58.0312 15.0625 57.6562 16.5625C57.3021 18.0625 56.9896 19.3125 56.7188 20.3125L54.75 27.8125H64.4688ZM100.682 0.8125C106.474 0.8125 110.807 2.07292 113.682 4.59375C116.578 7.11458 118.026 10.6979 118.026 15.3438C118.026 17.4271 117.724 19.4271 117.12 21.3438C116.537 23.2604 115.568 24.9688 114.214 26.4688C112.88 27.9688 111.099 29.1562 108.87 30.0312C106.662 30.9062 103.932 31.3438 100.682 31.3438H97.2137V46.5H84.87V0.8125H100.682ZM100.401 10.7812H97.2137V21.2812H99.6512C100.714 21.2812 101.703 21.1042 102.62 20.75C103.537 20.375 104.266 19.7812 104.807 18.9688C105.37 18.1354 105.651 17.0312 105.651 15.6562C105.651 14.2188 105.224 13.0521 104.37 12.1562C103.516 11.2396 102.193 10.7812 100.401 10.7812Z" fill="#FFC68D"/>
</svg>
