<svg width="1102" height="1024" viewBox="0 0 1102 1024" fill="none" xmlns="http://www.w3.org/2000/svg">
<path d="M542.642 853.413L537.406 859.629L535.572 869.563L539.784 877.568L537.004 882.843L530.551 883.498L526.573 889.727L514.779 896.281L512.763 893.647L514.488 889.028L508.918 878.216L512.012 867.801L519.779 854.259L524.876 848.749L523.734 844.236L525.73 837.065L537.286 829.726L536.461 834.181L541.536 834.222L542.288 841.429L545.06 845.298L542.642 853.413Z" stroke="#002448" stroke-opacity="0.2"/>
<path d="M549.188 688.815L543.655 697.807L534.798 693.829L535.552 700.246L523.598 712.686L518.848 715.178L504.87 709.496L494.602 711.05L482.442 703.392L462.686 687.296L462.811 677.733L445.491 674.657L441.681 678.171L433.657 670.599L425.932 666.332L420.734 658.919L425.7 654.377L426.966 649.994L432.281 650.874L437.297 660.913L442.31 655.825L455.697 663.116L468.807 664.059L476.01 668.197L478.738 675.174L481.992 671.9L486.701 655.667L493.697 655.245L504.202 646.847L512.383 659.787L525.628 654.097L531.964 654.826L540.839 667.637L548.77 669.761L553.962 677.53L551.339 679.95L549.188 688.815Z" stroke="#002448" stroke-opacity="0.2"/>
<path d="M547.21 777.45L552.92 779.983L544.592 787.858L548.336 799.697L541.407 808.845L537.281 808.114L533.452 808.749L526.073 811.423L518.425 822.121L508.218 807.725L506.374 796.062L502.571 788.568L499.044 777.186L498.722 768.871L495.712 755.11L503.173 747.42L506.489 755.078L511.98 752.025L519.535 754.87L531.35 764.696L542.335 769.326L547.21 777.45Z" stroke="#002448" stroke-opacity="0.2"/>
<path d="M370.329 513.148L380.92 520.349L397.831 521.758L402.78 537.226L408.763 546.95L399.421 562.749L394.91 561.809L387.018 574.633L378.318 557.342L369.41 555.57L363.694 539.07L360.907 525.856L353.799 522.134L355.507 512.358L370.329 513.148Z" stroke="#002448" stroke-opacity="0.2"/>
<path d="M598.253 817.261L598.697 828.259L605.498 829.437L616.018 838.308L638.537 849.939L648.838 847.954L669.614 851.306L677.432 864.406L685.625 870.879L673.416 876.103L660.733 888.765L660.301 903.128L648.079 894.151L629.083 893.494L624.178 903.82L609.02 899.29L601.283 886.978L586.111 886.988L574.78 881.099L579.968 866.753L575.192 856.41L579.132 854.597L578.58 851.298L584.298 845.727L593.325 841.764L589.936 828.999L592.131 820.439L598.253 817.261Z" stroke="#002448" stroke-opacity="0.2"/>
<path d="M473.511 609.818L488.595 616.902L510.207 614.602L520.791 601.018L537.635 598.134L541.782 585.112L553.45 584.783L575.22 581.663L588.539 596.213L587.617 604.144L597.365 604.576L609.689 618.18L605.342 631.793L598.636 637.618L600.435 659.738L604.611 667.511L601.48 671.882L609.938 681.347L611.265 690.423L602.556 693.363L590.31 686.693L586.18 687.751L585.944 698.048L582.316 716.239L568.159 711.617L560.789 714.983L554.011 727.199L548.874 721.935L534.163 716.69L532.726 708.941L524.849 710.645L520.599 704.325L508.473 698.196L493.725 684.157L478.782 674.955L466.365 669.984L454.648 672.925L446.698 670.487L451.53 659.088L452.084 645.037L463.886 644.06L468.69 633.762L468.869 621.825L473.511 609.818Z" stroke="#002448" stroke-opacity="0.2"/>
<path d="M426.964 649.993L425.699 654.376L420.732 658.918L425.93 666.332L433.655 670.599L428.158 679.378L419.498 680.057L409.181 671.927L401.631 679.502L393.835 676.817L392.743 672.002L380.471 675.63L372.419 673.254L367.856 665.366L366.985 653.005L357.876 653.141L362.789 642.96L380.128 635.296L382.3 629.191L388.481 634.579L394.585 632.582L407.858 638.821L413.382 635.236L426.964 649.993Z" stroke="#002448" stroke-opacity="0.2"/>
<path d="M553.961 677.53L548.769 669.761L540.839 667.637L531.964 654.826L525.628 654.097L512.382 659.787L504.202 646.848L500.021 632.54L494.645 623.113L497.633 612.144L498.188 603.641L512.023 603.495L520.646 600.003L534.102 600.333L540.192 597.39L543.025 602.132L551.208 602.723L555.01 614.109L565.758 621.604L561.693 627.934L567.91 636.879L573.13 631.615L582.646 639.265L580.646 647.59L591.641 654.38L593.432 669.586L588.742 667.484L584.341 670.709L580.263 670.109L576.76 675.088L573.24 674.85L571.806 676.872L565.332 676.891L558.563 673.329L553.961 677.53Z" stroke="#002448" stroke-opacity="0.2"/>
<path d="M517.258 465.313L512.761 475.933L525.76 489.433L521.269 498.853L539.5 501.1L551.673 497.765L564.569 516.42L568.117 528.257L565.691 543.319L558.145 548.288L559.641 560.11L557.284 575.583L552.076 583.771L551.209 602.725L543.026 602.134L540.193 597.392L534.103 600.335L520.647 600.005L512.024 603.497L498.189 603.643L497.634 612.146L494.646 623.115L500.022 632.542L504.202 646.849L493.697 655.247L486.701 655.669L481.992 671.902L478.738 675.177L476.01 668.199L468.808 664.061L455.697 663.118L442.31 655.827L437.297 660.915L432.282 650.876L426.967 649.996L413.384 635.238L407.86 638.824L394.588 632.585L404.16 616.844L419.484 604.229L398.879 589.537L394.337 579.881L400.049 569.68L399.42 562.752L408.762 546.954L418.076 519.509L427.51 523.791L435.843 516.025L450.52 494.163L451.621 483.97L457.23 479.781L470.996 484.313L471.256 491.458L487.855 483.254L488.837 471.587L495.109 455.897L505.331 464.889L517.258 465.313Z" stroke="#002448" stroke-opacity="0.2"/>
<path d="M568.543 467.852L549.007 485.785L539.624 462.859L542.669 450.369L569.904 451.581L568.543 467.852ZM551.478 431.362L542.802 440.255L539.518 435.077L519.08 450.006L517.257 465.316L505.33 464.891L495.108 455.9L495.678 437.762L508.248 408.895L514.364 402.39L522.787 395.821L537.425 400.324L546.572 394.834L562.949 392.34L555.6 407.072L546.685 414.336L544.924 423.189L551.478 431.362Z" stroke="#002448" stroke-opacity="0.2"/>
<path d="M779.272 488.588L789.05 471.934L781.569 473.068L776.455 457.903L783.021 439.861L806.757 440.345L828.566 444.857L843.265 457.711L859.875 464.173L859.79 470.62L840.646 483.063L832.654 512.948L821.706 519.171L808.791 513.23L800.236 496.215L795.004 489.468L779.272 488.588Z" stroke="#002448" stroke-opacity="0.2"/>
<path d="M78.0675 641.238L85.7029 626.561L83.5047 614.399L112.769 608.975L130.192 621.618L151.322 631.076L166.346 642.356L179.883 647.155L204.918 659.418L207.377 670.605L231.847 693.441L239.642 691.443L252.927 709.079L272.362 714.618L267.622 727.255L246.419 734.397L224.315 729.629L219.752 735.942L204.93 742.929L191.355 756.718L192.238 770.997L179.105 775.773L169.848 787.111L156.213 785.646L138.246 795.638L118.2 786.869L103.411 779.689L90.4604 782.076L81.1395 786.655L74.1906 781.559L71.3605 772.373L72.0103 759.15L58.7467 749.449L60.3953 742.356L69.5779 737.605L74.186 733.197L71.4679 724.818L81.7868 713.64L81.0188 698.664L88.5573 700.076L93.5747 690.733L97.4864 688.893L105.013 672.897L114.829 670.569L115.216 658.085L106.409 653.183L102.515 654.612L93.2382 650.415L94.0006 638.325L86.1918 638.485L78.0675 641.238Z" stroke="#002448" stroke-opacity="0.2"/>
<path d="M1028.87 118.425L1012.81 147.624L1024.13 186.488L995.691 210.551L993.665 263.387L968.417 290.826L970.17 324.425L953.196 344.7L965.581 379.093L951.766 393.78L928.393 406.46L875.931 432.608L846.31 422.168L813.447 421.176L784.914 416.15L783.641 394.864L773.211 377.487L791.297 347.024L797.455 313.29L814.056 296.669L838.324 281.087L892.109 258.148L906.11 255.16L911.71 238.543L898.103 210.559L899.689 193.039L927.608 130.624L916.244 90.6361L905.019 59.8388L919.746 52.4375L926.601 83.6168L948.066 90.796L960.148 108.924L983.874 96.4926L1006.49 67.2319L1037.92 62.7945L1049.76 90.1598L1028.87 118.425Z" stroke="#002448" stroke-opacity="0.2"/>
<path d="M372.423 768.362L359.87 782.192L354.68 774.701L357.485 758.912L364.237 752.481L378.05 748.94L372.423 768.362ZM363.693 539.073L369.403 555.57L378.317 557.345L387.016 574.636L389.572 578.326L394.331 579.878L398.873 589.534L419.476 604.231L404.16 616.843L394.587 632.584L388.477 634.579L382.296 629.19L380.125 635.296L362.779 642.957L357.867 653.138L366.975 653.002L367.852 665.366L364.313 671.416L365.113 681.901L356.596 686.184L352.899 705.032L360.146 711.67L354.059 720.275L334.308 725.963L306.01 706.059L279.993 702.617L272.356 714.625L252.921 709.087L239.638 691.445L231.839 693.44L207.366 670.61L204.908 659.418L218.931 650.135L241.99 607.417L236.659 576.182L230.402 559.239L210.497 539.374L216.726 521.496L239.424 525.595L262.99 543.696L270.36 514.318L280.461 531.41L325.589 529.162L339.485 511.134L355.495 512.356L353.787 522.131L360.892 525.86L363.693 539.073Z" stroke="#002448" stroke-opacity="0.2"/>
<path d="M267.455 365.61L250.669 380.174L241.309 369.291L231.44 365.237L241.225 352.322L244.625 336.278L258.296 341.138L267.455 365.61ZM362.039 268.407L330.671 292.83L348.478 296.1L365.6 304.078L350.762 325.82L325.1 344.774L340.512 353.94L340.425 357.44L339.653 396.186L348.419 405.407L344.296 440.073L344.077 452.411L360.839 466.002L351.457 481.546L340.075 485.355L340.413 501.231L320.369 507.832L299.483 498.046L269.686 492.667L264.575 484.482L248.957 491.275L235.707 481.884L220.436 486.193L214.309 477.526L249.132 462.06L265.639 463.05L265.526 462.971L242.93 447.623L243.076 435.535L263.072 435.093L260.793 417.307L271.562 401.564L293.797 414.56L293.825 414.573L303.126 400.275L300.138 378.971L300.076 378.484L283.193 365.04L282.813 355.963L294.108 346.276L292.429 336.283L278.022 345.519L289.327 318.257L287.994 300.172L307.338 272.794L330.51 254.22L341.956 262.303L362.039 268.407Z" stroke="#002448" stroke-opacity="0.2"/>
<path d="M535.238 999.046L540.872 1009.42L553.579 1013.89L564.633 1020.56L562.742 1023.72L572.337 1025.32L567.807 1030.06L544.472 1021.4L546.063 1018.32L528.616 1005.87L535.238 999.046ZM634.206 902.514L623.425 913.313L618.643 913.933L609.35 908.999L602.055 903.313L580.608 900.026L586.232 916.518L576.75 916.214L567.999 912.256L564.501 897.935L559.509 901.094L557.467 914.866L560.995 927.937L553.072 929.653L557.609 942.866L562.744 952.184L557.883 963.482L553.204 953.609L545.755 951.63L545.799 963.804L540.183 962.531L536.355 956.099L533.001 981.272L529.703 979.865L530.425 971.661L527.283 970.061L522.47 976.774L520.691 973.944L523.145 970.068L522.668 962.791L519.103 961.168L517.616 966.186L515.536 967.043L513.465 962.452L513.923 955.763L518.277 953.901L518.165 948.85L516.855 945.673L514.728 944.069L514.383 937.541L518.968 936.122L522.199 934.324L525.078 936.324L527.527 934.669L531.244 935.26L533.892 939.58L536.555 941.935L540.3 939.438L535.265 936.578L532.654 934.078L524.946 932.46L518.002 929.623L516.067 917.655L515.701 915.772L518.271 912.605L513.251 902.516L514.812 896.268L526.606 889.714L530.579 883.483L537.035 882.821L539.814 877.547L550.91 880.39L558.956 878.581L567.279 882.857L571.507 880.411L574.811 881.078L586.144 886.961L601.316 886.951L609.059 899.266L624.212 903.794L629.122 893.47L634.206 902.514Z" stroke="#002448" stroke-opacity="0.2"/>
<path d="M555.081 752.851L554.943 763.259L557.039 771.875L547.21 777.453L542.336 769.329L531.351 764.699L519.536 754.873L511.981 752.028L506.49 755.081L503.173 747.423L495.713 755.113L498.723 768.874L499.045 777.189L502.571 788.571L506.374 796.065L508.218 807.728L518.425 822.124L515.058 824.949L503.893 810.359L498.297 798.522L486.859 785.598L480.933 763.625L484.844 763.433L481.886 750.952L484.988 743.366L476.492 735.275L467.338 742.633L466.073 733.125L469.941 725.563L470.664 725.46L481.252 731.2L485.84 728.735L489.518 734.815L495.477 738.048L498.264 731.778L504.759 731.965L510.433 723.556L525.664 723.222L529.376 728.29L536.695 743.317L547.69 753.532L555.081 752.851Z" stroke="#002448" stroke-opacity="0.2"/>
<path d="M523.596 712.687L535.55 700.247L534.797 693.83L543.653 697.808L549.187 688.816L554.449 698.434L559.078 703.609L573.544 706.75L576.947 702.631L583.497 704.775L592.794 704.61L593.81 706.89L602.509 707.311L608.719 703.436L614.519 704.334L628.059 719.154L632.501 718.271L638.296 728.632L636.539 735.399L624.732 735.914L610.182 748.193L593.657 759.322L579.136 757.858L569.799 752.398L555.081 752.851L547.69 753.532L536.694 743.317L529.375 728.29L525.664 723.222L526.117 714.139L523.596 712.687Z" stroke="#002448" stroke-opacity="0.2"/>
<path d="M250.671 380.173L244.695 400.153L222.332 417.826L187.687 420.171L167.217 406.236L192.116 385.279L196.069 354.873L226.974 343.589L244.621 336.274L241.226 352.322L231.436 365.233L241.31 369.29L250.671 380.173Z" stroke="#002448" stroke-opacity="0.2"/>
<path d="M429.397 891.202L416.654 904.202L416.229 911.353L408.365 919.899L399.707 907.086L392.688 901.343L375.336 881.376L382.162 872.216L399.697 882.388L416.688 887.51L429.397 891.202ZM357.951 785.585L360.683 804.543L346.22 830.461L339.666 825.937L330.205 829.743L326.692 821.698L337.236 796.88L339.018 783.47L347.175 788.434L357.951 785.585ZM462.685 687.294L482.447 703.393L475.673 713.76L475.078 725.022L464.074 716.072L447.705 718.192L443.563 729.589L438.787 734.988L438.862 748.46L448.603 766.076L448.424 787.391L458.119 812.391L470.472 817.86L472.182 824.24L465.88 826.403L476.504 840.328L485.172 851.841L493.736 868.705L493.624 873.269L487.364 879.242L482.998 865.742L470.903 856.161L458.282 866.372L466.195 879.055L459.544 888.721L452.448 886.929L436.276 900.219L429.047 898.765L431.871 892.727L439.946 883.48L445.305 880.745L444.503 866.26L444.389 853.824L439.035 848.312L438.435 837.344L430.058 829.003L427.059 817.591L416.061 810.956L408.089 795.955L399.972 775.721L394.882 758.621L399.675 735.11L393.02 729.026L383.535 716.012L374.965 715.678L361.309 721.634L354.066 720.255L360.153 711.649L352.906 705.012L356.603 686.164L365.12 681.88L364.32 671.396L367.859 665.345L372.422 673.233L380.472 675.615L392.744 671.987L393.835 676.802L401.632 679.487L409.182 671.912L419.499 680.042L428.153 679.361L433.65 670.581L441.677 678.161L445.481 674.644L462.802 677.72L462.685 687.294Z" stroke="#002448" stroke-opacity="0.2"/>
<path d="M547.223 850.501L544.556 854.489L542.642 853.409L545.06 845.294L542.289 841.425L541.537 834.218L546.64 830.785L551.093 830.962L556.5 824.844L559.855 824.939L560.704 828.98L563.03 831.647L563.537 835.979L565.658 838.161L566.911 843.495L569.192 844.391L565.08 848.762L562.054 850.424L561.853 852.245L557.975 851.458L547.223 850.501Z" stroke="#002448" stroke-opacity="0.2"/>
<path d="M710.163 574.567L712.033 567.122L717.093 560.461L712.123 552.976L697.875 540.705L705.149 515.885L727.049 515.432L752.536 529.225L769.218 533.45L768.753 540.318L776.282 545.922L785.199 566.325L781.053 579.348L764.208 582.231L753.625 595.816L732.012 598.116L716.929 591.032L716.906 581.097L710.163 574.567Z" stroke="#002448" stroke-opacity="0.2"/>
<path d="M399.42 562.749L400.05 569.677L394.337 579.879L389.581 578.321L387.017 574.634L394.909 561.81L399.42 562.749Z" stroke="#002448" stroke-opacity="0.2"/>
<path d="M705.149 515.886L715.389 494.822L731.342 480.23L750.675 476.987L753.248 504.365L766.094 509.538L779.274 488.589L795.006 489.469L800.238 496.216L808.793 513.231L821.708 519.173L826.223 529.302L821.214 543.85L818.637 562.878L796.867 565.998L785.199 566.326L776.281 545.923L768.752 540.32L769.218 533.451L752.535 529.227L727.049 515.433L705.149 515.886Z" stroke="#002448" stroke-opacity="0.2"/>
<path d="M701.482 755.398L706.803 753.639L718.29 756.052L726.522 768.644L732.574 772.46L736.8 781.978L732.09 789.34L736.082 795.724L733.973 806.364L736.807 814.667L734.152 817.559L736.032 821.192L731.109 820.977L722.168 816.103L722.053 812.26L717.948 812.58L717.212 817.136L709.637 822.375L703.398 828.824L698.344 829.448L700.187 817.951L706.23 809.055L710.28 798.84L707.448 781.052L706.927 769.005L705.219 759.863L701.482 755.398Z" stroke="#002448" stroke-opacity="0.2"/>
<path d="M536.462 834.179L537.287 829.724L525.731 837.062L523.735 844.234L521.19 841.115L519.931 832.232L515.062 824.942L518.426 822.123L526.074 811.424L533.453 808.75L537.282 808.116L539.761 813.71L540.697 817.724L544.804 822.384L548.766 829.546L546.64 830.787L541.537 834.22L536.462 834.179Z" stroke="#002448" stroke-opacity="0.2"/>
<path d="M542.643 853.413L544.557 854.494L547.223 850.506L557.976 851.463L561.854 852.249L567.759 853.451L575.194 856.411L579.97 866.754L574.783 881.099L571.478 880.433L567.245 882.876L558.928 878.603L550.882 880.412L539.786 877.569L535.573 869.564L537.402 859.627L542.643 853.413Z" stroke="#002448" stroke-opacity="0.2"/>
<path d="M416.804 478.284L413.534 482.93L415.839 485.047L415.986 487.87L415.516 490.163L417.345 491.934L417.011 493.113L414.388 493.71L412.173 492.863L411.429 494.497L411.738 497.779L408.432 499.328L410.29 501.018L416.687 498.722L421.171 495.98L422.394 493.294L422.308 491.005L420.328 488.557L422.244 485.909L422.823 483.079L427.699 478.543L431.332 476.677L438.918 477.287L451.618 483.968L450.517 494.161L435.84 516.023L427.507 523.789L418.073 519.507L408.759 546.952L402.775 537.228L397.826 521.76L380.916 520.35L370.324 513.149L377.41 508.004L385.621 503.575L395.961 499.845L405.528 490.067L412.458 478.481L416.804 478.284Z" stroke="#002448" stroke-opacity="0.2"/>
<path d="M1066.75 17.4918L1099.93 74.7558L1074.05 78.0118L1078.21 114.462L1043.39 120.146L1028.87 118.426L1049.77 90.1607L1037.92 62.7954L1006.48 67.2304L983.873 96.4856L960.152 108.919L948.068 90.7831L926.603 83.6039L919.747 52.4247L905.02 59.8259L894.466 57.2026L879.209 84.5968L852.759 64.2842L837.862 85.9917L822.862 78.9928L799.145 103.616L763.404 140.492L714.834 182.56L714.86 197.652L702.891 209.457L687.607 201.761L662.368 230.171L642.835 275.623L645.275 296.853L622.943 332.133L600.175 347.52L585.245 361.97L583.257 338.425L536.312 359.384L512.223 356.827L497.445 331.755L506.779 296.388L535.591 219.948L559.913 204.843L614.548 194.696L662.307 171.946L714.73 132.977L787.494 73.1314L828.23 53.3452L896.553 17.6164L940.137 13.1932L964.83 27.409L1006.55 -0.854752L1034.19 14.3048L1066.75 17.4918Z" stroke="#002448" stroke-opacity="0.2"/>
<path d="M551.208 602.723L552.076 583.769L557.284 575.58L559.64 560.108L558.145 548.286L565.691 543.317L568.117 528.255L582.393 525.33L612.527 524.08L636.46 523.91L650.028 535.628L648.21 542.752L663.188 549.977L681.125 561.833L710.161 574.568L716.904 581.097L716.927 591.032L712.285 603.038L712.106 614.976L707.302 625.274L695.5 626.251L694.946 640.301L690.114 651.701L688.09 677.067L683.265 683.214L674.179 682.529L650.736 696.238L649.877 708.852L647.079 705.903L636.37 689.893L623.529 688.153L617.243 682.312L605.629 683.233L601.597 671.107L593.654 671.443L593.433 669.586L591.641 654.379L580.646 647.59L582.646 639.265L573.131 631.615L567.91 636.879L561.693 627.934L565.758 621.603L555.01 614.109L551.208 602.723Z" stroke="#002448" stroke-opacity="0.2"/>
<path d="M78.0623 641.239L86.1867 638.486L93.9955 638.326L93.233 650.417L102.51 654.614L106.404 653.184L115.211 658.086L114.824 670.57L105.008 672.898L97.4813 688.894L93.5696 690.734L88.5522 700.077L81.0136 698.665L81.7817 713.641L71.4627 724.82L74.1809 733.198L69.5727 737.606L60.3902 742.357L58.7415 749.45L50.1239 751.654L43.1041 745.14L34.0259 743.608L43.4151 729.338L47.4928 716.48L41.3056 711.447L41.0036 702.168L48.252 689.558L57.8587 685.048L62.7254 677.312L71.6222 666.452L75.2649 657.518L75.5352 648.615L78.0623 641.239Z" stroke="#002448" stroke-opacity="0.2"/>
<path d="M636.539 735.398L645.596 733.475L654.117 740.489L664.14 745.155L668.832 754.169L675.816 753.031L688.415 756.059L694.861 752.379L701.478 755.399L705.215 759.864L706.923 769.006L707.445 781.053L710.277 798.84L706.227 809.056L700.183 817.952L698.34 829.449L703.473 836.738L712.473 836.512L717.851 843.575L715.611 849.46L705.843 850.748L702.015 846.512L685.625 870.877L677.431 864.404L669.614 851.305L648.838 847.953L638.537 849.937L616.018 838.306L605.497 829.435L598.697 828.257L598.253 817.259L597.117 812.141L602.438 810.098L599.809 805.604L592.648 808.275L586.403 797.73L589.32 788.059L582.139 778.473L583.618 770.566L579.135 757.857L593.656 759.321L610.182 748.192L624.731 735.913L636.539 735.398Z" stroke="#002448" stroke-opacity="0.2"/>
<path d="M582.143 778.472L589.324 788.059L586.407 797.73L592.652 808.275L599.813 805.604L602.443 810.098L597.121 812.141L598.257 817.259L592.134 820.437L589.939 828.997L593.329 841.762L584.302 845.725L578.583 851.296L579.135 854.595L575.195 856.408L567.76 853.449L561.855 852.246L562.056 850.426L565.082 848.764L569.194 844.393L566.913 843.497L565.66 838.163L563.539 835.981L563.032 831.649L560.706 828.982L559.857 824.941L556.502 824.846L551.095 830.964L546.642 830.787L548.768 829.546L544.806 822.385L540.699 817.724L539.763 813.711L537.284 808.116L541.411 808.847L548.339 799.699L544.595 787.86L552.924 779.984L547.213 777.452L557.042 771.874L554.946 763.258L555.084 752.849L569.803 752.396L579.139 757.857L583.622 770.565L582.143 778.472Z" stroke="#002448" stroke-opacity="0.2"/>
<path d="M866.169 209.127L839.004 228.444L831.223 252.033L793.171 269.427L749.268 285.501L716.414 327.374L717.221 355.218L724.223 379.62L693.944 407.897L674.404 407.546L645.903 454.279L624.865 476.846L607.069 465.466L588.127 483.521L569.387 476.515L576.402 447.888L578.074 409.39L585.25 361.98L600.18 347.53L622.948 332.143L645.281 296.864L642.841 275.633L662.374 230.181L687.606 201.769L702.896 209.467L714.86 197.659L714.833 182.568L763.403 140.5L799.139 103.621L822.861 79.0007L837.862 85.9997L852.759 64.2922L879.209 84.6049L894.463 57.2161L905.018 59.8395L916.242 90.6369L927.606 130.625L899.687 193.04L898.102 210.56L866.169 209.127Z" stroke="#002448" stroke-opacity="0.2"/>
<path d="M482.443 703.395L494.603 711.053L504.87 709.499L518.849 715.181L523.598 712.689L526.119 714.141L525.666 723.224L510.434 723.558L504.761 731.967L498.266 731.78L495.478 738.05L489.519 734.817L485.842 728.737L481.254 731.202L470.666 725.462L475.08 725.026L475.674 713.765L482.443 703.395Z" stroke="#002448" stroke-opacity="0.2"/>
<path d="M593.432 669.583L593.653 671.44L601.596 671.105L605.628 683.23L617.242 682.309L623.528 688.151L636.369 689.89L647.078 705.9L639.907 710.12L632.501 718.268L628.06 719.15L614.519 704.331L608.719 703.433L602.509 707.307L593.81 706.886L592.794 704.607L583.497 704.772L576.947 702.627L573.545 706.746L559.078 703.605L554.449 698.43L549.187 688.812L551.338 679.948L553.96 677.527L558.562 673.326L565.332 676.888L571.805 676.869L573.239 674.847L576.759 675.085L580.263 670.106L584.34 670.706L588.741 667.481L593.432 669.583Z" stroke="#002448" stroke-opacity="0.2"/>
<path d="M825.734 697.454L831.124 701.151L837.734 697.155L841.912 700.605L859.311 705.541L862.773 724.514L856.529 727.839L854.281 736.22L866.243 743.126L866.912 756.449L864.359 761.151L880.358 778.853L894.166 780.458L898.641 796.299L907.93 800.218L927.471 818.627L924.437 825.779L912.374 835.373L909.909 849.972L903.887 856.654L887.925 851.454L876.886 854.258L871.72 864.283L858.361 860.416L844.55 863.06L829.313 857.574L811.944 859.888L801.911 862.278L806.492 874.295L811.716 883.18L828.332 889.124L821.652 895.663L802.733 891.676L775.641 894.69L768.945 886.264L777.119 877.48L762.934 863.185L767.648 860.176L789.517 859.081L789.397 853.513L785.82 854.661L783.859 852.35L762.074 835.532L764.851 826.568L749.037 822.752L737.534 832.568L717.854 843.578L712.476 836.515L703.476 836.74L698.343 829.451L703.397 828.827L709.637 822.378L717.211 817.139L717.948 812.583L722.052 812.263L722.167 816.106L731.109 820.981L736.031 821.195L734.151 817.562L736.806 814.67L733.972 806.367L736.081 795.727L732.09 789.343L736.799 781.981L732.573 772.463L726.521 768.647L718.29 756.055L706.802 753.642L701.481 755.402L694.863 752.382L688.418 756.061L675.819 753.034L668.835 754.171L664.143 745.157L654.12 740.492L645.599 733.477L636.542 735.4L638.299 728.633L632.504 718.272L639.909 710.125L647.08 705.905L649.878 708.854L650.737 696.24L674.18 682.531L683.266 683.216L688.092 677.069L690.115 651.703L698.065 654.14L709.782 651.199L722.199 656.17L737.142 665.373L751.89 679.411L764.016 685.541L768.266 691.86L776.143 690.157L777.581 697.905L792.292 703.151L797.428 708.415L804.206 696.199L811.576 692.832L825.734 697.454Z" stroke="#002448" stroke-opacity="0.2"/>
</svg>
