<svg width="81" height="107" viewBox="0 0 81 107" fill="none" xmlns="http://www.w3.org/2000/svg">
<path d="M63.5353 18.0124C48.602 18.0124 48.2642 5.14571 30.9264 5.14571C21.5575 5.14571 12.8153 9.50126 9.10862 12.6746V0.0479279H0.219727V106.715H9.10862V66.3901C14.3708 62.7501 22.3486 58.919 30.9886 58.919C47.362 58.919 49.6597 71.159 64.2508 71.159C73.682 71.159 80.2197 65.119 80.2197 65.119V11.6613C80.2197 11.6613 73.0153 18.0124 63.5353 18.0124V18.0124ZM71.3308 60.4301C69.5531 61.3501 67.0686 62.2701 64.2508 62.2701C59.9308 62.2701 57.5931 60.6568 53.7131 57.9857C48.842 54.6301 42.1753 50.0301 30.9886 50.0301C22.1931 50.0301 14.4997 53.0479 9.10862 55.9813V22.7013C13.6375 18.6924 21.842 14.039 30.9264 14.039C36.8508 14.039 39.3442 15.9901 43.1086 18.9413C47.4019 22.3013 53.2775 26.9057 63.5353 26.9057C66.322 26.9057 68.9353 26.5235 71.3308 25.9146V60.4301V60.4301Z" fill="#FFC68D"/>
</svg>
