<svg width="802" height="516" viewBox="0 0 802 516" fill="none" xmlns="http://www.w3.org/2000/svg">
<path d="M394.488 416.344L406.346 421.935L413.027 419.711L422.605 416.603L429.968 417.688L430.839 437.059L426.632 442.75L425.367 456.163L421.077 451.579L412.558 463.289L410.019 462.379L402.468 461.854L394.899 447.513L393.218 436.586L386.14 422.342L386.45 414.922L394.488 416.344ZM371.948 39.601L376.369 49.4681L384.244 44.7228L388.311 50.0546L394.203 54.9793L392.942 60.5827L395.56 71.4564L397.425 77.8125L400.515 79.3666L403.847 90.2887L402.66 96.9423L406.635 105.675L419.934 112.426L428.602 118.585L436.836 124.241L435.229 127.397L442.251 135.592L447.022 149.814L451.921 146.916L456.898 152.633L459.901 150.602L462.015 164.645L470.722 172.836L476.422 177.944L486.013 188.835L489.463 199.722L489.778 207.488L488.933 215.967L494.781 227.682L494.081 239.987L491.958 246.466L488.644 259.034L488.894 267.171L486.464 277.415L481.044 290.53L471.952 297.67L467.474 309.008L463.377 316.301L459.739 329.135L455.003 336.608L451.899 347.915L450.314 358.426L450.945 363.28L443.91 368.638L430.169 369.199L418.84 375.563L413.202 381.605L405.786 388.342L395.621 381.408L388.101 378.654L390.01 370.551L383.299 373.484L372.552 384.787L361.941 380.541L354.98 378.072L347.959 376.96L336.078 372.464L328.142 362.943L325.861 351.321L323.011 343.651L316.979 337.532L305.173 335.719L309.209 328.448L306.237 317.408L300.244 327.699L289.322 330.444L295.744 322.193L297.604 313.643L302.345 306.438L301.36 295.617L291.379 308.088L283.71 313.122L279.008 324.911L269.426 318.8L269.807 310.96L262.129 300.323L255.654 294.864L257.961 291.511L242.211 282.751L233.583 282.339L221.781 275.349L199.801 276.706L183.906 281.849L169.942 286.665L158.228 285.706L145.218 293.13L134.572 296.483L132.208 304.144L127.677 310.111L117.259 310.47L109.55 311.779L98.7023 309.095L89.8726 310.702L81.446 311.376L74.1444 319.26L70.5678 318.59L64.413 322.788L58.512 327.524L49.5558 326.938L41.3302 326.933L28.3072 317.443L21.7102 314.633L21.9771 306.197L28.075 304.201L30.1588 300.87L29.7211 295.634L31.2224 285.557L29.8523 277.03L23.3648 262.61L21.3514 254.533L21.8809 246.523L16.9955 237.422L16.6847 233.333L11.2478 227.809L9.71579 217.005L2.69848 206.162L1 200.353L6.38882 206.245L2.24775 193.633L8.33685 197.564L11.9703 202.831L11.7645 195.87L5.68853 185.233L4.51079 180.995L1.66555 176.981L3.00067 169.246L5.51326 165.963L7.18984 159.313L5.87663 151.574L10.9502 142.097L11.8738 152.13L17.0612 143.064L27.0333 138.678L33.0131 133.092L42.3939 128.299L47.9711 127.283L51.3504 128.89L61.0203 124.035L68.4667 122.59L70.3271 119.745L73.5753 118.559L80.3604 118.865L93.2611 115.07L99.9324 109.322L103.067 102.427L110.268 95.9006L110.819 90.7832L111.139 83.8274L119.727 72.9974L124.897 84.0024L130.12 81.4546L125.751 75.4355L129.603 69.2676L135.018 72.0211L136.507 62.3687L143.213 56.1482L146.172 51.1666L152.344 49.0171L152.537 45.4976L157.93 46.9641L158.145 43.8036L163.542 41.9999L169.474 40.3059L178.54 46.0754L185.351 53.5392L193.034 53.6267L200.839 54.813L198.238 47.8877L204.118 37.8064L209.651 34.5275L207.738 31.3976L213.07 24.2535L220.503 19.8496L226.784 21.3337L237.094 18.9829L236.87 12.6137L227.879 8.51627L234.415 6.70837L242.544 9.79006L249.062 14.8987L259.397 18.09L262.903 16.8291L270.512 20.6595L277.682 17.0918L282.296 18.1775L285.168 15.783L290.801 21.9553L287.531 28.6441L282.874 33.7002L278.654 34.1204L280.076 39.1371L276.469 45.4188L272.109 51.6087L272.989 55.172L282.747 62.1585L292.202 66.2209L298.519 70.594L307.392 78.1321L310.851 78.119L317.277 81.3846L319.142 85.3289L330.86 89.6712L338.967 85.2982L341.371 78.443L343.857 72.8003L345.385 65.84L349.119 55.7716L347.412 49.6694L348.296 46.0054L346.878 38.8131L348.484 29.3709L350.839 26.8274L348.926 22.6557L351.894 16.0412L354.223 9.19919L354.529 5.6534L359.091 1L362.553 7.07602L363.403 14.8812L366.463 16.3871L366.984 21.627L371.449 27.9831L372.368 35.0747L371.948 39.601Z" stroke="#002448" stroke-opacity="0.2"/>
<path d="M733.525 418.39L736.309 425.092L745.038 418.513L748.588 425.372L748.601 432.249L744.035 439.87L736.011 452.114L729.729 458.86L734.256 466.985L724.787 467.195L714.285 473.608L710.998 484.85L704.02 502.478L694.385 510.366L688.261 515.44L676.954 515.063L669.009 509.206L655.666 507.963L653.608 501.489L660.205 488.544L675.636 471.581L683.56 468.381L692.38 461.938L702.899 453.139L710.267 444.493L715.726 432.201L720.379 428.06L722.2 418.981L730.811 411.526L733.525 418.39ZM753.057 343.915L761.952 359.959L762.211 349.527L767.753 353.681L769.587 365.286L779.467 370.32L787.762 371.559L794.779 365.662L801 367.444L798.023 381.238L794.285 390.4L784.913 390.076L781.634 394.878L782.776 401.712L780.973 404.679L776.333 413.321L770.248 424.405L760.762 430.914L758.656 426.628L753.539 424.282L760.617 410.979L756.599 402.171L743.387 395.815L743.733 390.089L752.602 384.604L754.673 372.592L754.104 362.603L749.131 352.342L749.459 349.658L743.593 343.398L733.936 330.086L728.801 319.541L733.354 318.377L740.034 326.637L749.586 330.511L753.057 343.915Z" stroke="#002448" stroke-opacity="0.2"/>
</svg>
