<svg width="100" height="100" viewBox="0 0 100 100" fill="none" xmlns="http://www.w3.org/2000/svg">
<path d="M50 0C22.3875 0 0 22.3875 0 50C0 77.6125 22.3875 100 50 100C77.6125 100 100 77.6125 100 50C100 22.3875 77.6125 0 50 0ZM82.3042 76.2708C81.2167 73.8292 79.0167 72.1417 74.5083 71.1C64.9542 68.8958 56.0583 66.9625 60.3708 58.8292C73.475 34.0708 63.8417 20.8333 50 20.8333C35.8833 20.8333 26.4833 34.5792 39.6292 58.8292C44.0708 67.0125 34.8458 68.9417 25.4917 71.1C20.975 72.1417 18.7917 73.8417 17.7125 76.2917C11.8583 69.1125 8.33333 59.9625 8.33333 50C8.33333 27.025 27.025 8.33333 50 8.33333C72.975 8.33333 91.6667 27.025 91.6667 50C91.6667 59.9542 88.1458 69.0958 82.3042 76.2708Z" fill="#FFC68D"/>
</svg>
